<svg width="90" height="83" viewBox="0 0 90 83" fill="none" xmlns="http://www.w3.org/2000/svg">
<path d="M6.20908 32.115C6.5793 32.3958 6.64438 32.542 6.79502 32.9939C6.81634 33.3047 6.82736 33.6162 6.83164 33.9277C6.83541 34.092 6.83919 34.2563 6.84308 34.4255C6.78986 34.9489 6.67317 35.2153 6.35556 35.6306C5.86527 35.8757 5.60882 35.9566 5.07383 35.8229C4.74424 35.6306 4.74424 35.6306 4.45127 35.1911C4.38951 34.7537 4.40376 34.3141 4.40549 33.8728C4.40313 33.7527 4.40077 33.6326 4.39834 33.5089C4.39824 33.3933 4.39815 33.2777 4.39805 33.1587C4.39762 33.0533 4.39718 32.9479 4.39673 32.8394C4.46747 32.4698 4.59755 32.3447 4.89072 32.115C5.4107 31.9416 5.68168 31.9831 6.20908 32.115Z" fill="black"/>
<path d="M9.1937 36.3264C9.35798 36.3226 9.52226 36.3188 9.69152 36.3149C10.2161 36.3683 10.4789 36.4866 10.8966 36.8025C11.1896 37.2419 11.1896 37.2419 11.1621 37.7546C11.0424 38.27 11.005 38.3987 10.6036 38.7068C10.1715 38.7972 9.73491 38.7747 9.29441 38.7708C9.17554 38.7738 9.05667 38.7767 8.93421 38.7797C8.37368 38.7793 8.06313 38.774 7.59496 38.447C7.2422 37.9093 7.31045 37.5835 7.38096 36.9489C7.81713 36.3051 8.47363 36.3363 9.1937 36.3264Z" fill="black"/>
<path d="M1.86948 36.3264C2.03376 36.3226 2.19804 36.3188 2.3673 36.3149C2.89185 36.3683 3.15467 36.4866 3.57236 36.8025C3.86533 37.2419 3.86533 37.2419 3.83787 37.7546C3.71822 38.27 3.68074 38.3987 3.27939 38.7068C2.84732 38.7972 2.41069 38.7747 1.97019 38.7708C1.85132 38.7738 1.73246 38.7767 1.60999 38.7797C1.04946 38.7793 0.738907 38.774 0.270742 38.447C-0.0820231 37.9093 -0.013767 37.5835 0.0567374 36.9489C0.492909 36.3051 1.14941 36.3363 1.86948 36.3264Z" fill="black"/>
<path d="M6.20897 39.4391C6.57919 39.72 6.64427 39.8662 6.7949 40.318C6.81622 40.6288 6.82725 40.9404 6.83152 41.2519C6.8353 41.4162 6.83908 41.5804 6.84297 41.7497C6.7859 42.3109 6.61061 42.6996 6.20897 43.1013C5.16826 43.1866 5.16826 43.1866 4.70979 42.8884C4.32631 42.3352 4.37088 41.845 4.38707 41.1878C4.38603 41.0684 4.38499 40.9489 4.38392 40.8259C4.39326 39.9518 4.39326 39.9518 4.64738 39.6306C5.17211 39.2176 5.5925 39.285 6.20897 39.4391Z" fill="black"/>
<path d="M86.7087 5.04785C87.1005 5.31323 87.1422 5.46938 87.2947 5.92676C87.3005 6.26851 87.3011 6.61042 87.2947 6.95215C87.3848 6.94705 87.4748 6.94195 87.5676 6.9367C87.7452 6.93075 87.7452 6.93075 87.9264 6.92469C88.1023 6.91704 88.1023 6.91704 88.2817 6.90924C88.613 6.95215 88.613 6.95215 88.8682 7.15185C89.1194 7.4787 89.1697 7.71366 89.199 8.12403C89.0619 8.57762 88.9493 8.81312 88.613 9.14942C88.296 9.17803 88.296 9.17803 87.9356 9.16773C87.8158 9.16508 87.6961 9.16244 87.5728 9.15972C87.481 9.15632 87.3892 9.15292 87.2947 9.14942C87.3038 9.3035 87.3128 9.45758 87.3222 9.61634C87.2917 10.2365 87.15 10.6124 86.7087 11.0537C85.6831 11.1378 85.6831 11.1378 85.1707 10.8431C84.8464 10.2892 84.9027 9.77626 84.9509 9.14942C84.8626 9.15621 84.7742 9.16301 84.6831 9.17002C83.7365 9.21277 83.7365 9.21277 83.2572 8.92053C82.9641 8.42356 82.9656 8.1054 83.0466 7.53809C83.2572 7.18103 83.2572 7.18103 83.6326 6.95215C84.0765 6.90554 84.5064 6.91796 84.9509 6.95215C84.9441 6.86378 84.9373 6.77541 84.9303 6.68436C84.8878 5.74171 84.8878 5.74171 85.1707 5.25843C85.722 4.94142 86.076 4.97755 86.7087 5.04785Z" fill="black"/>
<path d="M49.5743 2.50996C49.7911 2.50908 50.0079 2.50793 50.2247 2.50652C50.8055 2.5036 51.3862 2.5047 51.967 2.50677C52.5799 2.50843 53.1928 2.50688 53.8056 2.50587C54.8341 2.50469 55.8626 2.50623 56.891 2.50933C58.0737 2.51286 59.2563 2.51172 60.4389 2.50815C61.4612 2.50519 62.4835 2.5048 63.5058 2.50649C64.1134 2.50749 64.7209 2.50766 65.3285 2.50549C65.9002 2.50359 66.4718 2.50496 67.0434 2.50866C67.3486 2.50991 67.6539 2.50802 67.9591 2.50599C69.8781 2.52465 71.7409 2.95293 73.4436 3.86035C73.5514 3.916 73.6592 3.97165 73.7703 4.02899C74.6364 4.4885 75.3997 5.02916 76.1387 5.67395C76.2956 5.79912 76.4525 5.92429 76.6142 6.05326C78.8152 7.89047 80.2252 10.9668 80.5537 13.7819C80.6107 14.5722 80.6067 15.3627 80.6017 16.1547C80.6022 16.4067 80.6028 16.6587 80.6036 16.9107C80.6046 17.4348 80.6032 17.9588 80.6002 18.4829C80.5965 19.1469 80.5986 19.8106 80.6025 20.4746C80.6048 20.9938 80.6041 21.513 80.6024 22.0322C80.602 22.2767 80.6025 22.5211 80.604 22.7656C80.6147 24.9531 80.3161 27.1158 79.2593 29.0684C79.2037 29.1748 79.1481 29.2813 79.0908 29.391C77.426 32.4989 74.7519 34.8967 71.3539 35.9531C71.2097 35.9958 71.0656 36.0385 70.9171 36.0825C70.7716 36.1258 70.626 36.169 70.4761 36.2136C70.3654 36.2463 70.2547 36.2789 70.1406 36.3126C70.1275 36.41 70.1143 36.5073 70.1008 36.6076C69.9635 37.623 69.8237 38.6381 69.6825 39.653C69.6302 40.0315 69.5785 40.4101 69.5274 40.7888C69.4537 41.3339 69.3779 41.8787 69.3016 42.4234C69.2681 42.6765 69.2681 42.6765 69.234 42.9347C68.9711 44.7771 68.9711 44.7771 68.3574 45.3907C68.0509 45.4408 68.0509 45.4408 67.6685 45.4617C67.5439 45.4715 67.4194 45.4813 67.291 45.4914C66.5273 45.2956 66.2012 44.6034 65.8122 43.9674C65.4894 43.415 65.1746 42.8587 64.8619 42.3005C64.7036 42.0203 64.5452 41.7401 64.3868 41.46C64.277 41.2658 64.1675 41.0716 64.058 40.8773C63.2289 39.4057 62.3879 37.9407 61.5488 36.4747C59.9888 36.4521 58.4289 36.4349 56.8687 36.4243C56.1442 36.4193 55.4197 36.4124 54.6952 36.4014C53.9952 36.3907 53.2952 36.385 52.5951 36.3824C52.3289 36.3807 52.0627 36.3772 51.7965 36.3719C50.2597 36.3427 49.1365 36.3816 47.9316 37.4474C45.7488 38.6656 43.6582 39.0084 41.2156 38.8175C34.4369 38.0976 34.4369 38.0976 28.3633 40.4426C26.8976 41.7564 25.6654 43.3186 24.6103 44.9764C24.4258 45.2286 24.4258 45.2286 24.1016 45.3907C22.9357 45.4848 22.9357 45.4848 22.4634 45.146C22.0358 44.5841 22.0747 44.0791 22.0929 43.4024C22.0938 43.2738 22.0948 43.1451 22.0957 43.0126C22.0993 42.6029 22.1075 42.1934 22.1157 41.7838C22.119 41.5056 22.1219 41.2274 22.1246 40.9492C22.1317 40.2682 22.1429 39.5873 22.1562 38.9064C22.0626 38.8977 21.9689 38.8891 21.8724 38.8802C19.0668 38.5989 16.611 37.3933 14.5371 35.5021C14.3776 35.3595 14.3776 35.3595 14.2148 35.2139C11.9312 33.062 10.5627 29.9613 10.4225 26.8465C10.3948 25.8552 10.3932 24.8646 10.3998 23.873C10.4033 23.2533 10.3999 22.634 10.3957 22.0144C10.3926 19.4339 10.5158 17.1709 11.7509 14.8534C11.8065 14.7456 11.8622 14.6378 11.9195 14.5267C12.379 13.6606 12.9197 12.8973 13.5644 12.1583C13.7522 11.9229 13.7522 11.9229 13.9438 11.6828C15.215 10.1599 17.0593 9.08271 18.9141 8.42981C19.0644 8.37553 19.2147 8.32125 19.3696 8.26533C21.377 7.63558 23.3619 7.69899 25.4485 7.71805C25.8411 7.71926 26.2338 7.72018 26.6265 7.72083C27.6523 7.72328 28.678 7.72964 29.7038 7.73684C30.7536 7.74352 31.8034 7.74645 32.8532 7.74971C34.9074 7.75663 36.9615 7.76755 39.0156 7.78137C39.0614 7.68483 39.1071 7.58828 39.1543 7.48881C40.3202 5.25243 43.0603 3.8072 45.3708 3.07855C46.7953 2.67009 48.0838 2.50001 49.5743 2.50996ZM42.582 7.78137C42.4658 7.87938 42.3497 7.97738 42.2299 8.07836C39.9462 10.1806 39.1259 12.9971 38.9968 16.0006C38.971 16.9805 38.9694 17.9601 38.9734 18.9403C38.9751 19.4524 38.9734 19.9645 38.9713 20.4766C38.9684 24.1007 39.1765 27.2637 41.6094 30.1525C41.6936 30.2549 41.7778 30.3573 41.8646 30.4627C43.7499 32.5428 46.506 33.5948 49.2586 33.7372C50.0786 33.7624 50.8988 33.764 51.7192 33.7634C52.1819 33.7632 52.6446 33.7653 53.1074 33.768C54.4212 33.7755 55.7351 33.7795 57.049 33.7806C57.8566 33.7814 58.6641 33.7853 59.4717 33.7912C59.7784 33.7928 60.0851 33.7932 60.3918 33.7923C60.8189 33.7912 61.2459 33.794 61.673 33.7976C61.7992 33.7963 61.9254 33.795 62.0555 33.7936C62.6264 33.8024 62.9437 33.831 63.4007 34.187C63.673 34.5519 63.8976 34.9134 64.1109 35.3159C64.1922 35.4674 64.2735 35.6189 64.3572 35.775C64.4402 35.9324 64.5232 36.0897 64.6086 36.2518C65.2337 37.4269 65.8779 38.5823 66.5742 39.7169C67.0053 39.2859 66.9838 38.9979 67.0605 38.3966C67.0873 38.1965 67.114 37.9964 67.1416 37.7903C67.1683 37.5802 67.1951 37.37 67.2227 37.1536C67.2757 36.7404 67.3297 36.3273 67.3848 35.9143C67.4082 35.7305 67.4316 35.5466 67.4557 35.3572C67.5428 34.8764 67.6556 34.481 67.8711 34.0431C68.189 33.8803 68.189 33.8803 68.5803 33.7898C68.7256 33.7522 68.8708 33.7146 69.0204 33.6758C69.1761 33.6365 69.3318 33.5972 69.4922 33.5568C72.4734 32.6858 74.986 30.9851 76.594 28.2679C77.9253 25.6139 77.9758 22.8958 77.9641 19.9906C77.9624 19.4756 77.9641 18.9607 77.9662 18.4458C77.9692 14.6769 77.7153 11.5698 75.166 8.59192C75.0764 8.48409 74.9867 8.37626 74.8944 8.26516C73.0357 6.21741 70.3807 5.38528 67.709 5.18762C66.3118 5.12919 64.9125 5.14188 63.5144 5.14456C63.1094 5.14434 62.7043 5.14402 62.2993 5.14362C61.454 5.14314 60.6087 5.14383 59.7634 5.14535C58.6859 5.1472 57.6084 5.14613 56.5309 5.14419C55.6956 5.14301 54.8603 5.1434 54.025 5.14423C53.6279 5.14445 53.2309 5.14419 52.8338 5.14343C49.0189 5.13772 45.636 5.19538 42.582 7.78137ZM16.6445 12.9689C16.5283 13.0669 16.4122 13.1649 16.2924 13.2659C14.1521 15.2362 13.2185 17.9122 13.0781 20.7501C13.0518 21.6181 13.0415 22.4856 13.0376 23.354C13.0363 23.5179 13.0363 23.5179 13.035 23.6851C13.0157 26.8823 13.4447 29.6026 15.3477 32.2599C15.4567 32.4141 15.4567 32.4141 15.568 32.5714C17.3865 34.9034 20.2128 35.9542 23.0478 36.3126C23.3312 36.3427 23.3312 36.3427 23.6203 36.3734C24.145 36.4839 24.2737 36.5425 24.5879 36.9611C24.658 37.3585 24.658 37.3585 24.6708 37.8242C24.6795 38.0741 24.6795 38.0741 24.6883 38.3292C24.6919 38.5029 24.6956 38.6767 24.6993 38.8557C24.7049 39.0313 24.7104 39.207 24.7161 39.3879C24.7295 39.8218 24.7407 40.2556 24.75 40.6896C25.7172 39.8899 26.5953 39.0199 27.4755 38.1262C27.7497 37.8479 28.0243 37.5698 28.2993 37.2922C28.4194 37.1702 28.5395 37.0482 28.6633 36.9225C29.2257 36.3897 29.6583 36.4521 30.4182 36.4466C30.5346 36.4455 30.6509 36.4444 30.7707 36.4433C31.024 36.441 31.2774 36.4391 31.5307 36.4375C31.9338 36.4348 32.337 36.431 32.7401 36.427C33.8867 36.4155 35.0333 36.4058 36.1799 36.3974C36.8814 36.3922 37.5829 36.3855 38.2843 36.3779C38.5497 36.3754 38.8151 36.3734 39.0805 36.372C42.0339 36.4055 42.0339 36.4055 44.8516 35.6642C44.4327 35.385 44.0147 35.164 43.5649 34.9412C40.4421 33.366 38.6121 31.0628 37.2324 27.8829C37.1254 27.6689 37.0184 27.455 36.9082 27.2345C32.0401 27.2345 27.1719 27.2345 22.1562 27.2345C22.1562 26.3786 22.1562 25.5226 22.1562 24.6407C26.8639 24.6407 31.5716 24.6407 36.4219 24.6407C36.4219 22.9289 36.4219 21.217 36.4219 19.4532C30.8583 19.4532 25.2947 19.4532 19.5625 19.4532C19.5625 18.5973 19.5625 17.7414 19.5625 16.8595C25.1261 16.8595 30.6897 16.8595 36.4219 16.8595C36.4754 15.7361 36.5289 14.6127 36.584 13.4552C36.7797 12.6173 36.9731 11.8351 37.2324 11.0236C37.2876 10.8077 37.3419 10.5916 37.3945 10.3751C35.5977 10.3676 33.8008 10.3618 32.0039 10.3583C31.1693 10.3566 30.3347 10.3544 29.5001 10.3507C28.6929 10.3471 27.8856 10.3452 27.0784 10.3444C26.7723 10.3438 26.4661 10.3426 26.16 10.3408C22.6038 10.3212 19.4759 10.5713 16.6445 12.9689Z" fill="black"/>
<path d="M33.445 49.7404C37.0395 52.4898 39.3991 56.1795 40.2448 60.6403C40.5317 63.3381 40.5076 66.1399 39.6641 68.7344C39.6133 68.8917 39.6133 68.8917 39.5614 69.0521C38.7071 71.5928 37.3193 73.6505 35.4492 75.543C35.345 75.659 35.2407 75.775 35.1332 75.8944C32.7371 78.4985 28.7515 80.2443 25.2342 80.4324C19.6308 80.5066 15.3057 79.3315 11.2139 75.3708C7.88611 72.0376 6.54755 67.74 6.54239 63.1112C6.59006 58.3752 8.5636 54.368 11.9005 51.0369C17.6805 45.4836 26.9988 45.2614 33.445 49.7404ZM12.5354 54.4169C9.95529 57.683 9.09719 61.3793 9.34962 65.4922C9.74351 68.7848 11.5306 71.8148 13.8887 74.084C14.1537 74.2545 14.4227 74.4193 14.6992 74.5703C14.7446 74.4193 14.7899 74.2682 14.8366 74.1125C15.7793 71.0735 17.2769 68.3841 20.14 66.8296C21.8578 65.9767 23.7105 65.7315 25.5606 66.3028C28.5166 67.4858 30.2656 69.575 31.5231 72.4465C31.7968 73.1429 32.0206 73.8459 32.207 74.5703C34.9884 72.8249 36.5054 69.6983 37.3743 66.627C38.1415 62.9324 37.3908 59.1115 35.4397 55.9132C33.3048 52.7129 30.0325 50.3013 26.2198 49.52C20.9837 48.7937 16.0559 50.3985 12.5354 54.4169ZM19.0357 71.2876C18.1068 72.6112 17.3795 74.2636 17.1309 75.8672C17.2408 76.3782 17.2408 76.3782 17.6603 76.5612C21.4207 78.0969 25.1929 78.1422 28.9649 76.6778C29.2395 76.5234 29.5118 76.364 29.7754 76.1914C29.3617 73.456 28.1732 71.173 26.0469 69.3828C23.3127 67.6341 20.8961 69.0009 19.0357 71.2876Z" fill="black"/>
<path d="M77.5179 49.7297C81.2228 52.565 83.7233 56.4592 84.4063 61.1153C84.5553 63.6903 84.5669 66.2665 83.7578 68.7345C83.707 68.8914 83.707 68.8914 83.6552 69.0515C82.8009 71.5926 81.4133 73.6504 79.543 75.5431C79.4387 75.659 79.3344 75.775 79.227 75.8945C76.8309 78.4986 72.8453 80.2444 69.3279 80.4325C63.7246 80.5067 59.3995 79.3316 55.3076 75.3708C51.9579 72.0158 50.6416 67.7034 50.6361 63.0453C50.6533 61.4069 50.8295 59.9173 51.3359 58.3595C51.3868 58.2022 51.3868 58.2022 51.4386 58.0417C52.293 55.5011 53.6808 53.4433 55.5508 51.5509C55.6551 51.4349 55.7593 51.3189 55.8668 51.1994C61.3013 45.2934 71.2571 45.3218 77.5179 49.7297ZM56.6856 54.3067C53.9438 57.7861 52.9883 61.6523 53.489 66.0554C53.7604 67.785 54.5331 69.3338 55.3887 70.8419C55.467 70.98 55.5454 71.1182 55.6261 71.2605C56.0985 72.0204 56.6761 72.6813 57.2732 73.3445C57.349 73.4289 57.4248 73.5134 57.503 73.6004C57.8989 74.0275 58.2467 74.3563 58.793 74.5704C58.8383 74.4193 58.8837 74.2682 58.9304 74.1126C59.873 71.0736 61.3707 68.3841 64.2338 66.8297C65.9516 65.9768 67.8043 65.7316 69.6543 66.3028C72.6104 67.4859 74.3593 69.5751 75.6169 72.4465C75.8906 73.143 76.1144 73.846 76.3008 74.5704C78.9841 72.8866 80.6046 69.8014 81.468 66.8297C82.2457 63.0347 81.6052 59.0498 79.5109 55.7875C79.0723 55.1521 78.5906 54.5647 78.084 53.9825C77.9119 53.7832 77.9119 53.7832 77.7363 53.5798C75.163 50.8107 71.5166 49.5645 67.8388 49.251C63.6276 49.1048 59.4079 51.1546 56.6856 54.3067ZM63.1294 71.2877C62.2005 72.6113 61.4733 74.2637 61.2246 75.8673C61.3346 76.3783 61.3346 76.3783 61.754 76.5613C65.5145 78.097 69.2866 78.1423 73.0586 76.6778C73.3333 76.5234 73.6055 76.3641 73.8692 76.1915C73.4554 73.4561 72.267 71.1731 70.1406 69.3829C67.4065 67.6342 64.9898 69.0009 63.1294 71.2877Z" fill="black"/>
<path d="M72.4032 52.9705C73.8385 54.5458 74.1284 56.2326 74.0813 58.2853C73.9918 60.0516 73.1707 61.3692 71.9131 62.5698C70.2623 63.9607 68.5166 64.2145 66.4236 64.0694C64.6784 63.8813 63.332 62.8717 62.2277 61.561C61.0179 59.8814 60.8456 58.1028 61.0625 56.0898C61.4142 54.34 62.4875 52.9985 63.9064 51.9567C66.7185 50.2354 70.0461 50.7594 72.4032 52.9705ZM64.791 54.7929C63.8924 55.9993 63.6869 57.0238 63.8184 58.5215C64.103 59.5983 64.8649 60.3338 65.7637 60.9531C66.7362 61.4298 67.8521 61.4555 68.8944 61.1773C69.888 60.7387 70.6658 59.9142 71.1412 58.9445C71.4502 57.9708 71.448 56.8188 71.0322 55.8771C70.5345 55.0285 69.7755 54.3835 68.9147 53.9216C67.3926 53.5313 66.015 53.7398 64.791 54.7929Z" fill="black"/>
<path d="M27.5705 52.3215C28.8504 53.3739 29.7945 54.7421 29.9731 56.4252C30.0861 58.5266 29.8743 60.2532 28.4741 61.9151C27.1559 63.2959 25.7538 64.0337 23.8365 64.1096C21.8078 64.1347 20.2478 63.678 18.752 62.2501C17.324 60.7543 16.8673 59.1942 16.8925 57.1655C16.9684 55.2482 17.7061 53.8461 19.0869 52.5279C21.5478 50.4545 25.0078 50.4475 27.5705 52.3215ZM20.6973 54.793C19.8273 55.7851 19.5819 56.7206 19.6524 58.0276C19.8319 59.2557 20.4027 59.9263 21.3299 60.7189C22.3004 61.3876 23.2828 61.3935 24.4258 61.2774C25.503 60.9899 26.2372 60.2323 26.8574 59.3321C27.3341 58.3596 27.3598 57.2437 27.0816 56.2013C26.6091 55.1309 25.6575 54.2794 24.5879 53.8204C23.1226 53.5273 21.8446 53.792 20.6973 54.793Z" fill="black"/>
<path d="M44.2031 10.375C53.6184 10.375 63.0338 10.375 72.7344 10.375C72.7344 11.2309 72.7344 12.0869 72.7344 12.9688C63.3191 12.9688 53.9038 12.9688 44.2031 12.9688C44.2031 12.1128 44.2031 11.2569 44.2031 10.375Z" fill="black"/>
<path d="M46.7969 18.1562C54.5003 18.1562 62.2038 18.1562 70.1406 18.1562C70.1406 19.0122 70.1406 19.8681 70.1406 20.75C62.4372 20.75 54.7337 20.75 46.7969 20.75C46.7969 19.8941 46.7969 19.0381 46.7969 18.1562Z" fill="black"/>
<path d="M49.3906 25.9375C55.3822 25.9375 61.3737 25.9375 67.5469 25.9375C67.5469 26.7934 67.5469 27.6494 67.5469 28.5312C61.5553 28.5312 55.5638 28.5312 49.3906 28.5312C49.3906 27.6753 49.3906 26.8194 49.3906 25.9375Z" fill="black"/>
</svg>
