<svg width="79" height="79" viewBox="0 0 79 79" fill="none" xmlns="http://www.w3.org/2000/svg">
<g clip-path="url(#clip0_136_107)">
<path d="M3.54843 0.26857C3.73729 0.267689 3.73729 0.267689 3.92997 0.266791C4.35458 0.265192 4.77917 0.265803 5.20378 0.266396C5.5102 0.265709 5.81662 0.264889 6.12304 0.263947C6.96721 0.261753 7.81137 0.261503 8.65555 0.261571C9.56515 0.261317 10.4748 0.259302 11.3844 0.257529C13.2707 0.254183 15.157 0.25286 17.0433 0.252123C17.1459 0.252083 17.2484 0.252043 17.3541 0.252001C17.4568 0.251961 17.5596 0.251921 17.6654 0.25188C18.8036 0.251404 19.9418 0.250401 21.08 0.249378C24.5172 0.246346 27.9544 0.243815 31.3915 0.243379C31.5015 0.243365 31.6115 0.24335 31.7248 0.243335C32.1704 0.243277 32.6161 0.243221 33.0617 0.243165C33.3971 0.243123 33.7325 0.243081 34.068 0.243038C34.2342 0.243018 34.2342 0.243018 34.4038 0.242997C37.8864 0.242548 41.369 0.239139 44.8516 0.233545C48.7631 0.227262 52.6747 0.223605 56.5862 0.223559C57.0033 0.223544 57.4204 0.223518 57.8374 0.223484C57.9915 0.223474 57.9915 0.223474 58.1486 0.223464C59.6993 0.223302 61.25 0.221044 62.8007 0.217696C64.5644 0.213919 66.3281 0.212785 68.0918 0.215111C68.992 0.216219 69.8921 0.216074 70.7922 0.212579C71.6161 0.20941 72.4399 0.209795 73.2637 0.213022C73.562 0.213563 73.8602 0.212797 74.1584 0.210599C74.5637 0.207804 74.9686 0.209765 75.3739 0.212905C75.4898 0.210967 75.6057 0.209028 75.7251 0.207031C76.7178 0.223508 77.4454 0.622608 78.1564 1.30824C78.8303 2.07232 79.0383 2.73416 79.0401 3.7384C79.0412 3.93311 79.0423 4.12782 79.0434 4.32843C79.0431 4.54412 79.0427 4.75982 79.0423 4.97551C79.043 5.20494 79.0438 5.43437 79.0447 5.66381C79.0469 6.29447 79.0472 6.92511 79.0471 7.55578C79.0474 8.23588 79.0494 8.91598 79.0512 9.59609C79.0547 11.0833 79.0559 12.5704 79.0567 14.0576C79.0572 14.9862 79.0582 15.9148 79.0593 16.8434C79.0623 19.4144 79.0649 21.9854 79.0653 24.5565C79.0653 24.721 79.0654 24.8855 79.0654 25.055C79.0655 25.3886 79.0655 25.7222 79.0656 26.0557C79.0656 26.2213 79.0656 26.3869 79.0657 26.5575C79.0657 26.8061 79.0657 26.8061 79.0657 27.0598C79.0663 29.7463 79.0705 32.4328 79.0762 35.1193C79.0821 37.8775 79.0851 40.6357 79.0851 43.3939C79.0852 44.9425 79.0865 46.4911 79.091 48.0397C79.0948 49.3584 79.0959 50.677 79.0936 51.9956C79.0925 52.6683 79.0926 53.3409 79.0961 54.0136C79.0993 54.6298 79.0989 55.2459 79.0957 55.8621C79.0951 56.0846 79.0959 56.3072 79.0981 56.5297C79.1101 57.821 79.044 58.8243 78.2285 59.8673C77.8711 60.2 77.8711 60.2 77.5245 60.4073C77.4098 60.4789 77.295 60.5505 77.1768 60.6243C76.5236 60.9515 75.9443 60.9663 75.2178 60.9649C75.0686 60.9649 75.0686 60.9649 74.9165 60.965C74.5892 60.9648 74.262 60.9636 73.9347 60.9624C73.7073 60.9622 73.4799 60.9619 73.2524 60.9618C72.6548 60.9612 72.0572 60.9597 71.4595 60.958C70.8493 60.9564 70.2391 60.9557 69.6289 60.9549C68.4323 60.9533 67.2357 60.9506 66.0391 60.9474C65.9699 61.1633 65.9699 61.1633 65.8993 61.3835C65.6413 62.1318 65.2219 62.745 64.8047 63.4161C65.4666 64.0781 66.1286 64.74 66.8105 65.422C67.0651 65.3201 67.3197 65.2183 67.582 65.1134C67.9961 65.0616 67.9961 65.0616 68.421 65.0555C68.5608 65.0511 68.7007 65.0468 68.8447 65.0423C69.9102 65.2166 70.6663 66.1354 71.4009 66.8685C71.5045 66.9684 71.6081 67.0682 71.7149 67.1711C72.3758 67.828 72.8251 68.3609 72.8299 69.3379C72.8134 69.4491 72.7969 69.5602 72.7799 69.6748C72.7569 69.8422 72.7569 69.8422 72.7335 70.0129C72.6738 70.3595 72.6738 70.3595 72.5238 70.7205C72.478 71.1284 72.478 71.1284 72.7072 71.382C72.9893 71.6698 73.2805 71.9418 73.5803 72.211C74.6366 73.171 74.6366 73.171 74.8328 73.7185C74.8343 74.162 74.7358 74.4448 74.5254 74.8341C73.9324 75.2294 73.6869 75.2466 72.9824 75.1427C72.5184 74.8345 72.1387 74.4578 71.748 74.0626C71.643 73.9596 71.538 73.8565 71.4298 73.7504C71.1732 73.4969 70.9195 73.2411 70.668 72.9825C70.1719 73.1998 69.8468 73.4614 69.4722 73.8504C69.3302 73.9966 69.3302 73.9966 69.1853 74.1458C69.1145 74.2202 69.0437 74.2946 68.9707 74.3712C69.2175 74.9948 69.663 75.4018 70.1376 75.8563C71.1127 76.798 71.1127 76.798 71.1791 77.515C71.1309 78.0743 71.1309 78.0743 70.8994 78.4504C70.3632 78.7856 69.8857 78.8294 69.2793 78.6915C68.8291 78.3891 68.4835 78.0132 68.1221 77.6114C67.9759 77.4569 67.9759 77.4569 67.8267 77.2992C67.5878 77.0458 67.3523 76.79 67.1191 76.5314C66.9837 76.5811 66.8482 76.6308 66.7087 76.682C66.2288 76.8291 65.853 76.8906 65.3544 76.8978C65.2177 76.9022 65.0811 76.9066 64.9403 76.9111C63.8591 76.738 63.1152 75.999 62.3745 75.2488C62.2876 75.1649 62.2007 75.0811 62.1111 74.9947C61.4593 74.3421 61.0545 73.7257 60.8858 72.7993C60.887 72.707 60.8882 72.6147 60.8894 72.5196C60.8882 72.4273 60.887 72.3351 60.8858 72.24C60.9473 71.9025 60.9473 71.9025 61.4102 70.8224C60.7482 70.1604 60.0863 69.4985 59.4043 68.8165C59.102 68.9979 58.7996 69.1793 58.4882 69.3662C54.148 71.8826 48.5993 72.958 43.6847 71.6843C38.2315 70.1767 33.8004 67.0807 30.8594 62.1817C30.3965 61.3206 30.3965 61.3206 30.3965 60.9474C30.2107 60.9491 30.0249 60.9508 29.8335 60.9526C28.0831 60.9682 26.3327 60.9798 24.5822 60.9873C23.6822 60.9914 22.7823 60.9968 21.8824 61.0056C21.014 61.014 20.1457 61.0186 19.2772 61.0206C18.9458 61.022 18.6144 61.0248 18.283 61.0289C17.819 61.0345 17.3552 61.0353 16.8912 61.035C16.754 61.0377 16.6168 61.0405 16.4755 61.0434C15.7935 61.0377 15.5159 61.0137 14.9586 60.5851C14.6582 60.1759 14.6582 60.1759 14.5618 59.713C14.6942 59.0774 14.9202 58.8774 15.4297 58.4786C15.8795 58.3673 16.3162 58.372 16.7779 58.3769C16.9119 58.3753 17.046 58.3736 17.1841 58.372C17.6258 58.3675 18.0673 58.3685 18.509 58.3695C18.8158 58.3675 19.1226 58.3651 19.4293 58.3625C20.2357 58.3563 21.0421 58.3547 21.8485 58.3541C22.6718 58.3527 23.4951 58.3469 24.3183 58.3415C25.9329 58.3315 27.5475 58.3264 29.1621 58.3243C29.119 58.1556 29.076 57.987 29.0316 57.8132C28.9749 57.5892 28.9182 57.3653 28.8615 57.1413C28.8331 57.0304 28.8048 56.9196 28.7755 56.8053C28.5708 55.9938 28.4256 55.1952 28.352 54.3608C28.3401 54.246 28.3282 54.1311 28.3159 54.0127C28.2589 53.4417 28.2316 52.8802 28.2363 52.3067C28.1375 52.3075 28.0387 52.3082 27.9368 52.3089C25.5326 52.3259 23.1284 52.3387 20.7241 52.3467C19.5614 52.3507 18.3988 52.3561 17.2361 52.3649C16.2228 52.3726 15.2095 52.3776 14.1962 52.3793C13.6595 52.3803 13.123 52.3827 12.5864 52.3883C11.9875 52.3945 11.3887 52.3947 10.7898 52.3943C10.6117 52.3971 10.4335 52.3999 10.25 52.4027C9.05149 52.3949 9.05149 52.3949 8.52981 51.9451C8.29026 51.4487 8.25089 51.1543 8.33203 50.6095C8.60666 50.1256 8.72134 50.0168 9.25781 49.838C9.51819 49.8241 9.77909 49.8192 10.0398 49.8194C10.2823 49.8191 10.2823 49.8191 10.5296 49.8188C10.7068 49.8194 10.8841 49.8199 11.0667 49.8205C11.3467 49.8204 11.3467 49.8204 11.6324 49.8204C12.1443 49.8205 12.6563 49.8213 13.1682 49.8223C13.7032 49.8233 14.2382 49.8234 14.7732 49.8236C15.7863 49.8241 16.7995 49.8253 17.8126 49.8269C18.966 49.8286 20.1194 49.8295 21.2727 49.8302C23.6454 49.8318 26.018 49.8346 28.3906 49.838C28.4925 49.1761 28.5943 48.5141 28.6992 47.8321C28.4554 47.8338 28.2117 47.8356 27.9605 47.8373C25.6651 47.853 23.3697 47.8646 21.0743 47.8721C19.8941 47.8761 18.714 47.8815 17.5339 47.8903C16.5053 47.898 15.4767 47.903 14.448 47.9047C13.9033 47.9057 13.3588 47.9081 12.8141 47.9137C12.206 47.9199 11.598 47.9201 10.9899 47.9197C10.8095 47.9225 10.629 47.9253 10.4431 47.9281C9.22466 47.9203 9.22466 47.9203 8.6059 47.4698C8.33203 47.0606 8.33203 47.0606 8.2356 46.5978C8.33484 46.1214 8.45984 45.8597 8.81521 45.5256C9.48306 45.1498 10.3165 45.2564 11.0607 45.2616C11.2595 45.26 11.4583 45.2584 11.6631 45.2567C12.2069 45.2524 12.7506 45.2528 13.2945 45.254C13.8633 45.2545 14.432 45.2506 15.0008 45.2472C16.0773 45.2414 17.1538 45.2396 18.2303 45.2391C19.4561 45.2384 20.6818 45.2333 21.9076 45.2279C24.4287 45.2168 26.9497 45.2111 29.4707 45.2091C29.5408 45.044 29.611 44.8788 29.6832 44.7087C29.7783 44.4875 29.8734 44.2664 29.9686 44.0452C30.0144 43.9369 30.0603 43.8286 30.1075 43.7171C31.9919 39.3557 35.8051 35.8281 40.1172 33.9454C40.2168 33.9019 40.3164 33.8583 40.419 33.8135C42.554 32.9027 44.8901 32.3292 47.2148 32.2481C47.3652 32.242 47.5156 32.2358 47.6705 32.2295C53.1535 32.1147 58.2109 34.2129 62.1816 37.9571C62.2843 38.0498 62.3869 38.1425 62.4926 38.238C65.3469 40.9182 67.6704 45.3062 67.922 49.2491C67.8906 49.6837 67.8906 49.6837 67.5627 50.1273C67.1191 50.4552 67.1191 50.4552 66.6563 50.5516C66.0203 50.4191 65.8299 50.1877 65.4219 49.6837C65.2503 49.2215 65.1602 48.7491 65.0651 48.2661C64.0842 43.8868 61.3611 39.9441 57.5588 37.5271C53.3087 34.9996 48.559 34.2626 43.7528 35.4402C39.2963 36.6988 35.5319 39.5163 33.1738 43.5118C30.8245 47.7808 30.2672 52.6059 31.5946 57.294C32.3836 59.871 33.8849 62.1698 35.6426 64.1876C35.7241 64.2823 35.8057 64.377 35.8897 64.4745C37.9846 66.7306 40.8977 68.1491 43.8203 68.9708C43.9896 69.0201 44.1588 69.0695 44.3332 69.1203C47.1461 69.8131 50.3209 69.6867 53.0781 68.8165C53.1823 68.7843 53.2865 68.752 53.3939 68.7188C55.6797 67.9896 57.7476 66.8421 59.5586 65.2677C59.6525 65.1941 59.7464 65.1205 59.8431 65.0447C62.8903 62.6208 64.498 58.7242 65.3475 55.0466C65.5489 54.1894 65.5489 54.1894 65.8462 53.8497C66.3196 53.6393 66.6059 53.6116 67.1191 53.6954C67.5724 53.9558 67.5724 53.9558 67.8906 54.4669C67.9793 55.551 67.74 56.4884 67.4202 57.5137C67.364 57.6943 67.3078 57.875 67.2499 58.0612C67.1852 58.2678 67.1852 58.2678 67.1191 58.4786C68.3384 58.4605 69.5577 58.4412 70.7769 58.4212C71.1918 58.4144 71.6067 58.408 72.0215 58.4019C72.6175 58.393 73.2134 58.3832 73.8094 58.3731C74.0881 58.3693 74.0881 58.3693 74.3724 58.3653C74.5454 58.3623 74.7183 58.3592 74.8965 58.356C75.0486 58.3536 75.2008 58.3512 75.3575 58.3487C75.7193 58.3268 76.0304 58.2723 76.377 58.17C76.4972 57.6376 76.551 57.1454 76.5526 56.6C76.5535 56.4415 76.5543 56.283 76.5552 56.1197C76.5554 55.9467 76.5555 55.7736 76.5557 55.5953C76.5568 55.3184 76.5568 55.3184 76.558 55.0358C76.5599 54.5238 76.5612 54.0119 76.5622 53.4999C76.5634 52.9477 76.5656 52.3954 76.5676 51.8431C76.5709 50.8864 76.5737 49.9297 76.5761 48.973C76.5796 47.5898 76.584 46.2066 76.5885 44.8234C76.5959 42.5792 76.6026 40.3351 76.6088 38.0909C76.6149 35.9109 76.6213 33.7309 76.6281 31.5509C76.6285 31.4165 76.6289 31.2822 76.6294 31.1437C76.6315 30.4696 76.6336 29.7955 76.6357 29.1213C76.6533 23.5289 76.6698 17.9364 76.6855 12.3439C76.4994 12.3452 76.3133 12.3466 76.1215 12.348C74.3688 12.3605 72.616 12.3698 70.8632 12.3758C69.9621 12.3791 69.061 12.3834 68.1598 12.3904C67.2904 12.3971 66.4211 12.4008 65.5517 12.4024C65.2197 12.4036 64.8877 12.4058 64.5558 12.4091C64.0914 12.4136 63.6271 12.4142 63.1627 12.4139C63.025 12.4161 62.8873 12.4184 62.7454 12.4206C61.8184 12.4144 61.8184 12.4144 61.3247 12.0646C60.9963 11.5672 61.0184 11.2288 61.1016 10.6466C61.3247 10.3086 61.3247 10.3086 61.7188 10.0294C62.2001 9.94018 62.6745 9.95147 63.1627 9.95933C63.3088 9.95924 63.4549 9.95915 63.6054 9.95906C64.088 9.95949 64.5704 9.96429 65.053 9.96913C65.3877 9.97028 65.7224 9.97116 66.057 9.97177C66.9378 9.97413 67.8185 9.98019 68.6992 9.98702C69.5979 9.99334 70.4967 9.99615 71.3955 9.99926C73.1588 10.0059 74.9222 10.0164 76.6855 10.0294C76.6711 9.16451 76.6547 8.29969 76.6366 7.43487C76.6307 7.1408 76.6253 6.84672 76.6205 6.55264C76.6134 6.12937 76.6044 5.70618 76.5951 5.28296C76.5925 5.08643 76.5925 5.08643 76.5897 4.88593C76.5753 3.94393 76.5753 3.94393 76.2227 3.08604C75.6555 2.80203 75.1908 2.7385 74.561 2.73707C74.2927 2.73534 74.2927 2.73534 74.0189 2.73357C73.823 2.73387 73.6272 2.73417 73.4254 2.73448C73.2147 2.73371 73.004 2.7328 72.7933 2.73177C72.2145 2.72933 71.6357 2.7288 71.0569 2.72859C70.4326 2.72802 69.8084 2.72568 69.1842 2.72355C68.1027 2.72012 67.0213 2.7178 65.9398 2.71624C64.3762 2.71399 62.8126 2.71005 61.249 2.7057C58.7121 2.69868 56.1753 2.69304 53.6385 2.68824C51.1741 2.68359 48.7097 2.67829 46.2453 2.67212C46.0175 2.67155 46.0175 2.67155 45.7851 2.67097C45.0231 2.66906 44.2611 2.66714 43.4991 2.66521C37.1772 2.64923 30.8552 2.63555 24.5332 2.62315C24.5332 5.06721 24.5332 7.51128 24.5332 10.0294C25.5209 10.0254 26.5086 10.0213 27.5262 10.0172C30.7828 10.0044 34.0395 9.99582 37.2962 9.98943C39.2714 9.98545 41.2467 9.98002 43.222 9.9712C44.9432 9.96352 46.6645 9.95854 48.3858 9.95681C49.2975 9.9558 50.2092 9.95343 51.1209 9.94783C51.9786 9.94261 52.8362 9.94098 53.6938 9.94214C54.0091 9.94193 54.3243 9.94038 54.6395 9.93744C55.0691 9.93361 55.4985 9.93451 55.9281 9.93663C56.0536 9.93438 56.179 9.93213 56.3083 9.92982C56.9082 9.93782 57.1851 9.97562 57.6356 10.386C57.9436 10.952 57.877 11.269 57.707 11.881C57.5237 12.1414 57.5237 12.1414 57.2441 12.3439C56.8344 12.4013 56.8344 12.4013 56.3293 12.4008C56.0409 12.4022 56.0409 12.4022 55.7467 12.4036C55.5322 12.4023 55.3177 12.4009 55.1031 12.3995C54.8762 12.3997 54.6492 12.4001 54.4222 12.4007C53.797 12.4018 53.1717 12.3999 52.5465 12.3976C51.8728 12.3956 51.1992 12.3963 50.5255 12.3966C49.3578 12.3969 48.1901 12.3954 47.0224 12.3928C45.3342 12.389 43.6459 12.3878 41.9576 12.3872C39.2186 12.3862 36.4797 12.3831 33.7407 12.3788C31.0797 12.3745 28.4186 12.3712 25.7575 12.3693C25.5936 12.3692 25.4296 12.369 25.2607 12.3689C24.4382 12.3683 23.6157 12.3677 22.7932 12.3671C15.967 12.3623 9.14072 12.3542 2.31445 12.3439C2.33059 18.0704 2.34753 23.797 2.36554 29.5236C2.36767 30.1993 2.36979 30.8751 2.3719 31.5509C2.37253 31.7527 2.37253 31.7527 2.37318 31.9586C2.37998 34.1382 2.38625 36.3178 2.39232 38.4974C2.39856 40.7332 2.40537 42.969 2.41272 45.2048C2.41724 46.5848 2.42131 47.9649 2.4248 49.3449C2.42724 50.2907 2.43024 51.2366 2.43367 52.1824C2.43564 52.7284 2.43736 53.2744 2.43842 53.8204C2.43957 54.4121 2.4419 55.0037 2.44434 55.5953C2.44449 55.7684 2.44464 55.9414 2.44479 56.1197C2.44564 56.2782 2.44648 56.4367 2.44735 56.6C2.44776 56.7365 2.44817 56.8731 2.4486 57.0138C2.46946 57.4122 2.53532 57.7814 2.62305 58.17C3.0856 58.3038 3.4971 58.3435 3.97793 58.3438C4.12367 58.3443 4.26941 58.3449 4.41957 58.3455C4.57597 58.3457 4.73237 58.3459 4.8935 58.346C5.2255 58.3488 5.5575 58.3519 5.8895 58.3551C6.41233 58.3595 6.93505 58.3629 7.4579 58.363C7.96293 58.3635 8.46773 58.3688 8.97272 58.375C9.12881 58.3739 9.28489 58.3728 9.44571 58.3716C10.1764 58.3843 10.5325 58.3931 11.1308 58.8419C11.418 59.2501 11.418 59.2501 11.5144 59.713C11.3789 60.3636 11.1821 60.5505 10.6465 60.9474C10.062 61.0598 9.4867 61.0481 8.89317 61.039C8.6372 61.039 8.6372 61.039 8.37606 61.039C8.01538 61.0382 7.65469 61.0355 7.29403 61.031C6.7444 61.0246 6.19506 61.0247 5.6454 61.0257C5.29431 61.0241 4.94322 61.0221 4.59214 61.0197C4.4288 61.0197 4.26547 61.0196 4.09718 61.0196C2.82959 60.9995 1.69578 60.8166 0.771484 59.8673C-0.110317 58.7244 -0.109704 57.5937 -0.097966 56.1994C-0.0988559 55.9687 -0.100082 55.738 -0.101613 55.5073C-0.104824 54.876 -0.103246 54.2447 -0.100852 53.6133C-0.0991035 52.9315 -0.101802 52.2496 -0.103923 51.5677C-0.10735 50.233 -0.106613 48.8983 -0.104376 47.5636C-0.102633 46.4788 -0.102398 45.394 -0.103237 44.3092C-0.103355 44.1547 -0.103473 44.0002 -0.103595 43.8411C-0.103842 43.5273 -0.104092 43.2134 -0.104346 42.8996C-0.106545 39.958 -0.104017 37.0164 -0.0998707 34.0748C-0.0964234 31.5512 -0.097023 29.0276 -0.100579 26.504C-0.104709 23.5726 -0.106333 20.6412 -0.103964 17.7098C-0.103719 17.3972 -0.103476 17.0845 -0.103237 16.7719C-0.103118 16.6181 -0.102999 16.4643 -0.102876 16.3059C-0.10221 15.2224 -0.103334 14.1389 -0.10515 13.0554C-0.107314 11.735 -0.106727 10.4146 -0.102619 9.0942C-0.100592 8.42059 -0.0997958 7.74705 -0.102348 7.07345C-0.10465 6.45659 -0.103379 5.83984 -0.0992795 5.223C-0.098419 5.00009 -0.0988531 4.77717 -0.100727 4.55427C-0.110362 3.31241 -0.0895482 2.34117 0.771484 1.38877C1.64642 0.51654 2.32734 0.262429 3.54843 0.26857ZM2.46875 3.24034C1.91974 5.43636 2.31445 7.76579 2.31445 10.0294C8.83195 10.0294 15.3495 10.0294 22.0645 10.0294C22.0645 7.58534 22.0645 5.14127 22.0645 2.62315C19.6636 2.61618 17.2628 2.6105 14.862 2.60716C13.7473 2.60557 12.6325 2.6034 11.5178 2.59987C10.5461 2.59679 9.57441 2.5948 8.60273 2.59411C8.08828 2.59371 7.57386 2.59261 7.05942 2.59052C6.48496 2.58829 5.91054 2.58797 5.33609 2.58812C5.16573 2.58701 4.99537 2.5859 4.81984 2.58475C4.66299 2.58518 4.50613 2.5856 4.34453 2.58604C4.2087 2.58576 4.07287 2.58547 3.93292 2.58518C3.32401 2.64538 2.90196 2.80713 2.46875 3.24034ZM63.1074 65.422C62.5473 65.9821 61.9872 66.5422 61.4102 67.1192C62.0296 67.8747 62.6606 68.5056 63.416 69.1251C63.9761 68.565 64.5362 68.0049 65.1133 67.4278C64.4938 66.6724 63.8629 66.0414 63.1074 65.422ZM68.1475 67.7696C68.0601 67.8573 67.9728 67.945 67.8828 68.0354C67.7839 68.1342 67.6851 68.2331 67.5832 68.3349C67.476 68.4429 67.3688 68.5509 67.2584 68.6622C67.0943 68.8266 67.0943 68.8266 66.9269 68.9943C66.576 69.3461 66.2255 69.6985 65.8751 70.0509C65.638 70.2888 65.4008 70.5267 65.1636 70.7645C64.5807 71.3492 63.9982 71.9342 63.416 72.5196C63.5609 72.6904 63.706 72.8609 63.8512 73.0313C63.932 73.1263 64.0127 73.2213 64.096 73.3192C64.4192 73.688 64.7614 74.0297 65.1133 74.3712C65.5542 74.171 65.8709 73.9602 66.2113 73.6168C66.3456 73.4825 66.3456 73.4825 66.4826 73.3454C66.6247 73.201 66.6247 73.201 66.7696 73.0536C66.868 72.9548 66.9665 72.8559 67.0679 72.754C67.3814 72.4387 67.6939 72.1224 68.0063 71.806C68.219 71.5918 68.4318 71.3776 68.6446 71.1635C69.1656 70.6391 69.6856 70.1138 70.2051 69.588C69.9445 69.0312 69.6329 68.6705 69.1925 68.2379C69.0682 68.1146 68.9439 67.9913 68.8158 67.8642C68.4738 67.5077 68.4738 67.5077 68.1475 67.7696Z" fill="black"/>
<path d="M58.2085 41.8037C60.7802 44.2198 62.4026 47.7797 62.5216 51.3032C62.5895 55.5607 61.3694 59.2593 58.4088 62.4051C55.6324 65.1893 51.9939 66.5606 48.1021 66.7045C43.8123 66.5962 40.2136 64.872 37.2332 61.8032C34.7575 59.072 33.5254 55.3493 33.6084 51.6913C33.8543 47.657 35.4631 44.1417 38.4109 41.3812C44.2798 36.2469 52.4659 36.8786 58.2085 41.8037ZM39.1914 44.129C38.5807 44.8659 38.0558 45.6128 37.6315 46.4708C37.5767 46.5814 37.5218 46.692 37.4653 46.806C37.4239 46.89 37.3825 46.974 37.3398 47.0606C37.439 47.0615 37.5381 47.0624 37.6403 47.0634C38.6715 47.0732 39.7027 47.0862 40.7339 47.1011C41.1189 47.1062 41.5038 47.1106 41.8887 47.1141C42.4418 47.1192 42.9948 47.1273 43.5479 47.136C43.7202 47.1369 43.8925 47.1379 44.0701 47.1389C44.2306 47.142 44.3912 47.1451 44.5567 47.1482C44.6979 47.1499 44.839 47.1516 44.9845 47.1534C45.4399 47.2274 45.6539 47.3544 45.9805 47.6778C46.0576 48.2082 46.0576 48.2082 45.9805 48.7579C45.6589 49.1793 45.4748 49.3535 44.9493 49.4552C44.7129 49.4572 44.7129 49.4572 44.4717 49.4593C44.203 49.4639 44.203 49.4639 43.9289 49.4685C43.6401 49.4688 43.6401 49.4688 43.3454 49.4691C43.1476 49.4716 42.9498 49.4742 42.7461 49.4768C42.2215 49.4836 41.697 49.4867 41.1724 49.489C40.6366 49.492 40.1009 49.4985 39.5651 49.5047C38.5148 49.5163 37.4644 49.524 36.4141 49.5294C36.2199 50.5696 36.0647 51.556 36.1055 52.6153C36.2262 52.6162 36.347 52.6171 36.4714 52.6181C37.6089 52.627 38.7463 52.6381 39.8838 52.6517C40.4685 52.6586 41.0533 52.6646 41.6381 52.6688C42.2024 52.6728 42.7666 52.679 43.3309 52.6868C43.5462 52.6894 43.7616 52.6911 43.977 52.6921C44.2784 52.6936 44.5799 52.6982 44.8813 52.7029C45.053 52.7046 45.2246 52.7063 45.4015 52.7081C45.8262 52.7696 45.8262 52.7696 46.1131 52.9715C46.4097 53.4113 46.3439 53.801 46.2891 54.3126C46.0065 54.7162 45.8401 54.7708 45.3633 54.9298C45.077 54.9477 44.7902 54.957 44.5034 54.9614C44.2393 54.9661 44.2393 54.9661 43.9699 54.9708C43.7799 54.9733 43.5899 54.9759 43.3942 54.9786C43.1996 54.9818 43.0051 54.985 42.8046 54.9883C42.2879 54.9967 41.7712 55.0044 41.2545 55.0119C40.727 55.0196 40.1996 55.0282 39.6721 55.0367C38.6375 55.0533 37.6029 55.069 36.5684 55.0841C36.6145 55.3041 36.6615 55.524 36.7087 55.7438C36.7348 55.8662 36.7608 55.9887 36.7877 56.1149C37.1695 57.6453 38.1482 59.0254 39.1914 60.1759C39.2994 60.2964 39.4074 60.4169 39.5187 60.5411C40.3439 61.4148 41.2348 62.0521 42.2773 62.6446C42.4629 62.7517 42.4629 62.7517 42.6522 62.861C44.0938 63.6385 45.7305 64.1149 47.3691 64.1876C47.4815 64.1955 47.5939 64.2035 47.7097 64.2117C50.9044 64.3388 53.9608 63.0018 56.325 60.9196C58.5208 58.8878 59.8937 55.9387 60.0528 52.9528C60.121 49.3325 58.9663 46.2235 56.4727 43.5986C53.9678 41.249 50.8289 40.1878 47.4342 40.2384C44.3111 40.3472 41.3196 41.8863 39.1914 44.129Z" fill="black"/>
<path d="M30.9052 16.5875C31.1844 16.5873 31.1844 16.5873 31.4693 16.5872C31.7593 16.5918 31.7593 16.5918 32.0552 16.5965C32.2461 16.5954 32.4371 16.5943 32.6338 16.5932C34.1616 16.6037 35.584 16.7937 36.7227 17.8984C37.6571 19.1136 37.7846 20.2386 37.6484 21.7558C37.4928 22.252 37.2915 22.6949 37.0312 23.1445C37.1331 23.1445 37.2349 23.1445 37.3398 23.1445C37.5616 23.4157 37.5616 23.4157 37.8027 23.7809C37.9221 23.9582 37.9221 23.9582 38.0438 24.139C38.7422 25.3802 38.8007 26.8696 38.4573 28.2399C38.0282 29.3649 37.4671 30.0943 36.4141 30.705C35.6509 31.0182 34.9821 31.0631 34.1707 31.0654C34.0468 31.0665 33.9228 31.0675 33.7951 31.0686C33.5345 31.0701 33.2739 31.0708 33.0132 31.0708C32.6146 31.0715 32.2163 31.0771 31.8177 31.0829C31.5638 31.0838 31.3098 31.0844 31.0559 31.0847C30.9371 31.087 30.8183 31.0892 30.6959 31.0915C30.1968 31.0872 29.856 31.0665 29.4396 30.7793C29.0539 30.2472 29.0745 29.7652 29.0798 29.1322C29.0785 29.0052 29.0771 28.8782 29.0758 28.7473C29.0723 28.3278 29.0733 27.9084 29.0747 27.4889C29.0739 27.1972 29.0729 26.9055 29.0718 26.6138C29.0702 26.0027 29.0709 25.3915 29.0732 24.7803C29.0758 23.9968 29.0722 23.2135 29.0668 22.4299C29.0634 21.8277 29.0636 21.2254 29.0649 20.6231C29.065 20.3343 29.0639 20.0454 29.0617 19.7565C29.059 19.3527 29.0612 18.9492 29.0647 18.5454C29.0629 18.426 29.0611 18.3065 29.0593 18.1834C29.0697 17.5915 29.1112 17.3349 29.5251 16.8984C30.0205 16.6141 30.3359 16.5865 30.9052 16.5875ZM31.6309 19.1328C31.6309 20.1511 31.6309 21.1695 31.6309 22.2187C32.0223 22.2282 32.4137 22.2378 32.817 22.2476C32.9998 22.2539 32.9998 22.2539 33.1863 22.2604C33.8859 22.2686 34.3214 22.1934 34.8711 21.7558C35.2588 21.1743 35.2615 20.9023 35.1797 20.2128C34.869 19.6764 34.5447 19.3326 33.9453 19.1328C33.548 19.1219 33.1562 19.1183 32.7592 19.1231C32.3868 19.1263 32.0145 19.1295 31.6309 19.1328ZM31.6309 24.6874C31.6309 25.9604 31.6309 27.2333 31.6309 28.5449C32.4424 28.5687 32.4424 28.5687 33.2703 28.5931C33.4391 28.6001 33.6078 28.6071 33.7817 28.6144C34.7564 28.6309 34.7564 28.6309 35.5883 28.1754C36.1594 27.5427 36.1488 27.1314 36.1392 26.3039C36.0828 25.6648 35.8324 25.3217 35.3673 24.9018C34.9508 24.6407 34.7108 24.6337 34.2226 24.6422C34.0863 24.6434 33.95 24.6446 33.8095 24.6457C33.5521 24.6521 33.5521 24.6521 33.2896 24.6585C32.7422 24.6681 32.1948 24.6776 31.6309 24.6874Z" fill="black"/>
<path d="M25.4301 17.5996C26.28 18.3168 26.9289 19.2695 27.1562 20.3673C27.1721 20.6001 27.1806 20.8335 27.1836 21.0668C27.1865 21.2732 27.1865 21.2732 27.1896 21.4837C27.1907 21.6314 27.1918 21.7792 27.193 21.9313C27.1943 22.0847 27.1955 22.2381 27.1968 22.3961C27.1989 22.7207 27.2006 23.0454 27.2018 23.37C27.2036 23.7006 27.2067 24.0311 27.2113 24.3616C27.2179 24.8406 27.2204 25.3194 27.2219 25.7984C27.2246 25.9446 27.2273 26.0907 27.2301 26.2413C27.2255 27.678 26.74 28.7614 25.7676 29.8113C24.6207 30.8394 23.4692 31.0727 21.9698 31.0559C20.64 30.9486 19.5319 30.3298 18.6699 29.3165C18.1164 28.4229 17.7292 27.5582 17.7193 26.4993C17.7178 26.371 17.7163 26.2426 17.7148 26.1105C17.7141 25.9729 17.7135 25.8353 17.7128 25.6935C17.7119 25.5504 17.711 25.4073 17.7101 25.2599C17.7087 24.9571 17.7077 24.6542 17.7071 24.3514C17.7056 23.8915 17.7008 23.4318 17.6959 22.9719C17.6949 22.6769 17.6941 22.3819 17.6935 22.0868C17.6916 21.9508 17.6897 21.8148 17.6877 21.6746C17.6933 20.1175 18.1291 19.0621 19.2033 17.9353C20.9751 16.3758 23.4951 16.2161 25.4301 17.5996ZM20.3672 20.5216C20.1718 21.1078 20.1818 21.6631 20.1761 22.2743C20.1749 22.4012 20.1736 22.5281 20.1723 22.6589C20.1702 22.9276 20.1686 23.1964 20.1673 23.4651C20.1647 23.8739 20.1579 24.2825 20.1511 24.6912C20.1495 24.9528 20.1482 25.2144 20.1472 25.4759C20.1445 25.5972 20.1418 25.7184 20.139 25.8433C20.1424 26.7118 20.3392 27.2093 20.8301 27.9278C21.3157 28.3794 21.8076 28.5324 22.4598 28.6125C23.2567 28.5111 23.7333 28.2846 24.2728 27.6867C24.7397 27.0123 24.7173 26.4598 24.7243 25.6598C24.7255 25.5258 24.7268 25.3918 24.728 25.2537C24.7302 24.9696 24.7318 24.6854 24.733 24.4012C24.7357 23.9687 24.7425 23.5364 24.7493 23.1039C24.7508 22.8276 24.7522 22.5512 24.7532 22.2749C24.7559 22.1464 24.7586 22.018 24.7614 21.8856C24.7581 20.9958 24.5804 20.4831 24.0703 19.7501C23.5838 19.3642 23.0406 19.167 22.4309 19.0654C21.4455 19.2469 20.9337 19.7446 20.3672 20.5216Z" fill="black"/>
<path d="M45.6615 26.2088C45.771 26.2084 45.8805 26.2079 45.9933 26.2074C46.3611 26.2061 46.7288 26.2059 47.0966 26.2056C47.36 26.2049 47.6233 26.2041 47.8866 26.2033C48.6026 26.2013 49.3186 26.2003 50.0346 26.1996C50.4818 26.1991 50.929 26.1985 51.3762 26.1978C52.7748 26.1957 54.1735 26.1942 55.5721 26.1936C57.1875 26.1929 58.8029 26.1902 60.4184 26.1858C61.6665 26.1824 62.9146 26.1809 64.1628 26.1807C64.9085 26.1805 65.6542 26.1796 66.4 26.1768C67.1013 26.1743 67.8027 26.174 68.504 26.1753C68.7615 26.1754 69.0189 26.1748 69.2764 26.1732C69.6278 26.1713 69.9791 26.1722 70.3306 26.1738C70.5272 26.1736 70.7239 26.1733 70.9265 26.1731C71.4838 26.2354 71.7685 26.3549 72.2109 26.6934C72.5195 27.1563 72.5195 27.1563 72.4906 27.6963C72.3253 28.4084 72.3253 28.4084 71.9023 28.6992C71.5205 28.7447 71.1773 28.7617 70.7954 28.758C70.6819 28.7587 70.5684 28.7595 70.4515 28.7602C70.0702 28.7621 69.689 28.7606 69.3076 28.7591C69.0347 28.7598 68.7617 28.7606 68.4888 28.7616C67.7466 28.7637 67.0045 28.7629 66.2624 28.7614C65.4867 28.7602 64.7109 28.7613 63.9352 28.7621C62.6324 28.7629 61.3296 28.7618 60.0268 28.7596C58.5193 28.7571 57.0119 28.7579 55.5045 28.7604C54.2115 28.7625 52.9186 28.7628 51.6256 28.7616C50.8528 28.7609 50.08 28.7608 49.3072 28.7623C48.5808 28.7637 47.8544 28.7627 47.1279 28.7601C46.8609 28.7595 46.5939 28.7596 46.3268 28.7606C45.9631 28.7619 45.5995 28.7603 45.2358 28.758C45.1294 28.7591 45.023 28.7601 44.9134 28.7611C44.4838 28.7558 44.1956 28.7456 43.8373 28.4967C43.546 28.054 43.5207 27.6794 43.5117 27.1563C44.0798 26.223 44.6284 26.2112 45.6615 26.2088Z" fill="black"/>
<path d="M10.5585 16.6122C10.6861 16.6112 10.8138 16.6101 10.9453 16.6091C11.2154 16.6075 11.4854 16.6068 11.7554 16.6068C12.1676 16.6062 12.5795 16.6006 12.9917 16.5947C13.2543 16.5938 13.5168 16.5932 13.7794 16.5929C13.9023 16.5907 14.0251 16.5885 14.1516 16.5862C14.7554 16.5911 15.055 16.6232 15.581 16.9481C16.0657 17.4663 16.0666 17.8988 16.0693 18.5795C16.0703 18.7506 16.0713 18.9216 16.0723 19.0979C16.0724 19.283 16.0726 19.4682 16.0728 19.6589C16.0736 19.9453 16.0736 19.9453 16.0743 20.2374C16.0751 20.6422 16.0755 21.047 16.0755 21.4519C16.0754 22.0678 16.0786 22.6837 16.0815 23.2997C16.082 23.6934 16.0823 24.087 16.0824 24.4807C16.0835 24.6637 16.0847 24.8467 16.0858 25.0352C16.0809 26.8425 15.9179 28.2914 14.6564 29.6509C13.5856 30.6768 12.6679 31.0242 11.1962 31.0811C9.89397 31.0462 8.77108 30.6597 7.80766 29.7648C6.85308 28.6286 6.46238 27.4604 6.44189 25.999C6.43792 25.8287 6.43394 25.6585 6.42984 25.4831C6.48614 24.9415 6.61992 24.6579 6.94336 24.2246C7.38361 24.0044 7.68931 24.0224 8.17773 24.0703C8.58819 24.3204 8.58819 24.3204 8.94922 24.6875C9.04204 25.154 9.04204 25.154 9.04565 25.6711C9.07512 26.4667 9.1498 26.9489 9.56641 27.6191C9.56641 27.7209 9.56641 27.8228 9.56641 27.9277C9.7478 27.9993 9.7478 27.9993 9.93286 28.0723C10.3379 28.2363 10.3379 28.2363 10.6465 28.3906C11.5888 28.4691 12.0552 28.4025 12.8066 27.7734C13.3618 27.1608 13.4406 26.5967 13.4555 25.7891C13.4586 25.6409 13.4617 25.4926 13.4648 25.3399C13.4687 25.1017 13.4687 25.1017 13.4726 24.8586C13.4759 24.6951 13.4791 24.5316 13.4824 24.3631C13.4924 23.8412 13.5015 23.3193 13.5106 22.7973C13.5173 22.4433 13.524 22.0893 13.5308 21.7353C13.5473 20.8678 13.563 20.0003 13.5781 19.1328C13.4458 19.1352 13.3135 19.1376 13.1772 19.1401C12.6849 19.148 12.1926 19.1538 11.7003 19.1582C11.4874 19.1605 11.2746 19.1637 11.0618 19.1677C10.7555 19.1733 10.449 19.1757 10.1426 19.178C9.95838 19.1804 9.77415 19.1828 9.58434 19.1853C9.06078 19.1281 8.85266 19.0415 8.48633 18.6699C8.30517 18.1143 8.28148 17.8553 8.5249 17.3198C9.1027 16.5769 9.688 16.6146 10.5585 16.6122Z" fill="black"/>
<path d="M69.125 17.2811C69.7256 17.8016 70.1293 18.3685 70.3594 19.1327C70.3539 19.5123 70.3369 19.8919 70.3112 20.2706C70.2808 21.0734 70.2808 21.0734 70.5824 21.8058C70.8579 22.0623 71.1448 22.2932 71.4395 22.5272C71.8455 23.1178 71.9247 23.319 71.8059 24.0316C71.5937 24.5331 71.5937 24.5331 71.1309 24.8417C70.6583 24.9478 70.6583 24.9478 70.0508 24.8417C69.6147 24.5113 69.2284 24.1544 68.8375 23.7719C68.5348 23.4472 68.5348 23.4472 68.1992 23.2987C67.9701 23.3751 67.9701 23.3751 67.7363 23.453C66.7005 23.5799 65.8394 23.4018 64.959 22.8358C64.2484 22.1951 63.7874 21.5136 63.6728 20.5473C63.6594 19.5253 63.7168 18.7329 64.3418 17.8983C65.7237 16.485 67.418 16.3194 69.125 17.2811ZM66.473 19.3931C66.1664 19.7286 66.1664 19.7286 66.1162 20.1453C66.1636 20.5374 66.1636 20.5374 66.4537 20.8107C66.9061 21.0307 67.1119 20.9908 67.582 20.83C67.9353 20.5397 67.9353 20.5397 67.9485 20.0681C67.9376 19.5861 67.9376 19.5861 67.611 19.3063C67.1208 19.0542 66.9119 19.0545 66.473 19.3931Z" fill="black"/>
<path d="M10.312 40.7889C10.4909 40.7869 10.4909 40.7869 10.6734 40.7848C11.0663 40.7814 11.459 40.7837 11.8519 40.7863C12.1257 40.7857 12.3995 40.785 12.6733 40.784C13.2466 40.7829 13.8199 40.7845 14.3932 40.7881C15.1274 40.7925 15.8614 40.79 16.5956 40.7854C17.1608 40.7826 17.726 40.7835 18.2912 40.7855C18.5619 40.786 18.8326 40.7854 19.1033 40.7836C19.4819 40.7816 19.8602 40.7846 20.2388 40.7889C20.3502 40.7873 20.4617 40.7858 20.5765 40.7842C21.1737 40.7967 21.4302 40.8751 21.9037 41.2512C22.2188 41.6602 22.2188 41.6602 22.2959 42.1327C22.2114 42.629 22.1096 42.8495 21.7559 43.2032C21.2102 43.3851 20.7157 43.3814 20.1479 43.3823C19.9736 43.3835 19.9736 43.3835 19.7957 43.3847C19.4112 43.3869 19.0267 43.388 18.6422 43.3888C18.3749 43.3897 18.1076 43.3906 17.8402 43.3915C17.2796 43.3931 16.719 43.394 16.1585 43.3945C15.4405 43.3954 14.7227 43.3991 14.0048 43.4035C13.4525 43.4064 12.9003 43.4072 12.348 43.4074C12.0834 43.4079 11.8187 43.4091 11.5541 43.4111C11.1836 43.4138 10.8133 43.4135 10.4428 43.4125C10.3338 43.4139 10.2248 43.4153 10.1124 43.4168C9.44222 43.4111 9.01975 43.3051 8.48633 42.8946C8.26348 42.4489 8.27388 42.1545 8.33203 41.6602C8.91177 40.9024 9.3977 40.7761 10.312 40.7889Z" fill="black"/>
<path d="M12.1895 5.00488C12.7823 5.11605 13.0316 5.24736 13.4238 5.70886C13.5345 6.14444 13.5345 6.50766 13.4238 6.94324C13.0316 7.40474 12.7823 7.53605 12.1895 7.64722C11.5562 7.52849 11.3347 7.30256 10.9551 6.78894C10.8586 6.32605 10.8586 6.32605 10.9551 5.86316C11.3347 5.34954 11.5562 5.12361 12.1895 5.00488Z" fill="black"/>
<path d="M16.6641 5.09185C17.1077 5.32329 17.1077 5.32329 17.4355 5.70903C17.5462 6.14461 17.5462 6.50783 17.4355 6.94341C17.0372 7.41205 16.7991 7.54131 16.1915 7.6281C15.6736 7.55096 15.4655 7.49316 15.1211 7.0977C14.9508 6.48461 14.9027 6.15804 15.1693 5.57402C15.6084 5.02108 15.9796 5.02474 16.6641 5.09185Z" fill="black"/>
<path d="M8.17773 4.99536C8.80639 5.12633 9.03317 5.35059 9.41211 5.86328C9.50854 6.32617 9.50854 6.32617 9.41211 6.78906C9.03317 7.30175 8.80639 7.52601 8.17773 7.65698C7.54908 7.52601 7.3223 7.30175 6.94336 6.78906C6.84692 6.32617 6.84692 6.32617 6.94336 5.86328C7.3223 5.35059 7.54908 5.12633 8.17773 4.99536Z" fill="black"/>
<path d="M72.3556 31.8912C72.5979 32.4185 72.506 32.7752 72.3652 33.3281C72.2013 33.6271 72.2013 33.6271 71.9023 33.791C70.8543 33.9075 70.8543 33.9075 70.2822 33.5499C69.9631 33.0313 69.9759 32.6925 70.0508 32.0937C70.2568 31.7023 70.3966 31.5331 70.7933 31.3416C71.4143 31.3061 71.8893 31.4851 72.3556 31.8912Z" fill="black"/>
</g>
<defs>
<clipPath id="clip0_136_107">
<rect width="79" height="79" fill="white"/>
</clipPath>
</defs>
</svg>
