<svg width="83" height="83" viewBox="0 0 83 83" fill="none" xmlns="http://www.w3.org/2000/svg">
<g clip-path="url(#clip0_141_2)">
<path d="M53.1023 0.204112C53.3685 0.298584 53.6337 0.395547 53.8982 0.494571C54.0449 0.547319 54.1916 0.600066 54.3428 0.654412C54.828 0.829339 55.312 1.00742 55.796 1.18544C56.1414 1.31045 56.4868 1.43519 56.8323 1.55968C57.5625 1.82287 58.2923 2.087 59.022 2.35163C60.6677 2.94696 62.3195 3.52486 63.9711 4.10363C64.8876 4.42497 65.8038 4.74734 66.72 5.06973C66.9908 5.16497 66.9908 5.16497 67.2669 5.26214C69.991 6.22077 72.7134 7.18394 75.4343 8.15115C76.196 8.42167 76.9582 8.69048 77.7217 8.95604C78.0198 9.05985 78.3177 9.16439 78.6156 9.26898C78.9482 9.38577 79.2813 9.50142 79.6149 9.61552C81.0442 10.1208 81.0442 10.1208 81.541 10.6992C81.8537 11.9196 81.4955 12.8206 81.0712 13.9769C81.0029 14.1697 80.9346 14.3625 80.8643 14.5612C80.679 15.0844 80.4904 15.6063 80.3012 16.1281C80.1025 16.6777 79.9071 17.2285 79.7113 17.7792C79.3933 18.673 79.0736 19.5662 78.7525 20.4589C78.3539 21.5675 77.9592 22.6774 77.5668 23.7883C77.5108 23.9469 77.4548 24.1054 77.3971 24.2688C77.2864 24.5822 77.1757 24.8956 77.065 25.209C76.8436 25.8354 76.6214 26.4616 76.3991 27.0877C75.596 29.3506 74.7991 31.6156 74.0029 33.8809C72.9779 36.7969 71.9491 39.7116 70.916 42.6248C69.9957 45.2205 69.0803 47.8179 68.167 50.416C66.9064 54.0014 65.6423 57.5855 64.3697 61.1666C64.0284 62.1281 63.6898 63.0906 63.3531 64.0538C63.1305 64.6899 62.9068 65.3255 62.6828 65.961C62.5778 66.2597 62.4734 66.5587 62.3697 66.8578C62.2272 67.2683 62.0827 67.6782 61.9378 68.0879C61.8762 68.2679 61.8762 68.2679 61.8133 68.4515C61.5374 69.2232 61.2316 69.9731 60.4668 70.3555C59.4238 70.4537 58.5994 70.1489 57.6274 69.7925C57.4636 69.7341 57.2997 69.6756 57.131 69.6153C56.6077 69.428 56.0854 69.2383 55.563 69.0485C55.2194 68.9251 54.8758 68.802 54.5321 68.679C52.5073 67.9526 50.4888 67.2095 48.4707 66.4649C48.4723 66.7103 48.4723 66.7103 48.474 66.9608C48.4839 68.5063 48.4911 70.0517 48.4959 71.5972C48.4984 72.3917 48.5019 73.1862 48.5074 73.9806C48.5127 74.7479 48.5156 75.5152 48.5168 76.2825C48.5177 76.5747 48.5195 76.8668 48.5221 77.1589C48.5257 77.5694 48.5261 77.9798 48.5259 78.3903C48.5285 78.5698 48.5285 78.5698 48.5312 78.7529C48.5246 79.87 48.2253 80.8842 47.4778 81.7437C47.3518 81.8954 47.3518 81.8954 47.2232 82.0502C46.1413 82.923 45.023 83.0952 43.669 83.0834C43.5015 83.0846 43.3339 83.0857 43.1612 83.0869C42.6027 83.0898 42.0443 83.0882 41.4858 83.0865C41.0841 83.0876 40.6825 83.0891 40.2808 83.0907C39.3049 83.094 38.329 83.0942 37.3531 83.0929C36.5596 83.0919 35.766 83.092 34.9724 83.0931C34.8027 83.0933 34.8027 83.0933 34.6295 83.0935C34.3996 83.0938 34.1697 83.0941 33.9397 83.0944C31.7861 83.0971 29.6324 83.0957 27.4788 83.093C25.5108 83.0906 23.5428 83.093 21.5747 83.0976C19.5512 83.1024 17.5277 83.1042 15.5042 83.1026C15.2751 83.1025 15.046 83.1023 14.8169 83.1022C14.6478 83.102 14.6478 83.102 14.4753 83.1019C13.6833 83.1016 12.8913 83.1032 12.0993 83.1055C11.032 83.1087 9.96482 83.1075 8.89754 83.1036C8.50637 83.1027 8.11518 83.1033 7.72401 83.1054C7.18896 83.1079 6.65416 83.1055 6.11912 83.1018C5.88833 83.1047 5.88833 83.1047 5.65287 83.1077C4.3772 83.09 3.31323 82.695 2.36072 81.8311C2.27713 81.7153 2.19355 81.5995 2.10743 81.4802C2.02049 81.3653 1.93356 81.2504 1.844 81.132C1.38359 80.3027 1.25637 79.4695 1.25517 78.5317C1.25413 78.3233 1.25308 78.1149 1.252 77.9001C1.25248 77.6708 1.25299 77.4415 1.25353 77.2122C1.25292 76.9671 1.25217 76.722 1.2513 76.4768C1.24932 75.8045 1.24936 75.1321 1.24974 74.4598C1.24981 73.7342 1.24802 73.0086 1.24648 72.2831C1.24379 70.8623 1.2429 69.4415 1.24272 68.0206C1.24256 66.8661 1.24189 65.7116 1.24087 64.5571C1.23801 61.2847 1.23652 58.0122 1.23676 54.7397C1.23677 54.5633 1.23679 54.387 1.2368 54.2053C1.23681 54.0287 1.23683 53.8521 1.23684 53.6701C1.23697 50.8058 1.23387 47.9415 1.2293 45.0771C1.22465 42.1368 1.2224 39.1964 1.22268 36.2561C1.22279 34.605 1.2219 32.9539 1.21841 31.3027C1.21546 29.8976 1.21475 28.4925 1.21695 27.0873C1.21801 26.3702 1.21802 25.653 1.21522 24.9359C1.21268 24.2797 1.21312 23.6236 1.21596 22.9675C1.21646 22.7298 1.21586 22.4921 1.21406 22.2544C1.21178 21.9319 1.21387 21.6094 1.21618 21.2869C1.21611 21.1075 1.21604 20.9282 1.21597 20.7435C1.31625 20.1488 1.52706 19.8802 1.94532 19.4531C2.3809 19.2557 2.3809 19.2557 2.8818 19.1202C3.06966 19.068 3.25752 19.0157 3.45107 18.9619C3.7489 18.8841 3.7489 18.8841 4.05274 18.8047C4.24677 18.7518 4.4408 18.6989 4.64071 18.6445C5.28515 18.4704 5.93079 18.3015 6.57683 18.1335C6.82427 18.0687 7.0717 18.004 7.31912 17.9392C7.85013 17.8002 8.38121 17.6614 8.91234 17.5229C10.205 17.1858 11.4972 16.8472 12.7895 16.5089C13.2474 16.389 13.7053 16.2692 14.1632 16.1494C17.7685 15.2058 21.3717 14.2544 24.975 13.3031C25.6024 13.1375 26.2299 12.9718 26.8574 12.8062C27.0077 12.7665 27.1581 12.7268 27.313 12.6859C28.0374 12.4946 28.762 12.3035 29.4866 12.1127C29.6219 12.077 29.7573 12.0414 29.8968 12.0047C30.16 11.9353 30.4232 11.866 30.6864 11.7967C31.4508 11.5953 32.2148 11.3922 32.9784 11.188C33.2387 11.1189 33.2387 11.1189 33.5042 11.0483C33.806 10.9682 34.1075 10.8874 34.4089 10.8058C35.9927 10.3869 37.4248 10.1919 38.9366 10.9627C40.2013 12.0305 40.8104 12.9414 41.0137 14.5899C41.0261 14.9694 41.0312 15.3493 41.0295 15.7291C41.029 15.9375 41.0285 16.1459 41.0279 16.3607C41.0266 16.5776 41.0252 16.7945 41.0238 17.0114C41.023 17.2327 41.0223 17.454 41.0216 17.6753C41.0197 18.2139 41.0168 18.7525 41.0137 19.291C42.2976 19.2108 42.2976 19.2108 43.6074 19.1289C43.6863 18.9045 43.7652 18.6801 43.8464 18.4488C45.2386 14.4878 46.6314 10.527 48.0307 6.56857C48.1473 6.23884 48.2637 5.90908 48.38 5.57929C48.6879 4.70636 48.9976 3.83411 49.311 2.96313C49.3962 2.72538 49.4807 2.48739 49.5643 2.24909C49.6694 1.94979 49.7773 1.65147 49.8854 1.35324C49.9419 1.19465 49.9985 1.03606 50.0567 0.872655C50.6822 -0.352785 51.9508 -0.156907 53.1023 0.204112ZM52.3613 3.2422C52.3241 3.34893 52.2868 3.45567 52.2485 3.56564C51.7697 4.9372 51.2906 6.30863 50.8112 7.67994C50.7728 7.78964 50.7345 7.89934 50.6949 8.01236C49.3216 11.94 47.933 15.8619 46.5254 19.7774C46.5913 19.8523 46.6571 19.9273 46.725 20.0046C46.8119 20.1045 46.8988 20.2044 46.9883 20.3074C47.1172 20.455 47.1172 20.455 47.2487 20.6055C48.0138 21.5462 48.3233 22.4147 48.3419 23.6172C48.3451 23.8021 48.3483 23.9871 48.3517 24.1776C48.3544 24.3764 48.3571 24.5752 48.3599 24.7799C48.3633 24.9841 48.3666 25.1883 48.3701 25.3987C48.3789 25.9402 48.387 26.4817 48.3949 27.0233C48.403 27.5764 48.4121 28.1295 48.421 28.6826C48.4384 29.7669 48.4549 30.8512 48.4707 31.9356C49.3139 31.7719 50.101 31.5155 50.9125 31.2365C51.1308 31.1645 51.1308 31.1645 51.3535 31.0911C51.4941 31.0428 51.6346 30.9944 51.7794 30.9445C51.9067 30.9014 52.0339 30.8583 52.1651 30.8139C52.7787 30.5139 53.0959 30.1581 53.3769 29.5374C53.4335 29.3674 53.4902 29.1973 53.5487 29.022C53.6117 28.8361 53.6747 28.6503 53.7396 28.4588C53.803 28.2654 53.8664 28.072 53.9318 27.8727C54.0297 27.5816 54.0297 27.5816 54.1297 27.2847C54.2985 26.7822 54.4652 26.279 54.6309 25.7754C54.6844 25.6149 54.7379 25.4544 54.793 25.2891C55.1575 25.1211 55.1575 25.1211 55.6035 24.9649C55.8758 24.8364 56.147 24.7056 56.4172 24.5729C56.5697 24.5001 56.7221 24.4272 56.8792 24.3522C57.1965 24.2004 57.5127 24.0463 57.8278 23.8899C58.8036 23.4297 59.4087 23.2492 60.4668 23.5059C60.5123 23.6234 60.5579 23.741 60.6048 23.8621C60.7787 24.2864 60.9707 24.6912 61.1773 25.1004C61.2494 25.2462 61.3215 25.3921 61.3958 25.5424C61.5462 25.8458 61.6982 26.1485 61.8517 26.4504C62.3532 27.4739 62.6251 28.1772 62.2696 29.3093C62.0145 30.0297 61.7359 30.7401 61.4575 31.4518C61.3912 31.6269 61.3248 31.802 61.2565 31.9824C61.1945 32.1407 61.1325 32.2991 61.0687 32.4622C60.8954 33.1311 61.012 33.5237 61.3311 34.1268C61.4218 34.269 61.5125 34.4113 61.606 34.5578C61.707 34.7176 61.808 34.8774 61.9121 35.042C62.0203 35.2105 62.1284 35.379 62.2399 35.5526C62.3493 35.7256 62.4587 35.8986 62.5715 36.0768C62.9847 36.7298 63.4005 37.3812 63.8178 38.0316C63.9754 38.2772 64.1327 38.5231 64.2894 38.7693C64.4253 38.9826 64.5623 39.1953 64.7006 39.407C65.1541 40.1188 65.4103 40.6213 65.2383 41.4627C65.0568 42.0171 64.873 42.57 64.6816 43.1211C64.6432 43.2343 64.6048 43.3475 64.5652 43.4641C64.4447 43.8169 64.3206 44.1682 64.1953 44.5193C64.157 44.6306 64.1186 44.742 64.0791 44.8567C63.8483 45.4838 63.6564 45.8768 63.0606 46.2012C62.534 46.3236 62.2273 46.2861 61.7637 46.0036C60.8792 45.3339 60.071 44.5701 59.2548 43.8202C58.4973 43.0154 58.4973 43.0154 57.5488 42.6348C56.0607 45.5508 56.0607 45.5508 55.9778 48.6645C56.2229 49.2223 56.5262 49.718 56.8586 50.2273C57.246 50.8484 57.3008 51.2537 57.1683 51.9699C56.9621 52.7328 56.6971 53.468 56.4141 54.2053C56.2959 54.5207 56.1777 54.836 56.0595 55.1514C55.9808 55.3578 55.9808 55.3578 55.9005 55.5683C55.7955 55.8481 55.698 56.1306 55.6035 56.4141C54.8933 56.5593 54.3435 56.6651 53.6683 56.3634C52.6603 55.5542 51.7696 54.57 50.9226 53.5974C50.8325 53.4944 50.7425 53.3914 50.6497 53.2852C50.4596 53.0611 50.2792 52.8288 50.1019 52.5944C49.6563 52.2284 49.6563 52.2284 48.4707 52.5234C48.4707 56.1077 48.4707 59.6919 48.4707 63.3848C50.9826 64.2553 50.9826 64.2553 53.4946 65.1257C53.8147 65.2366 54.1348 65.3476 54.4548 65.4586C54.6253 65.5177 54.7957 65.5767 54.9713 65.6375C55.7025 65.8912 56.4332 66.1459 57.1605 66.4108C57.2669 66.4495 57.3733 66.4882 57.4829 66.5281C57.7503 66.626 58.0173 66.725 58.2843 66.8241C58.691 66.9758 58.691 66.9758 59.1699 66.9512C59.2217 66.8035 59.2217 66.8035 59.2745 66.6527C60.8324 62.2057 62.3922 57.7593 63.9675 53.3183C64.8851 50.7312 65.7977 48.1424 66.708 45.5527C67.6843 42.7755 68.663 39.9991 69.6462 37.2244C69.7026 37.0653 69.759 36.9062 69.8171 36.7423C70.2688 35.4676 70.7208 34.1929 71.1728 32.9183C71.5692 31.8005 71.9654 30.6826 72.3616 29.5647C72.4175 29.4069 72.4734 29.2492 72.531 29.0866C73.2118 27.1653 73.8905 25.2433 74.5665 23.3203C74.6345 23.1269 74.7025 22.9334 74.7726 22.7341C75.1009 21.8003 75.4289 20.8664 75.7566 19.9324C75.8779 19.5871 75.9992 19.2418 76.1205 18.8965C76.179 18.7298 76.2375 18.5631 76.2977 18.3914C76.612 17.4981 76.9308 16.6066 77.2553 15.7169C77.3569 15.4375 77.3569 15.4375 77.4607 15.1524C77.5912 14.7945 77.7224 14.4368 77.8543 14.0794C77.9126 13.9196 77.9709 13.7597 78.031 13.595C78.1087 13.3837 78.1087 13.3837 78.1881 13.1681C78.3226 12.7922 78.3226 12.7922 78.2988 12.3203C78.1511 12.2686 78.1511 12.2686 78.0004 12.2158C73.7107 10.713 69.4214 9.20948 65.1376 7.69007C62.4334 6.73115 59.7285 5.77422 57.0223 4.82079C56.6252 4.68084 56.2281 4.5408 55.8311 4.40067C55.281 4.20656 54.7308 4.01277 54.1806 3.81908C54.0147 3.76046 53.8488 3.70185 53.6778 3.64146C53.5274 3.58857 53.377 3.53569 53.2219 3.48121C53.0903 3.4348 52.9586 3.3884 52.8229 3.34059C52.5503 3.23377 52.5503 3.23377 52.3613 3.2422ZM33.0197 14.1612C32.7414 14.2356 32.4632 14.3099 32.1849 14.3841C31.4434 14.5821 30.7026 14.7822 29.9619 14.9828C29.1985 15.1891 28.4346 15.3934 27.6708 15.5977C26.4617 15.9215 25.2529 16.2462 24.0444 16.5717C22.0524 17.1079 20.0585 17.6369 18.0642 18.1643C17.2734 18.3735 16.4829 18.5834 15.6923 18.7933C15.4427 18.8596 15.193 18.9258 14.9434 18.9921C14.7732 19.0372 14.6031 19.0824 14.4277 19.1289C14.4277 19.1824 14.4277 19.2359 14.4277 19.291C22.2382 19.291 30.0486 19.291 38.0957 19.291C38.3937 15.2415 38.3937 15.2415 37.6094 13.6172C36.2781 12.9516 34.3638 13.7945 33.0197 14.1612ZM4.21485 22.209C4.20372 29.444 4.19515 36.6789 4.19001 43.9139C4.1894 44.7676 4.18877 45.6213 4.18813 46.4749C4.188 46.6449 4.18788 46.8148 4.18775 46.99C4.18563 49.7438 4.1818 52.4976 4.17733 55.2514C4.17278 58.076 4.17008 60.9005 4.16909 63.725C4.16842 65.4687 4.16631 67.2123 4.16236 68.956C4.1598 70.1508 4.15901 71.3456 4.15965 72.5404C4.15996 73.2303 4.15948 73.9202 4.15688 74.6101C4.15451 75.2414 4.15438 75.8726 4.15605 76.5039C4.15626 76.7326 4.15563 76.9613 4.15411 77.1899C4.15216 77.5003 4.1535 77.8107 4.15501 78.121C4.15482 78.2936 4.15464 78.4661 4.15445 78.6439C4.22407 79.1805 4.38265 79.4862 4.70118 79.9199C5.07029 80.1045 5.27328 80.103 5.6833 80.1043C5.82179 80.1051 5.96029 80.1059 6.10298 80.1068C6.33254 80.1069 6.33253 80.1069 6.56673 80.107C6.72862 80.1077 6.89052 80.1084 7.05731 80.1091C7.60328 80.1113 8.14924 80.1123 8.69522 80.1133C9.08524 80.1146 9.47527 80.1159 9.86529 80.1173C11.0382 80.1212 12.2112 80.1237 13.3841 80.1258C13.7153 80.1264 14.0465 80.127 14.3777 80.1277C16.4335 80.1318 18.4894 80.1353 20.5453 80.1374C21.0216 80.1378 21.4979 80.1383 21.9742 80.1388C22.1517 80.139 22.1517 80.139 22.3329 80.1392C24.2512 80.1412 26.1695 80.1466 28.0879 80.1534C30.0566 80.1602 32.0253 80.164 33.994 80.1649C35.0997 80.1655 36.2053 80.1674 37.311 80.1727C38.3509 80.1777 39.3907 80.1786 40.4305 80.1767C40.8126 80.1767 41.1947 80.178 41.5768 80.1808C42.0977 80.1845 42.6183 80.1832 43.1391 80.1806C43.291 80.1829 43.443 80.1851 43.5996 80.1874C44.2569 80.1794 44.6575 80.1282 45.2413 79.8099C45.7475 78.9347 45.6637 78.0313 45.6546 77.0428C45.6554 76.8106 45.6566 76.5783 45.6581 76.346C45.6611 75.7077 45.6591 75.0695 45.6563 74.4312C45.6542 73.7429 45.6567 73.0546 45.6586 72.3662C45.6615 71.0178 45.6602 69.6694 45.6572 68.321C45.655 67.2253 45.6543 66.1297 45.6549 65.0341C45.655 64.8004 45.655 64.8004 45.6551 64.5619C45.6553 64.2454 45.6555 63.9289 45.6556 63.6123C45.657 60.8124 45.6543 58.0125 45.6495 55.2125C45.6448 52.4941 45.6437 49.7758 45.6462 47.0574C45.6489 44.0986 45.6496 41.1399 45.6467 38.1812C45.6464 37.8659 45.6461 37.5506 45.6458 37.2352C45.6457 37.0801 45.6455 36.9249 45.6454 36.7651C45.6445 35.6704 45.645 34.5757 45.6461 33.481C45.6473 32.1475 45.6462 30.814 45.6422 29.4805C45.6401 28.7998 45.6391 28.1191 45.6409 27.4384C45.6426 26.8158 45.6412 26.1932 45.6374 25.5705C45.6366 25.3448 45.6369 25.1191 45.6383 24.8934C45.6401 24.5875 45.6376 24.2815 45.6348 23.9756C45.6346 23.8054 45.6344 23.6352 45.6342 23.4598C45.532 22.9074 45.3351 22.7197 44.9043 22.3711C44.5316 22.1847 44.3242 22.1888 43.9098 22.189C43.7685 22.1887 43.6273 22.1884 43.4817 22.1881C43.2476 22.1888 43.2476 22.1888 43.0087 22.1895C42.761 22.1893 42.761 22.1893 42.5083 22.1891C41.9515 22.1888 41.3947 22.1897 40.8379 22.1906C40.4401 22.1906 40.0424 22.1906 39.6447 22.1905C38.7866 22.1905 37.9284 22.1909 37.0703 22.1919C35.8296 22.1932 34.5889 22.1936 33.3482 22.1938C31.3354 22.1942 29.3226 22.1952 27.3097 22.1968C25.3541 22.1983 23.3985 22.1994 21.4429 22.2001C21.3224 22.2001 21.202 22.2002 21.0778 22.2002C20.4734 22.2004 19.869 22.2006 19.2645 22.2008C14.248 22.2025 9.23141 22.2054 4.21485 22.209ZM57.0625 27.3965C56.7121 27.9182 56.5404 28.4755 56.3545 29.0727C56.2676 29.328 56.2676 29.328 56.1788 29.5884C55.9888 30.1497 55.8064 30.7132 55.6238 31.277C55.4923 31.6687 55.3603 32.0603 55.2276 32.4516C55.0212 33.0609 54.8151 33.6703 54.6117 34.2806C53.9383 36.299 53.2239 38.3018 52.5018 40.3033C52.3046 40.8504 52.1084 41.3979 51.9124 41.9455C51.6264 42.7444 51.338 43.5423 51.0479 44.3398C50.9164 44.7032 50.7876 45.0675 50.6595 45.4322C50.5568 45.716 50.5568 45.716 50.4521 46.0055C50.3974 46.16 50.3426 46.3144 50.2862 46.4736C49.9573 47.1098 49.4391 47.3928 48.7949 47.6602C48.6879 47.7137 48.5809 47.7672 48.4707 47.8223C48.4707 48.4107 48.4707 48.9992 48.4707 49.6055C48.8981 49.5474 49.3256 49.4894 49.753 49.4313C50.6241 49.4523 51.2101 49.7751 51.8611 50.3388C52.0786 50.5676 52.0786 50.5676 52.3005 50.801C52.5193 51.0286 52.5193 51.0286 52.7425 51.2608C52.8842 51.41 53.0259 51.5592 53.1719 51.7129C53.4405 51.9847 53.7112 52.2542 53.9824 52.5234C54.2886 51.8932 54.3311 51.5736 54.1445 50.9024C53.9626 50.488 53.7759 50.0824 53.5772 49.6764C52.7496 47.9765 52.7496 47.9765 53.0851 46.9509C53.1463 46.7629 53.2075 46.5748 53.2706 46.381C53.3455 46.1589 53.4207 45.9368 53.4961 45.7149C53.538 45.5906 53.58 45.4664 53.6232 45.3384C53.9838 44.2731 54.3525 43.2107 54.722 42.1484C54.7808 41.9791 54.8395 41.8098 54.9 41.6353C55.6248 39.5453 56.3611 37.4597 57.1125 35.3791C57.1831 35.1835 57.2536 34.9879 57.3263 34.7864C57.6701 33.8343 58.0151 32.8827 58.3623 31.9318C58.488 31.5848 58.6137 31.2377 58.7393 30.8907C58.7971 30.7338 58.8549 30.577 58.9144 30.4153C59.4467 29.0585 59.4467 29.0585 59.3681 27.6504C59.3061 27.5432 59.244 27.436 59.1801 27.3256C59.1184 27.2154 59.0568 27.1053 58.9933 26.9919C58.9202 26.8712 58.9202 26.8712 58.8457 26.7481C58.1794 26.7481 57.6036 27.0226 57.0625 27.3965ZM50.0107 34.5192C49.8814 34.5642 49.752 34.6092 49.6188 34.6556C49.4957 34.699 49.3726 34.7424 49.2458 34.787C49.0754 34.8469 49.0754 34.8469 48.9016 34.9079C48.6315 34.9957 48.6315 34.9957 48.4707 35.1777C48.459 35.4511 48.4571 35.7249 48.4606 35.9984C48.4639 36.2626 48.4673 36.5267 48.4707 36.7988C49.1662 36.7988 49.8616 36.7988 50.5781 36.7988C51.0755 35.887 51.3709 35.0652 51.5508 34.043C51.0555 34.043 50.4829 34.3525 50.0107 34.5192ZM59.6563 36.9609C59.524 37.2714 59.3924 37.5822 59.2611 37.8931C59.1878 38.0661 59.1144 38.2391 59.0388 38.4174C58.8871 38.8014 58.7774 39.1553 58.6836 39.5547C59.0104 39.8629 59.3381 40.17 59.6664 40.4767C59.7574 40.5627 59.8484 40.6487 59.9422 40.7373C60.5696 41.3217 61.2188 41.8251 61.9258 42.3106C62.23 41.7973 62.2991 41.4454 62.25 40.8516C62.0875 40.4803 62.0875 40.4803 61.8473 40.1271C61.7624 39.9945 61.6776 39.8618 61.5902 39.725C61.4554 39.5204 61.4554 39.5204 61.3179 39.3115C61.2305 39.1751 61.1432 39.0386 61.0532 38.898C60.6181 38.2242 60.1746 37.5749 59.6563 36.9609ZM48.4707 39.7168C48.4707 40.7332 48.4707 41.7497 48.4707 42.7969C48.8187 42.275 49.0152 41.7522 49.2205 41.1657C49.2577 41.0623 49.2949 40.959 49.3332 40.8525C49.5376 40.2982 49.5376 40.2982 49.6055 39.7168C49.231 39.7168 48.8565 39.7168 48.4707 39.7168Z" fill="black"/>
<path d="M32.4219 30.1523C32.5818 30.2706 32.7416 30.3889 32.9063 30.5108C35.6753 32.6851 37.6176 35.8835 38.0957 39.3926C38.4135 43.1282 37.8673 46.8527 35.4817 49.8689C35.2739 50.1067 35.0647 50.3433 34.8535 50.5781C34.7798 50.6747 34.706 50.7712 34.63 50.8707C32.6321 53.4591 29.1491 54.9739 25.992 55.3901C22.3133 55.739 18.664 54.8473 15.7145 52.564C12.779 50.1023 10.7637 47.0123 10.375 43.1211C10.1145 39.365 10.899 35.7849 13.3082 32.8138C13.6696 32.3996 14.0422 32.0032 14.4278 31.6113C14.5511 31.4859 14.6743 31.3606 14.8014 31.2314C19.4814 26.7509 27.23 26.3025 32.4219 30.1523ZM22.6953 30.6387C22.4737 31.274 22.2968 31.8982 22.1622 32.5574C22.13 32.7129 22.0979 32.8685 22.0649 33.0288C22.0058 33.3201 22.0058 33.3201 21.9456 33.6174C21.8185 34.2393 21.6915 34.8612 21.5606 35.5019C23.3259 35.5019 25.0913 35.5019 26.9102 35.5019C26.63 33.678 26.63 33.678 26.2415 31.8849C26.212 31.763 26.1826 31.641 26.1522 31.5154C26.0814 31.223 26.0096 30.9308 25.9375 30.6387C24.3106 30.4704 24.3106 30.4704 22.6953 30.6387ZM29.1797 31.7734C29.2848 32.4764 29.394 33.1786 29.5039 33.8809C29.5419 34.141 29.5419 34.141 29.5806 34.4064C29.6054 34.564 29.6303 34.7216 29.6559 34.8839C29.6882 35.098 29.6882 35.098 29.7211 35.3164C29.8064 35.7235 29.8064 35.7235 30.3145 35.9883C30.7212 36.092 30.7212 36.092 31.1776 36.1618C31.4276 36.2041 31.4276 36.2041 31.6826 36.2473C31.8564 36.2755 32.0301 36.3037 32.2091 36.3328C32.3848 36.3622 32.5604 36.3917 32.7414 36.422C33.1751 36.4947 33.6089 36.5662 34.043 36.6367C33.0843 34.6299 31.6041 32.812 29.521 31.8899C29.4084 31.8515 29.2958 31.813 29.1797 31.7734ZM16.4548 33.7871C15.6682 34.5971 14.7869 35.5593 14.4278 36.6367C15.0392 36.5326 15.6504 36.4277 16.2616 36.3226C16.5223 36.2783 16.5223 36.2783 16.7882 36.233C17.0381 36.1899 17.0381 36.1899 17.2932 36.146C17.5237 36.1065 17.5237 36.1065 17.7588 36.0662C18.1761 35.9932 18.1761 35.9932 18.6426 35.8262C18.752 35.303 18.8596 34.7794 18.9668 34.2557C19.0132 34.034 19.0132 34.034 19.0605 33.8077C19.0898 33.6641 19.1191 33.5204 19.1492 33.3724C19.1764 33.2408 19.2035 33.1092 19.2315 32.9736C19.2935 32.5677 19.3013 32.1834 19.291 31.7734C18.3835 31.7734 17.0795 33.2122 16.4548 33.7871ZM21.2364 38.4199C21.1051 39.4531 21.0492 40.4591 21.054 41.5C21.0534 41.6358 21.0527 41.7717 21.0521 41.9116C21.0535 42.813 21.1228 43.6858 21.2364 44.5801C23.2541 44.7099 25.2188 44.7654 27.2344 44.5801C27.4269 44.0025 27.4175 43.5381 27.418 42.9286C27.4182 42.8153 27.4184 42.702 27.4185 42.5852C27.4186 42.346 27.4183 42.1067 27.4176 41.8674C27.4168 41.5014 27.4176 41.1353 27.4187 40.7692C27.4186 40.5366 27.4184 40.304 27.418 40.0714C27.4179 39.8597 27.4177 39.648 27.4175 39.4299C27.4207 38.9037 27.4207 38.9037 27.2344 38.4199C25.2159 38.2842 23.253 38.2501 21.2364 38.4199ZM16.6245 39.0779C16.4603 39.1137 16.2962 39.1495 16.1271 39.1865C15.8727 39.2433 15.8727 39.2433 15.6132 39.3014C15.4417 39.3387 15.2703 39.376 15.0936 39.4144C14.2517 39.5795 14.2517 39.5795 13.4551 39.8789C13.2659 40.4464 13.2715 40.9022 13.2727 41.5C13.2723 41.7006 13.2719 41.9012 13.2715 42.1079C13.2687 42.6368 13.2687 42.6368 13.4551 43.1211C13.8649 43.2582 14.2508 43.3634 14.6709 43.4554C14.7888 43.4829 14.9068 43.5103 15.0283 43.5386C15.2624 43.5927 15.4968 43.646 15.7314 43.6984C15.9938 43.7572 16.2554 43.8196 16.5168 43.8829C17.1464 44.0336 17.6633 44.0937 18.3184 44.0937C18.3184 42.3819 18.3184 40.67 18.3184 38.9062C17.6846 38.9062 17.2291 38.945 16.6245 39.0779ZM30.3145 38.9062C30.3145 40.6181 30.3145 42.33 30.3145 44.0937C31.5084 43.967 31.5084 43.967 32.6606 43.7385C32.8095 43.7025 32.9584 43.6664 33.1118 43.6293C33.262 43.592 33.4121 43.5547 33.5668 43.5162C33.7226 43.4783 33.8784 43.4404 34.0389 43.4013C34.4187 43.3087 34.7983 43.215 35.1778 43.1211C35.1778 42.0512 35.1778 40.9812 35.1778 39.8789C34.489 39.7159 33.8 39.554 33.1109 39.3926C32.9153 39.3462 32.7197 39.2998 32.5182 39.252C32.236 39.1862 32.236 39.1862 31.9482 39.119C31.7751 39.0783 31.6019 39.0375 31.4234 38.9955C30.935 38.8857 30.935 38.8857 30.3145 38.9062ZM14.4278 46.3633C15.2908 48.305 16.9679 50.0188 18.8047 51.0644C18.9652 51.1179 19.1257 51.1714 19.291 51.2266C19.1688 49.8575 18.9055 48.5214 18.6426 47.1738C18.0315 47.0379 17.4201 46.9031 16.8087 46.7686C16.635 46.7299 16.4612 46.6912 16.2822 46.6514C16.1156 46.6148 15.9489 46.5783 15.7772 46.5406C15.6235 46.5066 15.4699 46.4727 15.3116 46.4377C14.9018 46.3484 14.9018 46.3484 14.4278 46.3633ZM32.0268 46.6672C31.7915 46.7095 31.7915 46.7095 31.5515 46.7527C31.3257 46.795 31.3257 46.795 31.0953 46.8382C30.9573 46.8637 30.8192 46.8891 30.6771 46.9154C30.2724 47.002 30.2724 47.002 29.8282 47.3359C29.7015 47.6854 29.7015 47.6854 29.6388 48.0952C29.6111 48.2455 29.5834 48.3959 29.5549 48.5508C29.5281 48.7083 29.5012 48.8657 29.4735 49.028C29.4448 49.1848 29.4161 49.3416 29.3865 49.5032C29.2307 50.3597 29.2307 50.3597 29.1797 51.2266C30.4034 50.7892 31.385 49.9009 32.2598 48.957C32.3515 48.8605 32.4433 48.7639 32.5378 48.6645C33.2013 47.9434 33.6435 47.258 34.043 46.3633C33.3655 46.3633 32.6909 46.543 32.0268 46.6672ZM21.5606 47.498C21.7177 48.2704 21.8749 49.0427 22.0368 49.8385C22.0861 50.0825 22.1354 50.3264 22.1862 50.5778C22.2253 50.7683 22.2644 50.9587 22.3046 51.155C22.3445 51.3511 22.3844 51.5472 22.4255 51.7493C22.4876 52.1819 22.4876 52.1819 22.6953 52.3613C22.9947 52.4044 23.2958 52.4362 23.5971 52.4626C23.8431 52.4858 23.8431 52.4858 24.0942 52.5095C24.7293 52.5257 25.3092 52.4527 25.9375 52.3613C26.1005 51.6422 26.2623 50.9227 26.4239 50.2032C26.4702 49.9986 26.5166 49.7939 26.5644 49.583C26.6303 49.2891 26.6303 49.2891 26.6974 48.9893C26.7382 48.8085 26.7789 48.6277 26.8209 48.4414C26.9257 47.9824 26.9257 47.9824 26.9102 47.498C25.1448 47.498 23.3794 47.498 21.5606 47.498Z" fill="black"/>
<path d="M13.1309 66.3027C20.4598 66.3027 27.7888 66.3027 35.3398 66.3027C35.3398 67.2657 35.3398 68.2286 35.3398 69.2207C28.0109 69.2207 20.6819 69.2207 13.1309 69.2207C13.1309 68.2578 13.1309 67.2948 13.1309 66.3027Z" fill="black"/>
<path d="M15.8867 71.8145C21.3968 71.8145 26.9069 71.8145 32.584 71.8145C32.584 72.7774 32.584 73.7403 32.584 74.7324C27.0739 74.7324 21.5638 74.7324 15.8867 74.7324C15.8867 73.7695 15.8867 72.8066 15.8867 71.8145Z" fill="black"/>
<path d="M28.3691 60.791C29.3321 60.791 30.295 60.791 31.2871 60.791C31.2871 61.7539 31.2871 62.7169 31.2871 63.709C30.3242 63.709 29.3612 63.709 28.3691 63.709C28.3691 62.7461 28.3691 61.7831 28.3691 60.791Z" fill="black"/>
<path d="M22.8574 60.791C23.8204 60.791 24.7833 60.791 25.7754 60.791C25.7754 61.7539 25.7754 62.7169 25.7754 63.709C24.8125 63.709 23.8495 63.709 22.8574 63.709C22.8574 62.7461 22.8574 61.7831 22.8574 60.791Z" fill="black"/>
<path d="M17.3457 60.791C18.3086 60.791 19.2716 60.791 20.2637 60.791C20.2637 61.7539 20.2637 62.7169 20.2637 63.709C19.3007 63.709 18.3378 63.709 17.3457 63.709C17.3457 62.7461 17.3457 61.7831 17.3457 60.791Z" fill="black"/>
<path d="M51.875 11.6719C52.7309 11.9394 53.5869 12.2068 54.4688 12.4824C54.1998 13.5198 53.922 14.4067 53.4961 15.4004C52.6937 15.1329 51.8912 14.8654 51.0645 14.5898C51.2212 13.4929 51.4835 12.6949 51.875 11.6719Z" fill="black"/>
<path d="M66.1406 16.6973C66.543 16.8241 66.9448 16.9527 67.3463 17.0823C67.4609 17.1182 67.5755 17.1542 67.6936 17.1912C67.9897 17.2875 68.2814 17.3968 68.5723 17.5078C68.7344 17.832 68.7344 17.832 68.5374 18.4311C68.4456 18.6709 68.3525 18.9103 68.2582 19.1492C68.211 19.2714 68.1639 19.3937 68.1154 19.5196C67.9986 19.8221 67.8803 20.124 67.7617 20.4258C67.3593 20.2989 66.9576 20.1704 66.556 20.0408C66.3841 19.9869 66.3841 19.9869 66.2087 19.9319C65.9127 19.8355 65.6209 19.7262 65.3301 19.6152C65.168 19.291 65.168 19.291 65.3649 18.692C65.4567 18.4521 65.5499 18.2128 65.6442 17.9739C65.6913 17.8516 65.7384 17.7294 65.787 17.6034C65.9037 17.3009 66.022 16.999 66.1406 16.6973Z" fill="black"/>
<path d="M56.5762 13.4551C57.51 13.5534 58.314 13.9019 59.1699 14.2656C58.6714 16.1334 58.6714 16.1334 58.3594 17.0215C57.4256 16.9232 56.6215 16.5746 55.7656 16.2109C55.9547 15.2498 56.2123 14.3648 56.5762 13.4551Z" fill="black"/>
<path d="M70.8418 18.4805C71.7644 18.6583 72.5838 18.8923 73.4355 19.291C73.1662 20.2404 72.873 21.1486 72.4629 22.0469C70.7513 21.5484 70.7513 21.5484 70.0312 21.2363C70.1184 20.2342 70.444 19.4001 70.8418 18.4805Z" fill="black"/>
<path d="M61.4395 15.0762C63.151 15.5747 63.151 15.5747 63.8711 15.8867C63.682 16.8478 63.4245 17.7328 63.0605 18.6426C62.1379 18.4647 61.3186 18.2307 60.4668 17.832C60.7102 16.8617 60.9438 15.9495 61.4395 15.0762Z" fill="black"/>
</g>
<defs>
<clipPath id="clip0_141_2">
<rect width="83" height="83" fill="white"/>
</clipPath>
</defs>
</svg>
