<svg width="81" height="81" viewBox="0 0 81 81" fill="none" xmlns="http://www.w3.org/2000/svg">
<g clip-path="url(#clip0_141_30)">
<path d="M18.8324 2.07836C19.7648 2.81429 20.6496 3.62871 21.3574 4.58798C21.3574 4.69239 21.3574 4.79681 21.3574 4.90438C21.4638 4.90414 21.5702 4.9039 21.6797 4.90366C27.9826 4.8895 34.2855 4.87864 40.5884 4.87207C41.345 4.87128 42.1017 4.87046 42.8583 4.86962C43.0843 4.86937 43.0843 4.86937 43.3148 4.86912C45.7545 4.86637 48.1942 4.86138 50.6338 4.85556C53.1368 4.84965 55.6398 4.84613 58.1428 4.84484C59.6875 4.84398 61.2322 4.84123 62.7769 4.83609C63.8359 4.83275 64.8949 4.83174 65.9539 4.83256C66.5651 4.83297 67.1762 4.83234 67.7873 4.82895C68.45 4.8253 69.1125 4.82656 69.7751 4.82829C69.9683 4.82644 70.1614 4.8246 70.3604 4.8227C71.4101 4.83013 72.0863 4.8936 72.9317 5.5372C73.5104 6.2835 73.7416 6.84022 73.7459 7.77554C73.7476 8.02839 73.7476 8.02839 73.7494 8.28634C73.7498 8.47127 73.7502 8.65619 73.7507 8.84672C73.7517 9.04148 73.7527 9.23625 73.7538 9.43692C73.7569 10.0828 73.7588 10.7287 73.7604 11.3746C73.761 11.5971 73.7617 11.8196 73.7623 12.042C73.7653 13.087 73.7676 14.132 73.7689 15.177C73.7704 16.383 73.7746 17.589 73.781 18.795C73.7858 19.7275 73.7881 20.6599 73.7886 21.5923C73.789 22.1492 73.7904 22.706 73.7944 23.2628C73.7988 23.8839 73.7981 24.505 73.797 25.1262C73.8001 25.4026 73.8001 25.4026 73.8032 25.6846C73.7951 26.9303 73.7951 26.9303 73.4214 27.5625C73.0635 27.8662 72.9203 27.9482 72.457 27.9328C72.3526 27.933 72.2482 27.9332 72.1406 27.9334C71.8242 27.8438 71.8242 27.8438 71.1914 27.211C71.1914 26.2713 71.1914 25.3316 71.1914 24.3634C54.3285 24.3634 37.4657 24.3634 20.0918 24.3634C20.0918 26.6083 20.0918 28.8532 20.0918 31.1661C19.6172 31.7989 19.6172 31.7989 19.0469 31.9573C18.2165 32.0205 17.6013 31.6896 16.8758 31.3218C16.5931 31.1877 16.3103 31.0538 16.0273 30.9201C15.5869 30.7079 15.1476 30.4936 14.7102 30.2751C14.2845 30.0641 13.8554 29.8621 13.425 29.6607C13.2969 29.5938 13.1688 29.527 13.0368 29.4581C12.6016 29.2424 12.6016 29.2424 11.8652 29.1095C11.2388 29.3705 10.6123 29.6315 9.9668 29.9005C9.91459 34.3903 9.86238 38.8801 9.80859 43.5059C10.1218 43.6104 10.4351 43.7148 10.7578 43.8224C11.1195 43.9894 11.4782 44.1631 11.8345 44.3415C11.9378 44.393 12.0411 44.4445 12.1476 44.4976C12.4878 44.6674 12.8276 44.8381 13.1673 45.0089C13.407 45.1288 13.6468 45.2487 13.8865 45.3686C14.3898 45.6203 14.8928 45.8725 15.3957 46.125C16.0312 46.4441 16.667 46.7623 17.303 47.0803C21.7727 49.3152 21.7727 49.3152 23.7925 50.3887C25.2315 51.1532 26.684 51.8908 28.1391 52.6241C28.4676 52.7901 28.7957 52.9569 29.1234 53.1244C29.6038 53.3698 30.0853 53.6128 30.5672 53.8553C30.7137 53.9307 30.8602 54.0062 31.0111 54.0839C31.147 54.1517 31.283 54.2194 31.4231 54.2892C31.5419 54.3494 31.6607 54.4097 31.7831 54.4717C32.1775 54.6005 32.3637 54.5657 32.748 54.422C33.0671 54.2289 33.0671 54.2289 33.384 53.9832C33.5054 53.8926 33.6269 53.802 33.752 53.7087C33.8808 53.6113 34.0095 53.5138 34.1422 53.4134C34.2756 53.3142 34.4089 53.2151 34.5463 53.1129C35.1764 52.644 35.8027 52.1706 36.4238 51.6899C37.9768 50.4981 39.2859 49.7912 41.291 49.9923C42.4978 50.2314 43.3578 50.7341 44.3167 51.4853C44.4447 51.5822 44.5728 51.6791 44.7048 51.7789C45.3448 52.2639 45.977 52.7586 46.6081 53.2552C46.7221 53.3436 46.8361 53.4321 46.9535 53.5231C47.1685 53.6903 47.3819 53.8596 47.5933 54.0314C48.1219 54.4654 48.1219 54.4654 48.7723 54.5525C49.3005 54.3917 49.7661 54.1685 50.2599 53.9208C50.3632 53.8693 50.4665 53.8178 50.5729 53.7648C50.9141 53.5944 51.2547 53.4227 51.5952 53.2509C51.8352 53.1307 52.0751 53.0106 52.3151 52.8905C52.8194 52.638 53.3234 52.3849 53.8272 52.1312C54.4637 51.8107 55.1008 51.4913 55.7381 51.1723C58.9949 49.5428 58.9949 49.5428 62.2241 47.8598C63.7149 47.0684 65.2255 46.316 66.735 45.5613C67.2552 45.301 67.7749 45.0397 68.2946 44.7784C68.6259 44.6125 68.9573 44.4467 69.2887 44.2809C69.4437 44.2028 69.5987 44.1247 69.7585 44.0443C69.9008 43.9734 70.0431 43.9024 70.1897 43.8294C70.3148 43.7667 70.44 43.704 70.5689 43.6394C70.875 43.5059 70.875 43.5059 71.1914 43.5059C71.1897 43.3551 71.1879 43.2042 71.1861 43.0488C71.17 41.6266 71.1582 40.2044 71.1504 38.7821C71.1463 38.0508 71.1407 37.3197 71.1317 36.5885C71.1231 35.8828 71.1184 35.1771 71.1164 34.4713C71.1149 34.2022 71.112 33.9331 71.1078 33.6639C71.102 33.2867 71.1012 32.9097 71.1016 32.5323C71.0988 32.4213 71.0959 32.3102 71.093 32.1958C71.0994 31.5889 71.1791 31.3398 71.5629 30.8595C71.9824 30.5333 71.9824 30.5333 72.457 30.4344C73.1083 30.5701 73.3194 30.7988 73.7227 31.3243C73.7344 31.9466 73.7344 31.9466 73.7031 32.2938C73.6388 33.0804 73.6263 33.8329 74.1159 34.485C74.7796 35.1211 75.5446 35.6182 76.3148 36.1153C77.0073 36.5698 77.6659 37.0693 78.3303 37.5634C78.5126 37.6952 78.5126 37.6952 78.6986 37.8296C78.8157 37.9145 78.9327 37.9994 79.0534 38.0869C79.1545 38.1598 79.2557 38.2327 79.36 38.3078C79.4835 38.4047 79.6071 38.5017 79.7344 38.6017C79.8868 38.7065 79.8868 38.7065 80.0423 38.8136C80.5309 39.1819 80.9279 39.4821 81.1173 40.0786C81.1608 40.5196 81.165 40.9455 81.1554 41.3886C81.1568 41.5559 81.1582 41.7232 81.1597 41.8955C81.1629 42.4552 81.157 43.0144 81.1512 43.5741C81.1516 43.9756 81.1526 44.3771 81.1541 44.7786C81.1562 45.7553 81.1525 46.7318 81.1461 47.7084C81.1389 48.8456 81.1385 49.9827 81.1383 51.1199C81.1379 53.1483 81.1314 55.1767 81.1216 57.2052C81.112 59.1741 81.1064 61.1429 81.1053 63.1119C81.1053 63.2332 81.1052 63.3546 81.1051 63.4796C81.1051 63.6008 81.105 63.7219 81.105 63.8467C81.1048 64.0906 81.1047 64.3346 81.1046 64.5785C81.1045 64.6988 81.1044 64.8191 81.1044 64.943C81.1032 66.819 81.0985 68.6951 81.0934 70.5711C81.0916 71.2513 81.0903 71.9315 81.0893 72.6118C81.0877 73.7909 81.0836 74.97 81.0768 76.1491C81.0749 76.5413 81.0739 76.9335 81.0736 77.3256C81.0731 77.8592 81.0698 78.3927 81.0656 78.9263C81.0661 79.083 81.0666 79.2397 81.0672 79.4011C81.0646 79.6147 81.0646 79.6147 81.0619 79.8327C81.0614 79.9559 81.0609 80.0791 81.0604 80.2061C81 80.5255 81 80.5255 80.8405 80.8023C80.3344 81.1199 79.7974 81.0649 79.2181 81.0598C79.0148 81.0608 79.0148 81.0609 78.8073 81.0619C78.349 81.0637 77.8908 81.062 77.4325 81.0603C77.1022 81.0609 76.772 81.0617 76.4417 81.0626C75.531 81.0646 74.6203 81.0636 73.7095 81.0621C72.7286 81.0611 71.7477 81.0627 70.7667 81.064C68.9551 81.066 67.1435 81.0658 65.3318 81.0645C63.6584 81.0633 61.9849 81.063 60.3115 81.0636C60.2006 81.0636 60.0897 81.0637 59.9755 81.0637C59.5254 81.0639 59.0754 81.064 58.6253 81.0642C54.401 81.0656 50.1766 81.0643 45.9523 81.0617C42.1967 81.0595 38.4412 81.0597 34.6857 81.062C30.4692 81.0645 26.2528 81.0655 22.0363 81.064C21.587 81.0639 21.1378 81.0637 20.6885 81.0636C20.5779 81.0636 20.4673 81.0635 20.3533 81.0635C18.6807 81.0629 17.008 81.0636 15.3354 81.0648C13.434 81.0661 11.5327 81.0658 9.63142 81.0632C8.66053 81.062 7.68965 81.0615 6.71876 81.063C5.83115 81.0645 4.94357 81.0637 4.05596 81.0612C3.7337 81.0606 3.41145 81.0609 3.08919 81.062C2.65338 81.0635 2.21767 81.062 1.78187 81.0598C1.65482 81.0609 1.52777 81.062 1.39688 81.0632C0.561465 81.0546 0.561465 81.0546 0.159499 80.8023C-0.0401084 80.4559 -0.0604556 80.2329 -0.0623764 79.8332C-0.0651109 79.6197 -0.065111 79.6197 -0.0679008 79.4018C-0.0674895 79.2453 -0.0670789 79.0887 -0.0666551 78.9274C-0.0680653 78.7612 -0.0694751 78.595 -0.0709279 78.4238C-0.0750599 77.8641 -0.0757677 77.3045 -0.0764753 76.7449C-0.0786712 76.3447 -0.0810559 75.9446 -0.0836158 75.5444C-0.0898519 74.4553 -0.0929218 73.3662 -0.0950111 72.277C-0.0963221 71.5969 -0.0983337 70.9167 -0.100472 70.2366C-0.106259 68.3533 -0.111146 66.47 -0.112751 64.5867C-0.112856 64.4661 -0.11296 64.3456 -0.113068 64.2214C-0.113171 64.1005 -0.113275 63.9797 -0.113382 63.8552C-0.113592 63.6103 -0.113804 63.3654 -0.114018 63.1205C-0.114123 62.9991 -0.114228 62.8776 -0.114336 62.7525C-0.116209 60.785 -0.12449 58.8176 -0.135546 56.8502C-0.146805 54.8301 -0.152716 52.81 -0.153269 50.7898C-0.153704 49.6556 -0.156427 48.5216 -0.165048 47.3874C-0.17313 46.3204 -0.173897 45.2536 -0.169728 44.1865C-0.169361 43.7949 -0.171431 43.4033 -0.176116 43.0117C-0.182141 42.4768 -0.179373 41.9426 -0.174416 41.4076C-0.178239 41.2528 -0.182063 41.098 -0.186003 40.9385C-0.171539 40.2707 -0.130234 39.8664 0.303946 39.3418C0.664171 39.0169 1.03043 38.727 1.42383 38.4434C1.54769 38.3488 1.67155 38.2542 1.79916 38.1567C2.14447 37.8935 2.49556 37.6395 2.84766 37.3855C3.03957 37.2425 3.03957 37.2425 3.23536 37.0966C3.8817 36.6162 4.53001 36.1603 5.217 35.7398C6.48471 34.9799 6.48471 34.9799 7.24884 33.7738C7.40382 32.844 7.36775 31.9427 7.27734 31.0079C7.14173 31.0783 7.00611 31.1486 6.86639 31.2211C6.6855 31.3106 6.50461 31.4002 6.31824 31.4924C6.05119 31.6273 6.05119 31.6273 5.77874 31.7649C5.13893 31.9853 4.76522 31.9573 4.11328 31.7989C3.78748 31.5491 3.66308 31.3731 3.48047 31.0079C3.46705 30.6737 3.46398 30.339 3.46556 30.0045C3.466 29.7911 3.46642 29.5777 3.46683 29.3643C3.46731 29.251 3.46779 29.1376 3.46829 29.0208C3.47009 28.4198 3.46684 27.8188 3.4644 27.2178C3.46151 26.4533 3.46012 25.6889 3.46471 24.9244C3.46829 24.3065 3.46645 23.6887 3.46107 23.0708C3.46 22.836 3.46089 22.6013 3.46382 22.3665C3.50124 20.8165 3.50124 20.8165 2.78014 19.4902C2.59429 19.3188 2.40616 19.1498 2.21484 18.9845C1.05535 17.4318 0.0538214 15.4229 -1.04308e-07 13.4474C0.174063 12.8456 0.256112 12.6965 0.791016 12.3399C1.75743 12.2345 1.75743 12.2345 2.22659 12.5853C2.61241 13.076 2.74991 13.5768 2.90698 14.1692C3.59773 16.5364 4.81753 18.4162 6.9801 19.6914C9.25306 20.9004 11.5628 21.3696 14.106 20.7636C16.6705 19.9718 18.6642 18.5266 19.9336 16.1368C21.072 13.8539 21.3801 11.4467 20.6158 8.97812C19.6419 6.37743 18.0848 4.54829 15.5632 3.35202C14.8661 3.05423 14.1955 2.81378 13.4473 2.68954C13.3196 2.66833 13.1919 2.64712 13.0604 2.62527C10.413 2.28566 7.94525 3.12079 5.8288 4.68129C4.44906 5.80896 3.67439 7.29382 2.92367 8.87429C2.68945 9.33407 2.68945 9.33407 2.37305 9.65048C1.27186 9.77481 1.27186 9.77481 0.702026 9.34396C0.377643 8.65288 0.425013 8.14707 0.632812 7.43564C1.79074 4.54252 3.96437 2.14526 6.83487 0.885037C10.8001 -0.701074 15.2897 -0.412461 18.8324 2.07836ZM22.9395 7.43564C22.9611 7.54346 22.9827 7.65128 23.005 7.76237C23.0334 7.90424 23.0618 8.04611 23.0911 8.19228C23.1192 8.33273 23.1473 8.47318 23.1763 8.61789C23.8654 12.0814 23.5399 15.2753 21.6738 18.3517C21.197 19.022 20.6739 19.668 20.0918 20.2501C20.0918 20.7722 20.0918 21.2942 20.0918 21.8321C36.9547 21.8321 53.8175 21.8321 71.1914 21.8321C71.1914 17.1335 71.1914 12.4349 71.1914 7.59384C71.0317 7.39914 71.0317 7.39914 70.7052 7.41599C70.5591 7.41605 70.4131 7.41611 70.2626 7.41617C70.0948 7.41585 69.927 7.41554 69.754 7.41521C69.5674 7.41567 69.3807 7.41614 69.1884 7.41661C68.8936 7.41641 68.8936 7.41641 68.5928 7.4162C68.0448 7.41598 67.4968 7.41648 66.9489 7.41727C66.3589 7.41795 65.7689 7.41773 65.1789 7.4176C64.1558 7.41752 63.1328 7.41802 62.1097 7.41891C60.6305 7.42019 59.1514 7.42061 57.6722 7.4208C55.2726 7.42115 52.873 7.42221 50.4734 7.4237C48.1418 7.42515 45.8102 7.42627 43.4786 7.42694C43.2632 7.42701 43.2632 7.42701 43.0434 7.42707C42.323 7.42728 41.6026 7.42748 40.8821 7.42767C34.9012 7.42932 28.9203 7.4321 22.9395 7.43564ZM6.01172 22.3067C6.01172 24.395 6.01172 26.4833 6.01172 28.6349C6.86373 28.3508 7.63453 28.0903 8.441 27.7277C8.70607 27.6111 8.70607 27.6111 8.97648 27.4922C9.34253 27.33 9.70796 27.1664 10.0728 27.0015C10.2489 26.9246 10.425 26.8478 10.6064 26.7686C10.8438 26.6625 10.8438 26.6625 11.0861 26.5543C12.0131 26.2853 12.7743 26.6631 13.6178 27.0436C13.7211 27.089 13.8243 27.1344 13.9307 27.1812C14.2578 27.3253 14.5843 27.4707 14.9106 27.6164C15.2394 27.7625 15.5682 27.9083 15.8974 28.0533C16.1015 28.1434 16.3054 28.234 16.509 28.3253C17.0153 28.56 17.0153 28.56 17.5605 28.6349C17.5605 26.5466 17.5605 24.4583 17.5605 22.3067C17.0907 22.4634 16.6208 22.62 16.1367 22.7813C13.0431 23.746 10.2048 23.7415 7.14201 22.6423C6.62753 22.4498 6.62753 22.4498 6.01172 22.3067ZM73.7227 37.4942C73.7227 39.0082 73.7227 40.5222 73.7227 42.0821C74.3344 41.8782 74.8052 41.7183 75.3529 41.4234C75.4712 41.3601 75.5895 41.2969 75.7113 41.2318C75.8316 41.1665 75.952 41.1013 76.0759 41.034C76.1999 40.9675 76.3239 40.9011 76.4517 40.8326C76.7552 40.6697 77.0583 40.5059 77.3613 40.3419C77.3613 40.2375 77.3613 40.1331 77.3613 40.0255C77.0859 39.7757 77.0859 39.7757 76.7261 39.5212C76.5933 39.4237 76.4605 39.3262 76.3237 39.2258C76.1832 39.1243 76.0427 39.0227 75.898 38.9181C75.7599 38.8165 75.6218 38.7149 75.4796 38.6103C74.9013 38.1883 74.3654 37.8156 73.7227 37.4942ZM6.46285 37.9676C6.32988 38.0661 6.19692 38.1646 6.05992 38.2661C5.85007 38.4224 5.85007 38.4224 5.63599 38.5819C5.36126 38.7859 5.08647 38.9898 4.8116 39.1937C4.62794 39.3304 4.62794 39.3304 4.44058 39.4698C4.17804 39.6617 3.90925 39.8451 3.63867 40.0255C3.63867 40.1299 3.63867 40.2343 3.63867 40.3419C4.18524 40.633 4.73256 40.9226 5.28003 41.212C5.43583 41.295 5.59164 41.378 5.75217 41.4635C5.97547 41.5813 5.97547 41.5813 6.20329 41.7014C6.34082 41.7743 6.47835 41.8473 6.62004 41.9224C6.94594 42.1045 6.94594 42.1045 7.27734 42.0821C7.27734 40.5681 7.27734 39.0541 7.27734 37.4942C6.96744 37.4942 6.6996 37.7916 6.46285 37.9676ZM2.37305 42.5567C2.37305 53.9901 2.37305 65.4234 2.37305 77.2032C2.83915 76.9702 3.19757 76.7641 3.60839 76.4604C3.72484 76.3745 3.84128 76.2887 3.96126 76.2002C4.08647 76.107 4.21169 76.0138 4.3407 75.9178C4.47264 75.8201 4.60459 75.7224 4.74053 75.6218C5.72417 74.8914 6.69939 74.1502 7.67285 73.4063C8.08812 73.09 8.50347 72.7738 8.91886 72.4577C9.1982 72.2444 9.47701 72.0304 9.75529 71.8157C10.1605 71.5035 10.5677 71.194 10.9753 70.885C11.0966 70.7905 11.2178 70.6959 11.3427 70.5985C12.0524 70.0652 12.5499 69.7823 13.4473 69.7677C13.9126 69.9881 14.041 70.1362 14.2185 70.618C14.2437 71.1477 14.1837 71.3563 13.9219 71.8243C13.5114 72.1962 13.0606 72.5063 12.6068 72.823C12.3326 73.0194 12.0587 73.2161 11.7849 73.4131C11.6421 73.5154 11.4993 73.6176 11.3522 73.723C10.6334 74.244 9.92955 74.7842 9.22522 75.3246C8.42678 75.936 7.62812 76.5467 6.82127 77.147C6.64314 77.2795 6.64314 77.2795 6.46142 77.4148C6.23909 77.5799 6.01645 77.7445 5.79346 77.9087C5.54702 78.0917 5.30429 78.2797 5.0625 78.4688C5.0625 78.521 5.0625 78.5732 5.0625 78.627C28.4513 78.627 51.84 78.627 75.9375 78.627C75.4335 78.123 75.0033 77.7035 74.4482 77.2829C74.3163 77.1827 74.1845 77.0825 74.0486 76.9792C73.8383 76.8209 73.8383 76.8209 73.6238 76.6594C73.4031 76.4922 73.4031 76.4922 73.1779 76.3217C72.1094 75.5143 71.0326 74.7185 69.9523 73.927C68.8696 73.1322 67.8023 72.318 66.7358 71.5017C65.8285 70.8085 64.9143 70.1259 63.9932 69.4513C62.7865 68.5674 61.5954 67.6647 60.4076 66.7556C59.5004 66.0624 58.5862 65.3798 57.665 64.7052C56.4584 63.8213 55.2672 62.9186 54.0795 62.0095C53.1722 61.3164 52.258 60.6337 51.3369 59.9591C50.273 59.1798 49.2201 58.3875 48.1729 57.586C46.7364 56.487 45.2864 55.408 43.8263 54.3407C43.5362 54.1278 43.2476 53.9133 42.9596 53.6977C42.807 53.5843 42.6545 53.4709 42.4973 53.3541C42.3721 53.2603 42.2469 53.1665 42.1179 53.0698C41.3806 52.5887 40.8089 52.4446 39.947 52.5788C38.6976 52.9033 37.5696 54.0412 36.5647 54.8175C35.485 55.6461 34.4001 56.4659 33.3018 57.2696C32.2378 58.0488 31.1849 58.8411 30.1377 59.6427C28.9691 60.5371 27.7912 61.4169 26.6041 62.2864C25.6642 62.9764 24.7355 63.6801 23.8096 64.3888C22.3771 65.4851 20.9299 66.5601 19.4736 67.6247C19.0272 67.9545 18.5867 68.292 18.147 68.6308C17.7887 68.8798 17.5233 68.9767 17.0859 68.9767C16.6509 68.8481 16.6509 68.8481 16.2949 68.6602C16.0466 68.1637 16.081 67.784 16.1367 67.2364C16.7497 66.5177 17.5095 65.9962 18.2725 65.4467C19.3905 64.6328 20.4971 63.8062 21.5947 62.9649C22.6419 62.1633 23.6949 61.3712 24.7588 60.5919C25.8738 59.7745 26.9802 58.9465 28.0811 58.1101C28.2239 58.0019 28.3668 57.8937 28.514 57.7822C28.6468 57.681 28.7797 57.5797 28.9166 57.4754C29.0341 57.3859 29.1517 57.2965 29.2728 57.2043C29.5549 56.9767 29.8085 56.7404 30.0586 56.4786C28.136 55.4427 26.1887 54.4577 24.2347 53.4826C24.107 53.4189 23.9792 53.3551 23.8475 53.2894C22.9123 52.8227 21.9767 52.3567 21.041 51.8907C19.9762 51.3605 18.9116 50.83 17.8473 50.2988C17.7191 50.2348 17.5909 50.1708 17.4588 50.1049C16.0071 49.3799 14.5603 48.6486 13.1287 47.8845C11.3536 46.9407 9.54853 46.0535 7.74987 45.1557C7.20015 44.8813 6.65073 44.6063 6.10139 44.3312C5.67536 44.1179 5.24919 43.9049 4.82298 43.692C4.61994 43.5905 4.41695 43.489 4.21402 43.3873C3.93378 43.247 3.65333 43.1071 3.37286 42.9673C3.21365 42.8878 3.05444 42.8082 2.89041 42.7263C2.5736 42.5455 2.5736 42.5455 2.37305 42.5567ZM77.1476 43.1981C77.0443 43.2496 76.9411 43.301 76.8347 43.3541C76.4911 43.5256 76.1478 43.6981 75.8046 43.8706C75.564 43.991 75.3234 44.1113 75.0827 44.2316C74.5757 44.4853 74.0689 44.7393 73.5622 44.9937C72.9219 45.3152 72.2812 45.6359 71.6403 45.9563C71.1413 46.2058 70.6425 46.4556 70.1437 46.7056C69.9082 46.8236 69.6727 46.9415 69.4372 47.0593C68.1514 47.7029 66.8726 48.3574 65.6019 49.0301C64.0597 49.8459 62.5023 50.6292 60.941 51.4075C60.6544 51.5506 60.3678 51.6938 60.0813 51.8369C59.3384 52.2081 58.5954 52.5788 57.8522 52.9495C57.0894 53.3301 56.3268 53.711 55.5642 54.092C54.0762 54.8351 52.588 55.5779 51.0996 56.3204C51.0996 56.477 51.0996 56.6336 51.0996 56.795C51.327 57.0273 51.327 57.0273 51.6403 57.2369C51.7588 57.3222 51.8773 57.4076 51.9994 57.4955C52.1952 57.6333 52.1952 57.6333 52.3949 57.7739C52.6726 57.9736 52.95 58.1737 53.2273 58.374C53.3722 58.4782 53.5171 58.5825 53.6663 58.69C54.3755 59.2066 55.0708 59.7411 55.7666 60.2755C56.8137 61.0772 57.8668 61.8693 58.9307 62.6485C60.1374 63.5323 61.3285 64.4351 62.5162 65.3442C63.4235 66.0373 64.3377 66.7199 65.2588 67.3946C66.4655 68.2784 67.6566 69.1812 68.8443 70.0903C69.7516 70.7834 70.6658 71.466 71.5869 72.1407C72.6736 72.9368 73.7497 73.7455 74.8202 74.5632C74.9598 74.6699 75.0995 74.7765 75.2434 74.8864C75.5107 75.0907 75.778 75.2949 76.0453 75.4992C76.5489 75.8839 77.0533 76.2676 77.5591 76.6495C77.7035 76.7588 77.8479 76.8681 77.9966 76.9807C78.2679 77.2185 78.2679 77.2185 78.4688 77.2032C78.4688 65.8221 78.4688 54.4409 78.4688 42.7149C77.9744 42.7149 77.5809 42.9795 77.1476 43.1981Z" fill="black"/>
<path d="M12.498 6.01167C13.0306 6.41107 13.2713 7.01927 13.556 7.60359C13.6067 7.70443 13.6574 7.80528 13.7096 7.90918C14.0801 8.65883 14.0801 8.65883 14.0801 9.01753C14.1782 9.02942 14.2764 9.04131 14.3775 9.05356C14.8225 9.10867 15.267 9.16688 15.7115 9.22517C15.866 9.24383 16.0205 9.26249 16.1797 9.28171C16.328 9.3016 16.4764 9.32148 16.6292 9.34197C16.7659 9.35936 16.9026 9.37676 17.0435 9.39469C17.4564 9.50682 17.6153 9.63289 17.877 9.96674C18.0279 10.4079 18.0577 10.6713 17.94 11.1236C17.6987 11.5872 17.3998 11.8651 17.0076 12.2048C16.1598 12.9215 16.1598 12.9215 15.7251 13.902C15.772 14.348 15.8615 14.7549 15.9785 15.1874C16.2073 16.6048 16.2073 16.6048 15.9291 17.254C15.5939 17.6388 15.4355 17.707 14.9298 17.7731C14.3162 17.7105 13.9962 17.5158 13.4772 17.2042C12.4861 16.5962 12.4861 16.5962 11.3688 16.5173C10.8169 16.7433 10.3509 17.0535 9.86668 17.3973C9.25636 17.7655 8.92694 17.802 8.22656 17.7187C7.7793 17.4127 7.6297 17.1912 7.45532 16.6805C7.43185 16.0349 7.54062 15.4659 7.67718 14.8364C7.79726 14.1445 7.79726 14.1445 7.75195 13.4472C7.37347 12.9633 6.89313 12.5824 6.42638 12.1865C5.7374 11.5596 5.7374 11.5596 5.61436 11.0654C5.59545 10.5794 5.64978 10.2053 5.89017 9.78096C6.24148 9.41826 6.44633 9.38672 6.94302 9.32652C7.09138 9.30714 7.23974 9.28777 7.3926 9.26781C7.54708 9.25047 7.70156 9.23314 7.86072 9.21528C8.01703 9.1955 8.17335 9.17572 8.3344 9.15534C8.72009 9.10689 9.10592 9.06106 9.49219 9.01753C9.55643 8.81043 9.55643 8.81043 9.62196 8.59915C9.80037 8.09171 10.0087 7.64159 10.2634 7.16853C10.3413 7.02108 10.4192 6.87364 10.4995 6.72173C11.0658 5.85879 11.5023 5.7582 12.498 6.01167ZM11.707 9.96674C11.6352 10.1168 11.5635 10.2669 11.4895 10.4216C11.0988 11.1729 11.0988 11.1729 10.6083 11.3325C10.1293 11.4406 10.1293 11.4406 9.65039 11.5488C9.78091 11.7021 9.91143 11.8555 10.0459 12.0135C10.5367 12.6882 10.5238 13.2724 10.4414 14.08C10.5785 14.0278 10.7155 13.9756 10.8567 13.9218C11.7143 13.6677 12.3217 13.6992 13.1309 14.08C13.1217 13.9901 13.1125 13.9002 13.1031 13.8075C13.0431 12.7816 13.2586 12.3282 13.9219 11.5488C13.8264 11.5274 13.731 11.5059 13.6327 11.4839C12.6122 11.209 12.6122 11.209 12.2626 10.7961C12.0927 10.4908 12.0927 10.4908 11.8652 9.96674C11.813 9.96674 11.7608 9.96674 11.707 9.96674Z" fill="black"/>
<path d="M31.2715 41.3878C31.3924 41.3869 31.5134 41.3861 31.638 41.3852C32.0425 41.383 32.447 41.3841 32.8516 41.3852C33.1419 41.3843 33.4322 41.3832 33.7225 41.3819C34.5105 41.3791 35.2985 41.3793 36.0866 41.3802C36.7444 41.3807 37.4021 41.3797 38.0599 41.3787C39.6114 41.3765 41.1629 41.3768 42.7145 41.3786C44.3156 41.3804 45.9167 41.3782 47.5178 41.3739C48.8923 41.3704 50.2668 41.3694 51.6413 41.3703C52.4623 41.3708 53.2833 41.3704 54.1043 41.3677C54.8761 41.3653 55.6479 41.3659 56.4198 41.3689C56.7032 41.3695 56.9865 41.369 57.2699 41.3673C57.6565 41.3652 58.043 41.367 58.4297 41.3698C58.5419 41.3683 58.6542 41.3668 58.7699 41.3652C59.5216 41.3764 59.9074 41.5471 60.4336 42.0819C60.5331 42.3984 60.5331 42.3984 60.5226 42.7148C60.5228 42.8192 60.523 42.9236 60.5232 43.0312C60.3898 43.5021 60.1861 43.6793 59.8008 43.9804C59.3771 44.0429 59.0183 44.0666 58.5949 44.0618C58.4117 44.0635 58.4117 44.0635 58.2249 44.0651C57.8155 44.068 57.4062 44.0664 56.9967 44.0648C56.7033 44.0659 56.4099 44.0673 56.1166 44.0689C55.3193 44.0725 54.5221 44.072 53.7249 44.0706C53.0597 44.0698 52.3945 44.0709 51.7292 44.0721C50.16 44.0748 48.5909 44.0742 47.0217 44.0716C45.4021 44.0689 43.7826 44.0714 42.163 44.0765C40.7731 44.0807 39.3832 44.0819 37.9933 44.0805C37.1629 44.0798 36.3325 44.0801 35.5021 44.0834C34.7213 44.0863 33.9406 44.0853 33.1597 44.0814C32.8731 44.0806 32.5864 44.0812 32.2997 44.0832C31.9085 44.0857 31.5176 44.0834 31.1264 44.0798C31.0128 44.0816 30.8992 44.0835 30.7821 44.0854C30.1665 44.074 29.9169 43.9938 29.4327 43.5998C29.1094 43.1894 29.1094 43.1894 29.0389 42.8519C29.0556 42.7479 29.0724 42.6439 29.0896 42.5368C29.1022 42.432 29.1149 42.3271 29.1279 42.2191C29.5295 41.3698 30.447 41.3808 31.2715 41.3878Z" fill="black"/>
<path d="M31.1074 36.9581C31.2296 36.9573 31.3518 36.9564 31.4777 36.9555C31.8874 36.9533 32.2972 36.9544 32.707 36.9555C33.0006 36.9546 33.2943 36.9535 33.5879 36.9522C34.3858 36.9494 35.1836 36.9496 35.9815 36.9505C36.6471 36.951 37.3127 36.95 37.9784 36.9491C39.5483 36.9468 41.1183 36.9471 42.6882 36.9489C44.309 36.9507 45.9298 36.9485 47.5506 36.9442C48.9414 36.9407 50.3321 36.9397 51.7228 36.9406C52.5538 36.9411 53.3848 36.9407 54.2158 36.938C54.997 36.9356 55.7781 36.9362 56.5593 36.9392C56.8463 36.9398 57.1333 36.9393 57.4203 36.9376C57.8115 36.9355 58.2026 36.9373 58.5938 36.9402C58.7079 36.9386 58.8219 36.9371 58.9395 36.9355C59.4803 36.9435 59.755 36.9837 60.187 37.321C60.4529 37.6782 60.5234 37.845 60.5226 38.2851C60.5261 38.3895 60.5295 38.4939 60.5331 38.6015C60.3745 39.1058 60.0801 39.2671 59.6426 39.5507C59.2157 39.611 58.8544 39.6351 58.4286 39.6289C58.247 39.6301 58.247 39.6301 58.0618 39.6312C57.6569 39.633 57.2521 39.6303 56.8471 39.6276C56.5565 39.6279 56.266 39.6285 55.9754 39.6294C55.1867 39.6309 54.3981 39.6285 53.6093 39.6253C52.7843 39.6225 51.9592 39.6231 51.1342 39.6232C49.7488 39.6229 48.3634 39.6201 46.978 39.6158C45.3756 39.6108 43.7733 39.6092 42.1709 39.6094C40.63 39.6096 39.0892 39.608 37.5484 39.6054C36.8923 39.6042 36.2362 39.6037 35.5802 39.6035C34.8079 39.6032 34.0357 39.6012 33.2635 39.5981C32.9798 39.5971 32.6961 39.5967 32.4125 39.5969C32.0258 39.5971 31.6392 39.5953 31.2525 39.593C31.1398 39.5935 31.027 39.594 30.9109 39.5945C30.3387 39.5889 29.9065 39.5593 29.4258 39.2343C29.0965 38.8109 29.11 38.5829 29.1292 38.0379C29.2676 37.4941 29.2676 37.4941 29.5172 37.2266C30.0429 36.9424 30.5247 36.9533 31.1074 36.9581Z" fill="black"/>
<path d="M30.0271 29.3835C30.2185 29.3822 30.4099 29.3808 30.6071 29.3794C30.8196 29.3795 31.032 29.3797 31.2445 29.3799C31.4679 29.3789 31.6914 29.3778 31.9149 29.3766C32.5222 29.3738 33.1295 29.3731 33.7369 29.3729C34.2436 29.3726 34.7504 29.3714 35.2572 29.3703C36.4527 29.3677 37.6481 29.367 38.8436 29.3672C40.0774 29.3674 41.3111 29.364 42.5449 29.359C43.6038 29.3549 44.6626 29.3532 45.7215 29.3534C46.3541 29.3535 46.9866 29.3526 47.6192 29.3492C48.2141 29.3462 48.8089 29.3462 49.4038 29.3485C49.6221 29.3488 49.8405 29.348 50.0589 29.3461C50.3569 29.3437 50.6549 29.3455 50.9529 29.3476C51.2031 29.3473 51.2031 29.3473 51.4583 29.3471C51.9995 29.4457 52.183 29.6361 52.5234 30.0586C52.7121 30.4764 52.6925 30.6509 52.5729 31.0968C52.335 31.5387 52.1607 31.6997 51.7324 31.9571C51.3059 32.0172 51.3059 32.0172 50.8088 32.0184C50.5257 32.0208 50.5257 32.0208 50.2368 32.0232C50.0303 32.0224 49.8237 32.0217 49.6109 32.021C49.3908 32.0219 49.1707 32.023 48.9505 32.0243C48.353 32.0271 47.7555 32.0269 47.158 32.026C46.6591 32.0255 46.1602 32.0265 45.6613 32.0275C44.4842 32.0297 43.3072 32.0294 42.1301 32.0276C40.916 32.0258 39.702 32.0281 38.4879 32.0323C37.4453 32.0358 36.4027 32.0368 35.36 32.0359C34.7374 32.0354 34.1149 32.0358 33.4923 32.0385C32.9067 32.0409 32.3213 32.0403 31.7358 32.0373C31.4187 32.0365 31.1017 32.0387 30.7846 32.0411C30.5008 32.0387 30.5008 32.0387 30.2113 32.0364C30.0472 32.0363 29.8831 32.0363 29.714 32.0363C29.1498 31.9362 28.884 31.7196 28.4766 31.3243C28.2908 30.8414 28.298 30.6064 28.437 30.1081C28.8229 29.3942 29.2821 29.3859 30.0271 29.3835Z" fill="black"/>
<path d="M33.1436 10.5204C33.9778 10.9925 34.4956 11.5084 34.9629 12.3397C35.1097 12.5845 35.1097 12.5845 35.2595 12.8341C35.6801 13.9322 35.6225 15.3648 35.1804 16.4431C34.4569 17.8041 33.5656 18.5008 32.1152 18.9843C30.4754 19.0926 29.2592 19.0457 27.9624 18.0054C27.1553 17.2585 26.6272 16.2875 26.5404 15.1812C26.5094 13.6832 26.6778 12.4409 27.7307 11.2984C29.3353 9.97156 31.2397 9.66272 33.1436 10.5204ZM29.2972 13.4768C29.0521 14.0575 28.9998 14.5723 29.1094 15.1874C29.364 15.6784 29.5845 16.0127 30.019 16.3541C30.8443 16.5834 31.4269 16.5638 32.1746 16.1762C32.8063 15.6347 32.8894 15.3992 32.9557 14.5645C32.9379 13.9664 32.8215 13.6013 32.4316 13.1308C31.8679 12.6637 31.3901 12.5803 30.6797 12.611C30.0433 12.7053 29.698 12.9931 29.2972 13.4768Z" fill="black"/>
<path d="M61.6176 10.041C61.7527 10.0402 61.8877 10.0394 62.0268 10.0386C62.1666 10.041 62.3065 10.0435 62.4507 10.046C62.6569 10.0423 62.6569 10.0423 62.8672 10.0386C64.0131 10.0455 64.8931 10.3131 65.7136 11.1336C66.213 11.9404 66.385 12.6592 66.2871 13.6056C65.9851 14.4609 65.5359 15.0643 64.8633 15.6622C64.9528 15.7521 65.0423 15.8421 65.1346 15.9347C65.6721 16.5006 66.0773 16.9311 66.3267 17.6793C66.2871 18.1935 66.2871 18.1935 66.0597 18.6582C65.6002 19.028 65.2874 19.0995 64.6983 19.0623C64.1761 18.931 63.9299 18.5996 63.5977 18.1935C63.4769 18.0727 63.3562 17.952 63.2318 17.8276C63.1437 17.7395 63.0556 17.6514 62.9648 17.5606C62.8931 17.7368 62.8213 17.913 62.7473 18.0946C62.4902 18.6681 62.4902 18.6681 62.1738 18.9845C61.0728 19.091 61.0728 19.091 60.5766 18.7698C60.1009 18.1094 60.185 17.445 60.1913 16.651C60.1907 16.4848 60.1901 16.3187 60.1895 16.1475C60.1891 15.7964 60.1902 15.4453 60.1929 15.0943C60.1963 14.5567 60.1929 14.0195 60.1889 13.482C60.1893 13.1408 60.1901 12.7997 60.1913 12.4586C60.1901 12.2977 60.1888 12.1369 60.1875 11.9712C60.2021 10.8682 60.2021 10.8682 60.5527 10.3405C60.9458 10.1023 61.1611 10.0437 61.6176 10.041ZM62.8066 12.6563C62.8066 12.9174 62.8066 13.1784 62.8066 13.4474C63.0677 13.3952 63.3287 13.3429 63.5977 13.2892C63.5977 13.1325 63.5977 12.9759 63.5977 12.8145C63.3366 12.7623 63.0756 12.7101 62.8066 12.6563Z" fill="black"/>
<path d="M54.2192 10.0199C54.3927 10.0189 54.5663 10.0179 54.7451 10.0168C54.9256 10.0199 55.106 10.023 55.292 10.0261C55.5627 10.0215 55.5627 10.0215 55.8389 10.0168C57.1517 10.0246 57.1517 10.0246 57.7052 10.4964C57.944 11.0046 57.985 11.3099 57.9023 11.8652C57.6208 12.3613 57.5032 12.4729 56.9531 12.6562C56.6534 12.6671 56.3533 12.6697 56.0533 12.6661C55.8961 12.6647 55.7389 12.6633 55.5769 12.6618C55.3967 12.6591 55.3967 12.6591 55.2129 12.6562C55.2129 12.8651 55.2129 13.0739 55.2129 13.2891C55.3903 13.2808 55.3903 13.2808 55.5713 13.2724C55.7271 13.2681 55.8829 13.2638 56.0435 13.2594C56.1976 13.2539 56.3518 13.2484 56.5106 13.2427C57.0218 13.2963 57.2251 13.4028 57.5859 13.7637C57.7591 14.3872 57.8065 14.7277 57.5464 15.3259C57.2695 15.6621 57.2695 15.6621 56.7949 15.8203C56.5216 15.8311 56.2478 15.8337 55.9742 15.8302C55.8317 15.8288 55.6891 15.8273 55.5423 15.8259C55.4336 15.824 55.3249 15.8222 55.2129 15.8203C55.2129 16.0291 55.2129 16.238 55.2129 16.4531C55.3408 16.4439 55.4686 16.4348 55.6004 16.4253C56.9797 16.3671 56.9797 16.3671 57.6255 16.7893C57.9555 17.3314 58.032 17.5711 57.9023 18.1934C57.569 18.6783 57.307 18.9465 56.7181 19.0605C56.2403 19.0911 55.7706 19.0922 55.292 19.0832C55.047 19.0878 55.047 19.0878 54.797 19.0925C54.5599 19.091 54.5599 19.091 54.3181 19.0894C54.1032 19.0881 54.1032 19.0881 53.8839 19.0867C53.2658 18.9329 53.0502 18.7127 52.6816 18.1934C52.5685 17.6454 52.5745 17.1099 52.5821 16.552C52.5816 16.3142 52.5816 16.3142 52.581 16.0716C52.5811 15.737 52.5833 15.4025 52.5872 15.0679C52.5926 14.5564 52.5905 14.0453 52.5874 13.5338C52.5885 13.2083 52.59 12.8828 52.592 12.5574C52.5912 12.4047 52.5905 12.2521 52.5897 12.0949C52.6012 11.4333 52.6287 11.0141 52.9471 10.4245C53.4019 10.0537 53.6366 10.0232 54.2192 10.0199Z" fill="black"/>
<path d="M39.4717 10.0256C39.7213 10.0251 39.7213 10.0251 39.976 10.0247C40.1489 10.0284 40.3218 10.0322 40.5 10.0361C40.6729 10.0344 40.8459 10.0326 41.024 10.0308C42.2987 10.0426 42.2987 10.0426 42.7636 10.4273C43.1304 10.8803 43.135 11.1573 43.0992 11.7219C43.0312 12.0235 43.0312 12.0235 42.7445 12.419C42.0029 12.768 41.3061 12.7072 40.5 12.6563C40.5 12.8652 40.5 13.074 40.5 13.2891C40.6183 13.2818 40.7366 13.2745 40.8584 13.2669C42.1223 13.2206 42.1223 13.2206 42.6654 13.5363C42.9554 14.0748 42.9591 14.4269 42.873 15.0294C42.5221 15.4893 42.3163 15.6368 41.7656 15.8204C41.545 15.8309 41.324 15.8339 41.1031 15.8303C40.9041 15.827 40.7051 15.8238 40.5 15.8204C40.5092 15.9825 40.5184 16.1446 40.5278 16.3117C40.5352 16.5269 40.5424 16.7422 40.5494 16.9575C40.5561 17.064 40.5627 17.1706 40.5695 17.2804C40.5848 17.9054 40.5232 18.1641 40.1311 18.66C39.709 18.9845 39.709 18.9845 39.2344 19.0833C38.5733 18.9456 38.3762 18.7322 37.9687 18.1934C37.8534 17.6461 37.8616 17.1097 37.8693 16.5521C37.8687 16.3143 37.8687 16.3143 37.8681 16.0717C37.8683 15.7371 37.8704 15.4025 37.8743 15.068C37.8797 14.5565 37.8776 14.0454 37.8745 13.5339C37.8756 13.2084 37.8771 12.8829 37.8791 12.5575C37.8784 12.4048 37.8776 12.2522 37.8768 12.095C37.8884 11.4318 37.9153 11.0143 38.2364 10.4242C38.6818 10.0593 38.9005 10.0252 39.4717 10.0256Z" fill="black"/>
<path d="M47.0654 10.0256C47.315 10.0251 47.315 10.0251 47.5697 10.0247C47.7426 10.0284 47.9156 10.0322 48.0937 10.0361C48.2667 10.0344 48.4396 10.0326 48.6178 10.0308C49.8925 10.0426 49.8925 10.0426 50.3574 10.4273C50.7241 10.8803 50.7288 11.1573 50.693 11.7219C50.625 12.0235 50.625 12.0235 50.3383 12.419C49.5966 12.768 48.8999 12.7072 48.0937 12.6563C48.0937 12.8652 48.0937 13.074 48.0937 13.2891C48.212 13.2818 48.3303 13.2745 48.4522 13.2669C49.716 13.2206 49.716 13.2206 50.2592 13.5363C50.5491 14.0748 50.5529 14.4269 50.4668 15.0294C50.1158 15.4893 49.91 15.6368 49.3594 15.8204C49.1388 15.8309 48.9177 15.8339 48.6969 15.8303C48.4979 15.827 48.2988 15.8238 48.0937 15.8204C48.1029 15.9825 48.1121 16.1446 48.1216 16.3117C48.129 16.5269 48.1362 16.7422 48.1432 16.9575C48.1498 17.064 48.1564 17.1706 48.1633 17.2804C48.1785 17.9054 48.1169 18.1641 47.7248 18.66C47.3027 18.9845 47.3027 18.9845 46.8281 19.0833C46.1671 18.9456 45.97 18.7322 45.5625 18.1934C45.4472 17.6461 45.4553 17.1097 45.463 16.5521C45.4624 16.3143 45.4624 16.3143 45.4618 16.0717C45.462 15.7371 45.4641 15.4025 45.4681 15.068C45.4735 14.5565 45.4713 14.0454 45.4683 13.5339C45.4693 13.2084 45.4709 12.8829 45.4729 12.5575C45.4721 12.4048 45.4713 12.2522 45.4705 12.095C45.4821 11.4318 45.509 11.0143 45.8301 10.4242C46.2756 10.0593 46.4943 10.0252 47.0654 10.0256Z" fill="black"/>
<path d="M23.4932 41.3603C23.7835 41.3546 23.7835 41.3546 24.0796 41.3489C25.6575 41.3514 25.6575 41.3514 26.1523 41.8151C26.5047 42.3749 26.5262 42.698 26.4199 43.3477C26.072 43.8154 25.8846 43.964 25.3042 44.0624C25.1193 44.0631 24.9344 44.0638 24.744 44.0646C24.5419 44.0654 24.3398 44.0662 24.1315 44.067C23.9743 44.0651 23.9743 44.0651 23.814 44.063C23.4941 44.0596 23.1747 44.063 22.8548 44.067C22.6527 44.0662 22.4506 44.0654 22.2424 44.0646C22.0575 44.0639 21.8726 44.0631 21.6822 44.0624C21.1057 43.9647 20.9203 43.8037 20.5664 43.3477C20.4768 43.0313 20.4768 43.0313 20.4774 42.7149C20.474 42.6105 20.4705 42.5061 20.4669 42.3985C20.8736 41.1051 22.4276 41.3507 23.4932 41.3603Z" fill="black"/>
<path d="M22.2424 36.9356C22.5455 36.9344 22.5455 36.9344 22.8548 36.9331C22.9596 36.9344 23.0644 36.9358 23.1724 36.9371C23.4923 36.9405 23.8116 36.9372 24.1315 36.9331C24.3336 36.9339 24.5357 36.9347 24.744 36.9356C24.9288 36.9363 25.1137 36.937 25.3042 36.9377C25.8845 37.0361 26.0733 37.1834 26.4199 37.6524C26.4941 38.2462 26.504 38.6077 26.2123 39.1356C25.5147 39.8073 24.3355 39.593 23.4338 39.6003C23.2464 39.6049 23.059 39.6095 22.8659 39.6142C22.685 39.6155 22.5041 39.6169 22.3178 39.6182C22.07 39.6217 22.07 39.6217 21.8173 39.6252C21.2426 39.5323 20.9797 39.3196 20.5664 38.9181C20.4669 38.6017 20.4669 38.6017 20.4774 38.2852C20.4772 38.1808 20.477 38.0764 20.4768 37.9688C20.7349 37.0576 21.3889 36.9389 22.2424 36.9356Z" fill="black"/>
</g>
<defs>
<clipPath id="clip0_141_30">
<rect width="81" height="81" fill="white"/>
</clipPath>
</defs>
</svg>
