<svg width="84" height="84" viewBox="0 0 84 84" fill="none" xmlns="http://www.w3.org/2000/svg">
<g clip-path="url(#clip0_136_82)">
<path d="M8.5595 3.42368C8.67675 3.42334 8.794 3.423 8.9148 3.42265C9.30874 3.42172 9.70267 3.42196 10.0966 3.4222C10.3815 3.42177 10.6664 3.42128 10.9513 3.42072C11.735 3.41939 12.5187 3.4191 13.3024 3.41898C14.1474 3.41868 14.9923 3.41744 15.8373 3.41633C17.6854 3.4141 19.5335 3.41312 21.3816 3.41239C22.5356 3.41194 23.6896 3.41125 24.8436 3.41051C28.0389 3.40851 31.2341 3.40682 34.4293 3.40626C34.7361 3.40621 34.7361 3.40621 35.0491 3.40615C35.2541 3.40612 35.4591 3.40608 35.6703 3.40604C36.0858 3.40597 36.5012 3.4059 36.9166 3.40582C37.1227 3.40579 37.3288 3.40575 37.5411 3.40571C40.8795 3.40507 44.2179 3.4022 47.5562 3.39838C50.9838 3.39449 54.4114 3.39245 57.839 3.39226C59.7634 3.39211 61.6878 3.39116 63.6122 3.38818C65.251 3.38566 66.8899 3.38482 68.5288 3.38617C69.3647 3.38681 70.2006 3.38666 71.0365 3.38436C71.8025 3.38227 72.5685 3.38247 73.3345 3.38445C73.6109 3.38478 73.8872 3.38427 74.1636 3.38284C77.1157 3.36851 79.4597 3.91787 81.6557 6.00231C82.7396 7.14537 83.3885 8.33769 83.8359 9.84367C83.865 9.9384 83.8941 10.0331 83.924 10.1307C84.0231 10.6122 84.0212 11.0668 84.022 11.5586C84.0224 11.6651 84.0228 11.7716 84.0232 11.8813C84.0243 12.2396 84.0242 12.5979 84.0241 12.9562C84.0247 13.2151 84.0253 13.474 84.0259 13.7329C84.0276 14.4456 84.0282 15.1583 84.0286 15.871C84.0293 16.6393 84.0309 17.4075 84.0323 18.1757C84.0355 20.0318 84.0372 21.8879 84.0386 23.744C84.0394 24.6182 84.0402 25.4924 84.0411 26.3666C84.0439 29.273 84.0463 32.1794 84.0475 35.0859C84.0478 35.8402 84.0481 36.5945 84.0484 37.3488C84.0485 37.5363 84.0486 37.7237 84.0486 37.9169C84.05 40.9528 84.0542 43.9887 84.0595 47.0246C84.0649 50.142 84.0679 53.2594 84.0684 56.3769C84.0687 58.127 84.0702 59.877 84.0744 61.6271C84.0779 63.1179 84.0793 64.6086 84.0777 66.0993C84.0769 66.8595 84.0772 67.6197 84.0804 68.3799C84.0833 69.0769 84.0831 69.7739 84.0806 70.4709C84.0802 70.722 84.0809 70.9731 84.0829 71.2241C84.1026 73.9291 83.4473 76.1422 81.5698 78.1449C79.8939 79.7209 77.729 80.5739 75.4405 80.5762C75.3232 80.5765 75.206 80.5768 75.0852 80.5772C74.6912 80.5781 74.2973 80.5779 73.9034 80.5777C73.6185 80.5781 73.3336 80.5786 73.0487 80.5791C72.265 80.5805 71.4813 80.5807 70.6975 80.5809C69.8526 80.5812 69.0076 80.5824 68.1627 80.5835C66.3146 80.5857 64.4665 80.5867 62.6184 80.5875C61.4644 80.5879 60.3104 80.5886 59.1563 80.5893C55.9611 80.5913 52.7659 80.593 49.5707 80.5936C49.2639 80.5936 49.2639 80.5936 48.9509 80.5937C48.6434 80.5938 48.6434 80.5938 48.3296 80.5938C47.9142 80.5939 47.4988 80.594 47.0833 80.594C46.8772 80.5941 46.6712 80.5941 46.4589 80.5941C43.1205 80.5948 39.7821 80.5976 36.4437 80.6015C33.0162 80.6054 29.5886 80.6074 26.161 80.6076C24.2366 80.6077 22.3122 80.6087 20.3878 80.6117C18.7489 80.6142 17.1101 80.615 15.4712 80.6137C14.6353 80.613 13.7994 80.6132 12.9635 80.6155C12.1975 80.6176 11.4315 80.6174 10.6654 80.6154C10.3891 80.6151 10.1127 80.6156 9.83638 80.617C6.88662 80.6313 4.53404 80.0847 2.34365 77.995C0.377613 75.9315 -0.126802 73.5901 -0.10197 70.8233C-0.102682 70.5625 -0.103752 70.3017 -0.105146 70.0408C-0.10791 69.3312 -0.105624 68.6217 -0.102437 67.9121C-0.0998898 67.1442 -0.102108 66.3762 -0.103707 65.6082C-0.106082 64.1068 -0.104092 62.6054 -0.100572 61.104C-0.0966206 59.3542 -0.0969142 57.6044 -0.0973403 55.8546C-0.0979448 52.7324 -0.0945362 49.6101 -0.088932 46.4879C-0.0834997 43.4603 -0.0811794 40.4326 -0.0822029 37.405C-0.0833131 34.1044 -0.082908 30.8039 -0.0796832 27.5033C-0.0795127 27.3287 -0.079342 27.1541 -0.0791663 26.9742C-0.0788232 26.6236 -0.078477 26.273 -0.0781273 25.9224C-0.0769973 24.7035 -0.0768858 23.4845 -0.0771235 22.2655C-0.0773599 20.7801 -0.0757661 19.2948 -0.0718826 17.8094C-0.0699397 17.052 -0.0687656 16.2945 -0.0697228 15.537C-0.0705738 14.8431 -0.0691375 14.1493 -0.0659045 13.4554C-0.0651295 13.2049 -0.065173 12.9545 -0.0661361 12.704C-0.0708366 11.3504 -0.00329237 10.1341 0.492176 8.8593C0.573387 8.6366 0.573387 8.6366 0.656238 8.40941C1.68724 6.21048 3.46992 4.73534 5.71141 3.88616C6.67892 3.54746 7.53218 3.42468 8.5595 3.42368ZM4.59374 9.18742C2.82692 11.73 3.60936 13.9077 3.60936 17.3905C28.9472 17.3905 54.285 17.3905 80.3906 17.3905C80.8215 12.5798 80.8215 12.5798 78.9121 8.66576C77.6712 7.52965 76.4635 7.01432 74.7639 7.0124C74.6484 7.01183 74.533 7.01125 74.414 7.01066C74.0281 7.00914 73.6423 7.00994 73.2564 7.01074C72.9765 7.01012 72.6966 7.00937 72.4168 7.00849C71.6484 7.00648 70.8801 7.00652 70.1118 7.00691C69.2828 7.00698 68.4539 7.00516 67.6249 7.00361C66.0011 7.00088 64.3773 6.99998 62.7535 6.9998C61.4335 6.99964 60.1135 6.99897 58.7936 6.99793C55.0509 6.99504 51.3082 6.99352 47.5655 6.99377C47.3637 6.99378 47.1619 6.9938 46.9541 6.99381C46.6511 6.99383 46.6511 6.99383 46.3419 6.99385C43.0682 6.99398 39.7944 6.99084 36.5207 6.98622C33.1589 6.9815 29.7971 6.97924 26.4354 6.97952C24.5481 6.97963 22.6609 6.97873 20.7736 6.9752C19.1667 6.97221 17.5599 6.9715 15.953 6.97372C15.1334 6.9748 14.3138 6.97481 13.4942 6.97197C12.7433 6.96939 11.9924 6.96986 11.2415 6.97272C10.9704 6.97322 10.6994 6.97263 10.4283 6.97079C8.03079 6.95567 6.24716 7.32249 4.59374 9.18742ZM3.60936 20.9999C3.59583 29.4932 3.58229 37.9865 3.56835 46.7372C3.56237 49.4203 3.5564 52.1034 3.55024 54.8679C3.54805 57.2702 3.54805 57.2702 3.54673 59.6725C3.54612 60.7436 3.54371 61.8147 3.54008 62.8859C3.5359 64.1215 3.534 65.357 3.53491 66.5926C3.53531 67.2246 3.53469 67.8565 3.53113 68.4884C3.52734 69.1657 3.52865 69.843 3.53045 70.5204C3.52853 70.7166 3.52662 70.9128 3.52465 71.115C3.53659 72.7902 3.92218 74.101 5.08785 75.3341C6.32879 76.4702 7.53646 76.9855 9.23608 76.9874C9.35155 76.988 9.46701 76.9886 9.58597 76.9892C9.97185 76.9907 10.3577 76.9899 10.7436 76.9891C11.0235 76.9897 11.3033 76.9905 11.5832 76.9914C12.3515 76.9934 13.1199 76.9933 13.8882 76.9929C14.7172 76.9929 15.5461 76.9947 16.375 76.9962C17.9989 76.999 19.6227 76.9999 21.2465 77.0001C22.5665 77.0002 23.8864 77.0009 25.2064 77.0019C28.9491 77.0048 32.6918 77.0063 36.4345 77.0061C36.6363 77.0061 36.838 77.0061 37.0459 77.006C37.2479 77.006 37.4499 77.006 37.658 77.006C40.9318 77.0059 44.2055 77.009 47.4793 77.0136C50.8411 77.0183 54.2028 77.0206 57.5646 77.0203C59.4519 77.0202 61.3391 77.0211 63.2264 77.0247C64.8332 77.0276 66.4401 77.0284 68.0469 77.0261C68.8666 77.0251 69.6861 77.025 70.5058 77.0279C71.2567 77.0305 72.0076 77.03 72.7585 77.0271C73.0296 77.0266 73.3006 77.0272 73.5716 77.0291C75.7514 77.0428 77.4263 76.7785 79.0506 75.2136C79.9632 74.1842 80.4113 73.1621 80.4108 71.7918C80.4111 71.6104 80.4114 71.429 80.4118 71.2421C80.4113 71.043 80.4108 70.8439 80.4103 70.6387C80.4105 70.4277 80.4106 70.2166 80.4108 69.9991C80.4111 69.4116 80.4105 68.8241 80.4096 68.2366C80.4089 67.5939 80.4092 66.9512 80.4093 66.3085C80.4094 65.0604 80.4086 63.8123 80.4076 62.5642C80.4064 61.1208 80.4063 59.6774 80.4061 58.234C80.4053 54.4223 80.403 50.6105 80.4009 46.7988C80.3975 38.2851 80.3941 29.7715 80.3906 20.9999C55.0528 20.9999 29.715 20.9999 3.60936 20.9999Z" fill="black"/>
<path d="M35.7804 29.6171C36.7987 30.5307 37.645 32.0659 37.7792 33.4335C37.8195 34.7322 37.6615 35.6701 36.9141 36.75C36.7263 36.9073 36.7263 36.9073 36.5347 37.0678C36.1074 37.59 36.1398 38.0887 36.1591 38.7475C36.3025 39.4208 36.6454 39.7739 37.139 40.2356C37.6769 40.8148 37.6049 41.5361 37.5959 42.2871C37.5633 42.9664 37.5056 43.6408 37.437 44.3173C37.4198 44.5023 37.4198 44.5023 37.4022 44.691C37.2833 45.7735 37.0517 46.7238 36.3398 47.5781C35.9297 47.9062 35.9297 47.9062 35.4375 47.9062C35.4104 48.0957 35.3834 48.2852 35.3555 48.4804C35.0288 49.9505 34.2541 51.5986 33.2022 52.6845C33.0736 52.8402 32.945 52.9958 32.8125 53.1562C32.8433 53.6713 32.8433 53.6713 33.1406 54.1406C33.5893 54.3369 33.9491 54.4519 34.4198 54.5552C34.613 54.6037 34.613 54.6037 34.8102 54.6531C35.2235 54.7563 35.6379 54.8539 36.0527 54.9506C38.8051 55.6031 41.1188 56.3127 43.1484 58.4062C43.2423 58.4986 43.3362 58.591 43.433 58.6863C44.9065 60.2471 45.5957 62.4459 45.6709 64.5585C45.6469 65.2018 45.554 65.6201 45.1172 66.1171C44.3778 66.6937 43.7394 66.6787 42.8419 66.6707C42.622 66.6717 42.622 66.6717 42.3977 66.6727C41.9063 66.6743 41.4151 66.6723 40.9237 66.6704C40.5715 66.6708 40.2193 66.6714 39.867 66.6722C38.9101 66.6738 37.9532 66.6722 36.9963 66.67C35.9951 66.6682 34.9939 66.6689 33.9926 66.6692C32.3108 66.6693 30.6291 66.6675 28.9473 66.6645C27.0031 66.661 25.0591 66.6604 23.1149 66.6615C21.245 66.6624 19.375 66.6615 17.505 66.6596C16.7092 66.6589 15.9134 66.6587 15.1176 66.6591C14.1801 66.6594 13.2426 66.658 12.3051 66.6554C11.9611 66.6547 11.6171 66.6546 11.2731 66.6551C10.8033 66.6556 10.3336 66.6541 9.86381 66.6521C9.72791 66.6527 9.59201 66.6533 9.452 66.654C8.64939 66.6479 7.97081 66.5739 7.21875 66.2812C6.50121 64.7525 6.9217 62.9062 7.38282 61.3593C8.34677 58.9469 9.81435 57.2725 12.1406 56.1093C13.3497 55.622 14.6054 55.3277 15.8692 55.0192C16.1591 54.9463 16.1591 54.9463 16.4548 54.8719C16.8419 54.7751 17.2299 54.6822 17.6189 54.5936C18.6417 54.3715 18.6417 54.3715 19.3549 53.6708C19.3607 53.0045 19.1838 52.7516 18.7954 52.2128C18.1178 51.2293 17.7061 50.2246 17.3557 49.0843C17.0567 48.2096 16.7025 47.8456 15.8839 47.4134C15.4063 47.1514 15.1666 46.8254 15.0052 46.3119C14.8263 45.4247 14.8429 44.5015 14.8066 43.5996C14.7954 43.3866 14.7842 43.1736 14.7727 42.9542C14.7266 41.7941 14.7096 40.9027 15.2578 39.8671C15.4031 39.7223 15.5484 39.5774 15.6981 39.4281C16.3615 38.6917 16.135 37.6427 16.0884 36.7192C15.996 34.7934 16.1726 33.1666 17.4316 31.6275C18.9538 30.0816 20.8966 29.6883 22.9609 29.4023C23.9199 29.26 24.7103 28.9875 25.5925 28.5808C28.8192 27.2859 32.9514 27.5548 35.7804 29.6171ZM25.5938 32.8125C25.2476 32.8694 25.2476 32.8694 24.8497 32.8932C24.7041 32.9035 24.5585 32.9139 24.4084 32.9245C24.178 32.9401 24.178 32.9401 23.9429 32.956C21.8296 33.1117 21.8296 33.1117 20.0874 34.2172C19.4034 35.377 19.6217 36.9018 19.8144 38.1874C20.0546 40.5608 20.0546 40.5608 19.6875 41.5078C19.2979 41.7026 19.2979 41.7026 18.8672 41.8359C18.7048 41.89 18.5423 41.9442 18.375 42C18.4822 43.4613 18.4822 43.4613 19.0313 44.789C19.516 45.012 19.9779 45.0827 20.5078 45.1171C20.5338 45.2601 20.5598 45.4031 20.5866 45.5504C20.9946 47.6327 21.5984 49.2335 22.9688 50.8593C23.624 51.8422 23.3932 53.2236 23.1726 54.3489C23.1203 54.5807 23.0661 54.8121 23.0098 55.0429C22.984 55.1508 22.9583 55.2587 22.9318 55.3699C22.7341 56.1128 22.4799 56.6701 21.9844 57.2578C21.523 57.4697 21.0515 57.5565 20.554 57.6481C20.4139 57.6775 20.2738 57.7069 20.1295 57.7373C19.6821 57.8308 19.2338 57.9189 18.7852 58.0063C14.4594 58.8576 14.4594 58.8576 11.1877 61.6727C10.9273 62.1034 10.9273 62.1034 10.6641 63C20.8425 63 31.0209 63 41.5078 63C41.275 61.6028 40.7246 60.7535 39.5801 59.9135C37.8313 58.709 35.7283 58.4112 33.6918 57.996C33.3003 57.9157 32.9093 57.8329 32.5183 57.75C32.4002 57.7267 32.2821 57.7034 32.1604 57.6795C31.3422 57.5047 30.7191 57.2367 30.0234 56.7656C29.8003 56.3169 29.6635 55.9777 29.5415 55.5043C29.5089 55.3867 29.4762 55.2691 29.4426 55.148C28.9295 53.2039 28.9295 53.2039 29.3909 52.2936C29.7119 51.7938 30.0693 51.3331 30.4432 50.8721C31.4249 49.6381 31.9648 48.335 32.1563 46.768C32.2436 46.0858 32.2873 45.8189 32.6997 45.2504C33.1406 44.9531 33.1406 44.9531 33.9609 44.625C34.0151 43.7587 34.0692 42.8925 34.125 42C33.5565 41.7563 33.5565 41.7563 32.9766 41.5078C32.457 40.7285 32.6059 39.9622 32.6484 39.0468C32.6572 38.8528 32.6572 38.8528 32.6662 38.6549C32.6887 38.2244 32.7188 37.795 32.751 37.3652C32.7583 37.2275 32.7657 37.0899 32.7732 36.948C32.8563 35.9969 33.1174 35.4573 33.7515 34.742C34.0171 34.4322 34.0171 34.4322 33.9814 33.8584C33.6945 32.9976 33.3618 32.4006 32.5664 31.9409C30.365 30.9701 27.5386 31.5159 25.5938 32.8125Z" fill="black"/>
<path d="M50.9055 52.4747C51.0658 52.4737 51.0658 52.4737 51.2294 52.4726C51.5892 52.4704 51.9491 52.4693 52.3089 52.4683C52.5662 52.467 52.8236 52.4657 53.0809 52.4643C53.9274 52.46 54.7739 52.4575 55.6204 52.4551C55.9116 52.4542 56.2028 52.4534 56.494 52.4525C57.705 52.4489 58.9161 52.4459 60.1272 52.444C61.8639 52.4413 63.6006 52.4359 65.3374 52.4266C66.5579 52.4202 67.7785 52.417 68.999 52.4161C69.7284 52.4155 70.4576 52.4136 71.1869 52.4082C71.873 52.4033 72.559 52.4023 73.2452 52.4042C73.497 52.4042 73.7488 52.4029 74.0005 52.4C74.3445 52.3963 74.6881 52.3976 75.032 52.4002C75.2244 52.3997 75.4168 52.3991 75.615 52.3986C76.2776 52.5303 76.5204 52.8081 76.9453 53.3203C77.1967 53.823 77.147 54.2418 77.1094 54.7969C76.81 55.4901 76.4663 55.7777 75.7969 56.1094C75.2985 56.1713 75.2985 56.1713 74.7321 56.1719C74.4092 56.1739 74.4092 56.1739 74.0797 56.1761C73.8423 56.1751 73.6048 56.1741 73.3673 56.173C73.1164 56.1737 72.8655 56.1746 72.6145 56.1757C71.9339 56.1779 71.2532 56.177 70.5726 56.1755C69.86 56.1742 69.1475 56.1754 68.4349 56.1762C67.2384 56.1771 66.0418 56.1759 64.8452 56.1735C63.4621 56.1708 62.0791 56.1717 60.696 56.1744C59.5081 56.1767 58.3203 56.177 57.1325 56.1757C56.4232 56.1749 55.7139 56.1748 55.0046 56.1764C54.3378 56.1779 53.671 56.1769 53.0041 56.174C52.7595 56.1734 52.5148 56.1736 52.2702 56.1747C51.9361 56.176 51.602 56.174 51.2679 56.1719C51.081 56.1717 50.8941 56.1715 50.7015 56.1713C49.9728 56.0807 49.5428 55.8158 49.0854 55.248C48.8332 54.6638 48.813 54.2802 48.8906 53.6484C49.4657 52.6132 49.7576 52.4802 50.9055 52.4747Z" fill="black"/>
<path d="M50.9055 41.9747C51.0658 41.9737 51.0658 41.9737 51.2294 41.9726C51.5892 41.9704 51.9491 41.9693 52.3089 41.9683C52.5662 41.967 52.8236 41.9657 53.0809 41.9643C53.9274 41.96 54.7739 41.9575 55.6204 41.9551C55.9116 41.9542 56.2028 41.9534 56.494 41.9525C57.705 41.9489 58.9161 41.9459 60.1272 41.944C61.8639 41.9413 63.6006 41.9359 65.3374 41.9266C66.5579 41.9202 67.7785 41.917 68.999 41.9161C69.7284 41.9155 70.4576 41.9136 71.1869 41.9082C71.873 41.9033 72.559 41.9023 73.2452 41.9042C73.497 41.9042 73.7488 41.9029 74.0005 41.9C74.3445 41.8963 74.6881 41.8976 75.032 41.9002C75.2244 41.8997 75.4168 41.8991 75.615 41.8986C76.2776 42.0303 76.5204 42.3081 76.9453 42.8203C77.1967 43.323 77.147 43.7418 77.1094 44.2969C76.81 44.9901 76.4663 45.2777 75.7969 45.6094C75.2985 45.6713 75.2985 45.6713 74.7321 45.6719C74.4092 45.6739 74.4092 45.6739 74.0797 45.6761C73.8423 45.6751 73.6048 45.6741 73.3673 45.673C73.1164 45.6737 72.8655 45.6746 72.6145 45.6757C71.9339 45.6779 71.2532 45.677 70.5726 45.6755C69.86 45.6742 69.1475 45.6754 68.4349 45.6762C67.2384 45.6771 66.0418 45.6759 64.8452 45.6735C63.4621 45.6708 62.0791 45.6717 60.696 45.6744C59.5081 45.6767 58.3203 45.677 57.1325 45.6757C56.4232 45.6749 55.7139 45.6748 55.0046 45.6764C54.3378 45.6779 53.671 45.6769 53.0041 45.674C52.7595 45.6734 52.5148 45.6736 52.2702 45.6747C51.9361 45.676 51.602 45.674 51.2679 45.6719C51.081 45.6717 50.8941 45.6715 50.7015 45.6713C49.9728 45.5807 49.5428 45.3158 49.0854 44.748C48.8332 44.1638 48.813 43.7802 48.8906 43.1484C49.4657 42.1132 49.7576 41.9802 50.9055 41.9747Z" fill="black"/>
<path d="M50.9055 31.4747C51.0658 31.4737 51.0658 31.4737 51.2294 31.4726C51.5892 31.4704 51.9491 31.4693 52.3089 31.4683C52.5662 31.467 52.8236 31.4657 53.0809 31.4643C53.9274 31.46 54.7739 31.4575 55.6204 31.4551C55.9116 31.4542 56.2028 31.4534 56.494 31.4525C57.705 31.4489 58.9161 31.4459 60.1272 31.444C61.8639 31.4413 63.6006 31.4359 65.3374 31.4266C66.5579 31.4202 67.7785 31.417 68.999 31.4161C69.7284 31.4155 70.4576 31.4136 71.1869 31.4082C71.873 31.4033 72.559 31.4023 73.2452 31.4042C73.497 31.4042 73.7488 31.4029 74.0005 31.4C74.3445 31.3963 74.6881 31.3976 75.032 31.4002C75.2244 31.3997 75.4168 31.3991 75.615 31.3986C76.2785 31.5305 76.5227 31.8046 76.9453 32.3203C77.1855 32.9946 77.1846 33.6046 76.9248 34.2685C76.4484 34.8085 76.0201 35.0816 75.2985 35.1713C75.1116 35.1715 74.9247 35.1717 74.7321 35.1719C74.4092 35.1739 74.4092 35.1739 74.0797 35.1761C73.8423 35.1751 73.6048 35.1741 73.3673 35.173C73.1164 35.1737 72.8655 35.1746 72.6145 35.1757C71.9339 35.1779 71.2532 35.177 70.5726 35.1755C69.86 35.1742 69.1475 35.1754 68.4349 35.1762C67.2384 35.1771 66.0418 35.1759 64.8452 35.1735C63.4621 35.1708 62.0791 35.1717 60.696 35.1744C59.5081 35.1767 58.3203 35.177 57.1325 35.1757C56.4232 35.1749 55.7139 35.1748 55.0046 35.1764C54.3378 35.1779 53.671 35.1769 53.0041 35.174C52.7595 35.1734 52.5148 35.1736 52.2702 35.1747C51.9361 35.176 51.602 35.174 51.2679 35.1719C51.081 35.1717 50.8941 35.1715 50.7015 35.1713C49.9728 35.0807 49.5428 34.8158 49.0854 34.248C48.8332 33.6638 48.813 33.2802 48.8906 32.6484C49.4657 31.6132 49.7576 31.4802 50.9055 31.4747Z" fill="black"/>
<path d="M51.345 62.9682C51.4974 62.9669 51.6497 62.9656 51.8067 62.9642C52.3123 62.9601 52.8179 62.9574 53.3235 62.955C53.496 62.9541 53.6684 62.9533 53.8461 62.9524C54.7586 62.948 55.6712 62.9448 56.5838 62.9424C57.5273 62.9397 58.4706 62.9324 59.414 62.924C60.1387 62.9185 60.8634 62.9166 61.5881 62.9157C61.9359 62.9146 62.2837 62.9121 62.6315 62.9081C63.1181 62.903 63.6046 62.9029 64.0913 62.9042C64.2351 62.9015 64.3789 62.8988 64.5271 62.896C65.2532 62.9034 65.5343 62.9275 66.1208 63.3955C66.6331 64.0659 66.6668 64.4494 66.6094 65.2968C66.31 65.99 65.9749 66.2907 65.2969 66.6093C64.808 66.68 64.3245 66.6765 63.8312 66.6729C63.6122 66.6742 63.6122 66.6742 63.3887 66.6756C62.9071 66.6777 62.4255 66.6763 61.9438 66.6746C61.6086 66.675 61.2733 66.6754 60.938 66.6761C60.2358 66.6768 59.5336 66.6757 58.8313 66.6734C57.9315 66.6706 57.0317 66.6722 56.1319 66.6752C55.4397 66.677 54.7476 66.6764 54.0554 66.6751C53.7236 66.6748 53.3918 66.6752 53.0601 66.6763C52.5963 66.6776 52.1326 66.6757 51.6688 66.6729C51.5319 66.6739 51.395 66.6749 51.2539 66.676C50.4938 66.6677 50.0027 66.6047 49.3828 66.1171C48.9993 65.641 48.8964 65.3422 48.8188 64.7328C48.9034 64.0442 49.1138 63.6989 49.5469 63.1639C50.1023 62.8862 50.7338 62.9712 51.345 62.9682Z" fill="black"/>
<path d="M9.67969 10.5C10.2026 10.7974 10.2026 10.7974 10.5 11.3203C10.6558 12.1935 10.655 12.875 10.1821 13.6377C9.5238 14.0408 8.97198 14.1569 8.20313 14.1094C7.66698 13.8996 7.4441 13.6933 7.08545 13.2481C6.83316 12.6638 6.81304 12.2802 6.89063 11.6485C7.5916 10.3867 8.30485 10.3356 9.67969 10.5Z" fill="black"/>
<path d="M23.625 10.4999C24.1654 10.835 24.3718 11.0628 24.5466 11.6746C24.6463 12.284 24.6517 12.6887 24.4248 13.2685C24.055 13.6876 23.8219 13.9038 23.2969 14.1093C22.528 14.1568 21.9762 14.0407 21.3179 13.6376C20.845 12.8749 20.8442 12.1934 21 11.3202C21.5852 10.2911 22.5519 10.3049 23.625 10.4999Z" fill="black"/>
<path d="M16.5703 10.5001C17.0517 10.7948 17.304 10.9831 17.5547 11.4845C17.6585 12.2259 17.6815 12.9057 17.2368 13.5352C16.5857 14.0668 16.0884 14.1738 15.2578 14.1095C14.7171 13.9227 14.3913 13.8077 14.0869 13.3161C13.8457 12.7113 13.8496 12.1239 13.9453 11.4845C14.6196 10.4057 15.3693 10.3585 16.5703 10.5001Z" fill="black"/>
</g>
<defs>
<clipPath id="clip0_136_82">
<rect width="84" height="84" fill="white"/>
</clipPath>
</defs>
</svg>
