<svg width="88" height="75" viewBox="0 0 88 75" fill="none" xmlns="http://www.w3.org/2000/svg">
<g clip-path="url(#clip0_135_21)">
<path d="M17.1419 -0.019967C17.283 -0.0205496 17.283 -0.0205496 17.4269 -0.0211441C17.7442 -0.0222722 18.0615 -0.0223529 18.3788 -0.0224405C18.6078 -0.0230285 18.8367 -0.0236786 19.0657 -0.0243857C19.6965 -0.0261402 20.3273 -0.0269663 20.9582 -0.0276349C21.6379 -0.0285067 22.3176 -0.0302076 22.9974 -0.031779C24.6399 -0.035373 26.2824 -0.0375144 27.9249 -0.039405C28.3887 -0.0399487 28.8526 -0.0405307 29.3164 -0.0411266C32.1963 -0.0448234 35.0761 -0.0480542 37.9559 -0.0498758C38.6231 -0.050305 39.2904 -0.0507388 39.9576 -0.0511803C40.1234 -0.0512896 40.2892 -0.0513989 40.4601 -0.0515115C43.1464 -0.053365 45.8327 -0.0582314 48.5191 -0.0643349C51.2765 -0.0705486 54.0339 -0.0740011 56.7913 -0.0747665C58.3397 -0.0752667 59.8881 -0.0769889 61.4365 -0.0818128C62.7553 -0.0859145 64.074 -0.0875257 65.3928 -0.0858858C66.0655 -0.085126 66.7382 -0.0855489 67.411 -0.0891766C68.0274 -0.0924726 68.6436 -0.0923621 69.26 -0.0895862C69.4825 -0.0891762 69.705 -0.0899952 69.9275 -0.0921955C71.2291 -0.104276 72.237 0.00957908 73.3515 0.732525C73.4845 0.814099 73.6174 0.895672 73.7544 0.979718C74.5469 1.79422 75.1254 2.79798 75.1309 3.94357C75.1325 4.1666 75.1325 4.1666 75.1341 4.39413C75.1345 4.55713 75.1349 4.72014 75.1353 4.88809C75.1362 5.05986 75.1372 5.23162 75.1382 5.40859C75.1411 5.97812 75.1428 6.54765 75.1443 7.11718C75.1448 7.31338 75.1455 7.50957 75.1461 7.70576C75.1489 8.62735 75.1509 9.54893 75.1522 10.4705C75.1536 11.534 75.1575 12.5974 75.1634 13.6609C75.1678 14.4832 75.17 15.3055 75.1704 16.1278C75.1708 16.6189 75.1721 17.1098 75.1758 17.6008C75.1793 18.1486 75.1792 18.6963 75.1782 19.2441C75.181 19.4878 75.181 19.4878 75.1839 19.7363C75.1764 20.836 75.1764 20.836 74.8304 21.4109C74.3475 21.8339 74.0009 21.875 73.3573 21.8692C72.8928 21.8025 72.6456 21.5695 72.3261 21.2403C72.1521 20.8922 72.1603 20.6791 72.1585 20.2906C72.1575 20.1524 72.1564 20.0142 72.1554 19.8718C72.1548 19.6437 72.1548 19.6437 72.1542 19.4109C72.1533 19.251 72.1523 19.0912 72.1513 18.9265C72.1492 18.5784 72.1475 18.2303 72.146 17.8822C72.1436 17.3312 72.1402 16.7802 72.1365 16.2292C72.1261 14.6621 72.1173 13.0951 72.1098 11.528C72.1052 10.5703 72.0991 9.61253 72.0922 8.65481C72.0899 8.28974 72.0881 7.92467 72.0868 7.55959C72.085 7.04834 72.0815 6.53712 72.0776 6.02588C72.0774 5.79993 72.0774 5.79993 72.0773 5.56942C72.0758 4.43436 72.0758 4.43436 71.7402 3.36924C71.0694 3.12307 70.4697 3.03962 69.7588 3.03941C69.5716 3.03864 69.3845 3.03788 69.1917 3.03709C68.9858 3.03773 68.78 3.03839 68.5742 3.03907C68.3541 3.03874 68.134 3.03827 67.9139 3.03769C67.3103 3.03647 66.7066 3.03707 66.103 3.03798C65.4515 3.03864 64.8001 3.03762 64.1486 3.03681C62.8729 3.03551 61.5972 3.03579 60.3214 3.03664C59.2846 3.0373 58.2478 3.03739 57.211 3.03707C56.9897 3.037 56.9897 3.037 56.7639 3.03694C56.4642 3.03684 56.1644 3.03675 55.8647 3.03665C53.0539 3.03582 50.2431 3.03678 47.4323 3.03835C45.0203 3.03966 42.6084 3.03943 40.1964 3.03808C37.3957 3.03651 34.5949 3.0359 31.7942 3.0368C31.4956 3.03689 31.1969 3.03698 30.8983 3.03707C30.7514 3.03712 30.6044 3.03716 30.453 3.03721C29.4174 3.03746 28.3819 3.03703 27.3463 3.03635C26.0843 3.03552 24.8223 3.03575 23.5603 3.03731C22.9164 3.03808 22.2725 3.03838 21.6286 3.03741C21.0391 3.03654 20.4497 3.03702 19.8602 3.03857C19.647 3.0389 19.4338 3.03874 19.2206 3.03802C18.9306 3.03713 18.6406 3.03822 18.3505 3.03941C18.1895 3.03946 18.0285 3.0395 17.8626 3.03955C17.3093 3.08296 16.8794 3.14375 16.3691 3.36924C16.0482 4.07592 16.0342 4.78669 16.0393 5.55198C16.0389 5.66465 16.0384 5.77731 16.038 5.89339C16.0369 6.27049 16.0379 6.64756 16.0389 7.02467C16.0386 7.29793 16.0381 7.57119 16.0376 7.84445C16.0363 8.59507 16.0369 9.34567 16.0379 10.0963C16.0385 10.9059 16.0375 11.7155 16.0367 12.5251C16.0354 14.1111 16.0357 15.697 16.0365 17.2829C16.0372 18.5717 16.0373 19.8604 16.0369 21.1492C16.0369 21.3325 16.0369 21.5158 16.0368 21.7047C16.0367 22.0771 16.0366 22.4495 16.0365 22.8219C16.0357 26.2155 16.0366 29.6091 16.0381 33.0027C16.0395 36.1005 16.0394 39.1983 16.038 42.2962C16.0364 45.7767 16.0358 49.2573 16.0367 52.7379C16.0368 53.1089 16.0369 53.48 16.0369 53.851C16.037 54.0336 16.037 54.2161 16.0371 54.4042C16.0373 55.6917 16.0369 56.9791 16.0362 58.2665C16.0354 59.8351 16.0356 61.4038 16.0372 62.9724C16.038 63.7729 16.0383 64.5735 16.0373 65.374C16.0364 66.1066 16.0369 66.8392 16.0385 67.5718C16.0388 67.8371 16.0386 68.1023 16.0379 68.3676C16.037 68.7278 16.0379 69.088 16.0393 69.4482C16.0386 69.5515 16.0379 69.6547 16.0372 69.7611C16.0423 70.4317 16.0904 71.0171 16.3691 71.631C17.0247 71.9207 17.6402 71.9606 18.3505 71.9608C18.5377 71.9616 18.7248 71.9623 18.9176 71.9631C19.1235 71.9625 19.3293 71.9618 19.5352 71.9611C19.7553 71.9615 19.9753 71.9619 20.1954 71.9625C20.7991 71.9637 21.4027 71.9631 22.0064 71.9622C22.6578 71.9616 23.3092 71.9626 23.9607 71.9634C25.2364 71.9647 26.5122 71.9644 27.7879 71.9636C28.8247 71.9629 29.8615 71.9628 30.8983 71.9631C31.1196 71.9632 31.1196 71.9632 31.3454 71.9633C31.6451 71.9634 31.9449 71.9635 32.2446 71.9636C35.0554 71.9644 37.8663 71.9634 40.6771 71.9619C43.089 71.9605 45.501 71.9608 47.9129 71.9621C50.7136 71.9637 53.5144 71.9643 56.3151 71.9634C56.6138 71.9633 56.9124 71.9632 57.211 71.9631C57.358 71.9631 57.5049 71.963 57.6563 71.963C58.6919 71.9627 59.7275 71.9632 60.763 71.9639C62.025 71.9647 63.287 71.9645 64.549 71.9629C65.1929 71.9621 65.8368 71.9618 66.4807 71.9628C67.0702 71.9637 67.6596 71.9632 68.2491 71.9616C68.4623 71.9613 68.6755 71.9615 68.8888 71.9622C69.1788 71.9631 69.4688 71.962 69.7588 71.9608C69.9198 71.9608 70.0808 71.9607 70.2468 71.9607C70.7822 71.9186 71.2365 71.8178 71.7402 71.631C72.0603 70.9255 72.0751 70.216 72.0706 69.4519C72.0711 69.3415 72.0717 69.2311 72.0722 69.1173C72.0732 68.8794 72.0736 68.6415 72.0734 68.4035C72.0732 68.0266 72.0751 67.6498 72.0776 67.2729C72.0844 66.2021 72.088 65.1312 72.089 64.0603C72.0897 63.4038 72.0933 62.7473 72.0985 62.0907C72.1 61.8411 72.1003 61.5915 72.0995 61.3419C72.0985 60.993 72.101 60.6444 72.1043 60.2955C72.1026 60.1416 72.1026 60.1416 72.1007 59.9846C72.1125 59.2887 72.2746 58.9368 72.7656 58.4474C73.2346 58.2129 73.7215 58.2278 74.2304 58.3009C74.6421 58.5636 74.891 58.7431 75.1094 59.1798C75.1268 59.5698 75.1355 59.9561 75.1376 60.3462C75.1388 60.4668 75.14 60.5874 75.1412 60.7116C75.1449 61.1119 75.1473 61.5123 75.1494 61.9126C75.1502 62.0495 75.151 62.1864 75.1518 62.3274C75.1557 63.0529 75.1585 63.7783 75.1606 64.5037C75.1631 65.2508 75.1696 65.9977 75.1771 66.7447C75.182 67.3208 75.1837 67.8969 75.1845 68.473C75.1855 68.7482 75.1878 69.0233 75.1913 69.2985C75.2243 72.0378 75.2243 72.0378 74.3769 73.2423C74.2954 73.3752 74.2138 73.5082 74.1297 73.6451C73.2304 74.5202 72.2162 75.0176 70.9674 75.0202C70.8733 75.0206 70.7793 75.021 70.6824 75.0214C70.3651 75.0225 70.0478 75.0226 69.7305 75.0227C69.5015 75.0232 69.2726 75.0239 69.0437 75.0246C68.4128 75.0264 67.782 75.0272 67.1512 75.0278C66.4714 75.0287 65.7917 75.0304 65.112 75.032C63.4695 75.0356 61.827 75.0377 60.1845 75.0396C59.7206 75.0402 59.2568 75.0407 58.7929 75.0413C55.9131 75.045 53.0333 75.0483 50.1534 75.0501C49.4862 75.0505 48.819 75.0509 48.1518 75.0514C47.9859 75.0515 47.8201 75.0516 47.6492 75.0517C44.9629 75.0536 42.2766 75.0584 39.5903 75.0645C36.8329 75.0708 34.0755 75.0742 31.3181 75.075C29.7696 75.0755 28.2212 75.0772 26.6728 75.082C25.3541 75.0861 24.0353 75.0877 22.7166 75.0861C22.0438 75.0853 21.3711 75.0858 20.6984 75.0894C20.082 75.0927 19.4657 75.0926 18.8493 75.0898C18.6268 75.0894 18.4043 75.0902 18.1818 75.0924C16.8802 75.1045 15.8723 74.9906 14.7578 74.2677C14.6249 74.1861 14.4919 74.1045 14.355 74.0205C13.4046 73.0437 12.9777 71.9987 12.9799 70.6568C12.9795 70.541 12.9791 70.4252 12.9787 70.3059C12.9776 69.9145 12.9775 69.5232 12.9774 69.1319C12.9768 68.8497 12.9762 68.5676 12.9755 68.2855C12.9737 67.5077 12.9729 66.7299 12.9722 65.9521C12.9714 65.1142 12.9697 64.2763 12.9681 63.4384C12.9645 61.4135 12.9624 59.3887 12.9605 57.3638C12.9599 56.792 12.9593 56.2203 12.9588 55.6486C12.9551 52.0997 12.9518 48.5509 12.95 45.002C12.9496 44.1797 12.9491 43.3574 12.9487 42.535C12.9486 42.4329 12.9486 42.3307 12.9485 42.2255C12.9468 38.9136 12.9422 35.6018 12.9361 32.2899C12.9297 28.7887 12.9259 25.2874 12.9251 21.7862C12.9246 19.8775 12.9229 17.9689 12.9181 16.0603C12.914 14.4348 12.9123 12.8095 12.914 11.184C12.9148 10.3546 12.9143 9.5253 12.9107 8.69591C12.9074 7.93641 12.9075 7.17699 12.9103 6.41749C12.9107 6.14294 12.9099 5.86839 12.9077 5.59385C12.8881 2.97947 12.8881 2.97947 13.7324 1.75792C13.814 1.62498 13.8955 1.49205 13.9796 1.35508C14.879 0.48001 15.8932 -0.0174312 17.1419 -0.019967Z" fill="black"/>
<path d="M85.7243 19.4482C86.838 20.3525 87.7698 21.6927 88 23.1446C88.1535 26.011 87.1914 27.8904 85.7386 30.3407C85.557 30.6496 85.3754 30.9586 85.1939 31.2677C85.101 31.4256 85.0081 31.5836 84.9124 31.7463C84.4514 32.5328 83.9963 33.3227 83.5414 34.1127C83.4047 34.3498 83.4047 34.3498 83.2653 34.5917C83.0804 34.9126 82.8955 35.2335 82.7106 35.5545C82.2524 36.3497 81.7937 37.1446 81.335 37.9396C81.1519 38.2569 80.9687 38.5743 80.7856 38.8917C78.2222 43.3351 75.6587 47.7784 73.0952 52.2218C73.0045 52.3791 72.9137 52.5364 72.8202 52.6985C72.6383 53.0138 72.4563 53.329 72.2741 53.6442C71.8481 54.3817 71.423 55.1198 71.0015 55.8599C70.8528 56.1209 70.7038 56.3818 70.5546 56.6426C70.368 56.9692 70.182 57.2961 69.9967 57.6234C69.1838 59.0433 68.447 60.0872 67.0985 61.0292C66.8492 61.208 66.5999 61.3869 66.3506 61.5659C66.2239 61.656 66.0971 61.7461 65.9665 61.839C65.3714 62.2642 64.7841 62.6998 64.1963 63.1349C63.9663 63.3043 63.7363 63.4737 63.5062 63.643C63.0227 63.9992 62.5398 64.3564 62.0574 64.7142C61.9342 64.8054 61.811 64.8966 61.684 64.9905C61.451 65.1631 61.218 65.3359 60.9854 65.509C60.6657 65.7454 60.3444 65.9791 60.0215 66.211C59.9061 66.2939 59.7907 66.3768 59.6719 66.4621C59.5572 66.5419 59.4426 66.6216 59.3245 66.7037C59.222 66.7755 59.1194 66.8473 59.0138 66.9213C58.4823 67.2098 57.9656 67.2442 57.3848 67.09C56.9811 66.7704 56.735 66.5228 56.5059 66.0646C56.5133 65.7111 56.53 65.3642 56.5557 65.012C56.5628 64.9071 56.57 64.8022 56.5774 64.6941C56.6528 63.6332 56.7625 62.5765 56.8807 61.5195C56.9028 61.3191 56.9248 61.1188 56.9469 60.9184C56.9927 60.5034 57.0389 60.0885 57.0854 59.6736C57.1445 59.1454 57.2025 58.6172 57.2602 58.0889C57.3053 57.677 57.3511 57.2652 57.3971 56.8534C57.4291 56.5652 57.4605 56.2769 57.492 55.9886C57.7865 53.3851 57.7865 53.3851 58.4348 52.2819C58.5282 52.1207 58.6217 51.9595 58.718 51.7934C58.8199 51.6219 58.9217 51.4503 59.0236 51.2788C59.1295 51.0974 59.2352 50.916 59.3408 50.7344C59.5579 50.3615 59.776 49.9892 59.9947 49.6173C60.385 48.9533 60.769 48.2858 61.1529 47.6181C61.4239 47.1469 61.6956 46.6762 61.9676 46.2056C62.4238 45.416 62.8797 44.6261 63.3354 43.8361C63.6099 43.3602 63.8845 42.8844 64.1591 42.4085C64.5274 41.77 64.8955 41.1314 65.2635 40.4927C66.1456 38.9617 67.0303 37.4323 67.9225 35.9071C68.6659 34.636 69.3998 33.3596 70.1289 32.0802C70.9396 30.6576 71.7579 29.2396 72.5852 27.8265C73.1333 26.8898 73.6766 25.9505 74.2172 25.0095C74.6594 24.2404 75.1036 23.4725 75.5488 22.7052C75.6119 22.5961 75.675 22.487 75.74 22.3746C76.9043 20.3723 78.0912 18.9232 80.3828 18.3107C82.2577 17.8898 84.1728 18.3368 85.7243 19.4482ZM79.2962 22.4883C78.7366 23.3657 78.2405 24.2803 77.7461 25.1954C78.2781 25.6426 78.8226 25.9981 79.4267 26.341C79.5153 26.3915 79.6039 26.442 79.6952 26.494C79.9759 26.6538 80.2572 26.8127 80.5385 26.9715C80.7278 27.0793 80.9171 27.187 81.1064 27.2948C82.1241 27.879 82.1241 27.879 83.166 28.4181C83.5625 27.7867 83.9516 27.1514 84.3379 26.5138C84.4066 26.4063 84.4754 26.2989 84.5462 26.1882C85.0305 25.3617 85.0475 24.5216 84.9238 23.5841C84.671 22.7219 84.2065 22.1829 83.459 21.6798C82.0032 20.9577 80.3327 21.1351 79.2962 22.4883ZM76.1348 27.9786C74.8033 30.2553 73.4802 32.5367 72.1637 34.8221C71.7055 35.6173 71.2468 36.4122 70.7881 37.2071C70.605 37.5245 70.4219 37.8419 70.2388 38.1593C69.1401 40.0636 68.0415 41.9679 66.9429 43.8722C66.8522 44.0294 66.7615 44.1866 66.6681 44.3485C66.4854 44.6651 66.3028 44.9816 66.1202 45.2982C65.6551 46.1043 65.19 46.9106 64.725 47.7168C63.6472 49.5857 62.5681 51.4538 61.4863 53.3204C61.858 53.7381 62.2777 53.9855 62.7606 54.2628C62.9258 54.3579 63.0909 54.453 63.261 54.551C63.3471 54.6 63.4331 54.6491 63.5218 54.6996C63.7813 54.8476 64.0402 54.9967 64.299 55.146C65.1567 55.6381 66.0155 56.1136 66.9062 56.5431C67.4753 55.7388 67.971 54.9066 68.4443 54.0437C69.0239 52.9876 69.6207 51.9429 70.2296 50.9034C70.9539 49.6667 71.6747 48.4281 72.3903 47.1864C72.4814 47.0282 72.5725 46.8701 72.6665 46.7072C72.8513 46.3863 73.0362 46.0655 73.221 45.7446C73.6792 44.9493 74.138 44.1544 74.5967 43.3595C74.7798 43.0421 74.9629 42.7247 75.146 42.4073C75.6953 41.4552 75.6953 41.4552 76.2446 40.503C76.3353 40.3458 76.426 40.1886 76.5195 40.0266C76.702 39.7103 76.8845 39.394 77.067 39.0777C77.5342 38.268 78.0011 37.4582 78.4676 36.6481C78.5622 36.4839 78.6568 36.3198 78.7543 36.1506C78.9405 35.8275 79.1264 35.5043 79.3122 35.1809C79.7213 34.4703 80.1332 33.7621 80.5585 33.061C80.6285 32.9449 80.6985 32.8289 80.7706 32.7094C80.8986 32.4981 81.0279 32.2875 81.1586 32.0779C81.3019 31.841 81.43 31.595 81.5547 31.3478C81.3553 30.7495 81.0825 30.6801 80.5379 30.3733C80.4498 30.3233 80.3618 30.2733 80.2711 30.2218C79.9886 30.0618 79.7051 29.9037 79.4215 29.7456C79.2344 29.6398 79.0474 29.5338 78.8605 29.4277C77.9635 28.9207 77.0629 28.4269 76.1348 27.9786ZM60.6074 56.5431C60.3415 58.446 60.1023 60.3353 60.0215 62.256C60.9249 61.6923 61.7748 61.0599 62.6216 60.4158C62.7289 60.3346 62.8363 60.2535 62.9468 60.1699C63.0502 60.0907 63.1536 60.0115 63.2602 59.93C63.3523 59.8596 63.4444 59.7893 63.5393 59.7168C63.9025 59.412 64.2309 59.079 64.5625 58.7403C64.023 58.427 63.4833 58.1141 62.9433 57.8016C62.7595 57.6951 62.5758 57.5885 62.3922 57.4819C62.1287 57.3288 61.8651 57.1763 61.6013 57.0237C61.4425 56.9317 61.2838 56.8396 61.1202 56.7448C60.8022 56.5313 60.8022 56.5313 60.6074 56.5431Z" fill="black"/>
<path d="M52.2246 10.4543C55.1118 12.7509 56.9876 15.7997 57.5312 19.4825C57.7777 23.378 57.1557 26.9304 54.5729 29.9682C54.2469 30.3367 53.9133 30.6964 53.5762 31.0548C53.497 31.145 53.4179 31.2353 53.3364 31.3283C51.2957 33.5592 48.0049 34.7776 45.0412 34.9194C41.1238 35.0252 37.7078 34.0324 34.7832 31.354C32.4777 29.164 30.7563 26.1076 30.5522 22.8812C30.461 18.5997 31.2958 15.0543 34.3092 11.8819C39.0345 7.08944 46.7919 6.47744 52.2246 10.4543ZM35.6593 15.0514C33.8534 17.4215 33.3862 20.2308 33.6543 23.1446C33.9058 24.6861 34.6222 26.0633 35.4121 27.3927C35.8927 27.1874 36.1554 26.9542 36.4833 26.5504C37.4017 25.4727 38.4549 24.7602 39.6601 24.0235C39.6209 23.9299 39.5816 23.8362 39.5411 23.7397C39.4837 23.5917 39.4263 23.4436 39.3672 23.2911C39.3293 23.1974 39.2915 23.1037 39.2524 23.0072C38.915 22.1048 38.8484 21.2745 38.8545 20.3156C38.8551 20.1672 38.8557 20.0188 38.8564 19.8659C38.8825 18.7171 39.038 17.8334 39.6601 16.8458C39.7147 16.7572 39.7693 16.6687 39.8255 16.5774C40.6535 15.4378 41.9771 14.8775 43.3223 14.6485C44.8823 14.4755 46.2865 14.8746 47.5371 15.8175C48.4372 16.6339 49.0857 17.7713 49.2259 18.9876C49.2458 19.413 49.2499 19.8349 49.2457 20.2607C49.245 20.4846 49.245 20.4846 49.2443 20.7129C49.2269 21.6465 49.1362 22.441 48.7239 23.2928C48.5564 23.6204 48.5564 23.6204 48.5957 24.17C48.9077 24.4022 49.203 24.5919 49.5387 24.7834C50.585 25.4152 51.4842 26.1329 52.2012 27.138C52.2682 27.2221 52.3352 27.3061 52.4043 27.3927C52.501 27.3927 52.5976 27.3927 52.6973 27.3927C54.314 24.6703 54.9889 21.7275 54.2353 18.6036C53.3253 15.7466 51.4479 13.4047 48.788 11.9752C43.9803 9.74503 39.0342 11.1592 35.6593 15.0514ZM42.0863 18.6128C41.6513 19.5197 41.5973 20.5531 41.8666 21.515C42.1507 22.2489 42.6191 22.6465 43.3223 22.9981C44.0437 23.0773 44.6215 23.0779 45.2815 22.7601C46.0984 22.021 46.3442 21.4065 46.403 20.3248C46.3941 19.5382 46.2815 18.9702 45.7759 18.3381C45.2296 17.9035 44.7692 17.6201 44.073 17.5141C43.2122 17.6346 42.63 17.9297 42.0863 18.6128ZM41.2715 26.6602C41.1414 26.7175 41.0113 26.7747 40.8772 26.8336C39.6594 27.4315 38.6566 28.3121 37.9023 29.4434C37.9023 29.5885 37.9023 29.7335 37.9023 29.8829C40.5682 31.5616 43.3197 32.3387 46.4865 31.6625C47.8403 31.3069 49.0313 30.6233 50.207 29.8829C50.0739 29.1151 49.5588 28.6698 49.0351 28.1251C48.9596 28.0458 48.8841 27.9665 48.8063 27.8848C47.2719 26.4271 45.3983 26.1603 43.3886 26.1899C42.6228 26.2158 41.9722 26.3452 41.2715 26.6602Z" fill="black"/>
<path d="M31.3601 55.864C31.641 55.8609 31.641 55.8609 31.9276 55.8577C32.1341 55.8591 32.3406 55.8606 32.5471 55.8622C32.7653 55.8612 32.9836 55.8599 33.2019 55.8583C33.7939 55.855 34.3858 55.8563 34.9778 55.8586C35.5976 55.8605 36.2174 55.8587 36.8372 55.8576C37.878 55.8563 38.9188 55.858 39.9595 55.8615C41.1625 55.8655 42.3654 55.8642 43.5684 55.8602C44.6016 55.8568 45.6347 55.8564 46.6679 55.8583C47.2849 55.8594 47.9018 55.8596 48.5187 55.8572C49.0987 55.855 49.6787 55.8565 50.2587 55.8607C50.4715 55.8617 50.6842 55.8614 50.897 55.8598C51.1876 55.8578 51.4782 55.8608 51.7688 55.864C51.9314 55.8643 52.0939 55.8645 52.2614 55.8648C52.8388 55.9869 53.0608 56.2395 53.4297 56.6894C53.5269 57.0556 53.5269 57.0556 53.5212 57.4218C53.5231 57.5427 53.525 57.6635 53.5269 57.788C53.3857 58.3198 53.1157 58.5373 52.6973 58.8867C52.2614 58.9788 52.2614 58.9788 51.7688 58.9797C51.4879 58.9828 51.4879 58.9828 51.2013 58.9859C50.9948 58.9845 50.7883 58.983 50.5818 58.9814C50.3635 58.9824 50.1452 58.9837 49.927 58.9853C49.335 58.9887 48.743 58.9874 48.151 58.9851C47.5312 58.9832 46.9115 58.9849 46.2917 58.9861C45.2509 58.9874 44.2101 58.9856 43.1693 58.9822C41.9664 58.9782 40.7635 58.9795 39.5605 58.9835C38.5273 58.9868 37.4941 58.9873 36.4609 58.9854C35.844 58.9842 35.2271 58.9841 34.6102 58.9865C34.0301 58.9886 33.4502 58.9871 32.8702 58.9829C32.6574 58.9819 32.4446 58.9822 32.2319 58.9838C31.9413 58.9858 31.6507 58.9829 31.3601 58.9797C31.1975 58.9794 31.0349 58.9791 30.8674 58.9788C30.2901 58.8567 30.0681 58.6041 29.6992 58.1543C29.6019 57.788 29.6019 57.788 29.6077 57.4218C29.6058 57.301 29.6039 57.1801 29.6019 57.0556C29.8426 56.1494 30.4864 55.8655 31.3601 55.864Z" fill="black"/>
<path d="M31.3601 47.6609C31.641 47.6578 31.641 47.6578 31.9276 47.6546C32.1341 47.656 32.3406 47.6575 32.5471 47.6591C32.7653 47.6581 32.9836 47.6568 33.2019 47.6552C33.7939 47.6519 34.3858 47.6532 34.9778 47.6555C35.5976 47.6573 36.2174 47.6556 36.8372 47.6545C37.878 47.6531 38.9188 47.6549 39.9595 47.6584C41.1625 47.6624 42.3654 47.6611 43.5684 47.657C44.6016 47.6537 45.6347 47.6532 46.6679 47.6552C47.2849 47.6563 47.9018 47.6565 48.5187 47.654C49.0987 47.6519 49.6787 47.6534 50.2587 47.6576C50.4715 47.6586 50.6842 47.6583 50.897 47.6567C51.1876 47.6547 51.4782 47.6577 51.7688 47.6609C51.9314 47.6611 52.0939 47.6614 52.2614 47.6617C52.8388 47.7838 53.0608 48.0364 53.4297 48.4863C53.5269 48.8525 53.5269 48.8525 53.5212 49.2187C53.5231 49.3396 53.525 49.4604 53.5269 49.5849C53.3857 50.1167 53.1157 50.3341 52.6973 50.6835C52.2614 50.7757 52.2614 50.7757 51.7688 50.7766C51.4879 50.7797 51.4879 50.7797 51.2013 50.7828C50.9948 50.7814 50.7883 50.7799 50.5818 50.7783C50.3635 50.7793 50.1452 50.7806 49.927 50.7822C49.335 50.7855 48.743 50.7843 48.151 50.7819C47.5312 50.7801 46.9115 50.7818 46.2917 50.7829C45.2509 50.7843 44.2101 50.7825 43.1693 50.779C41.9664 50.775 40.7635 50.7763 39.5605 50.7804C38.5273 50.7837 37.4941 50.7842 36.4609 50.7822C35.844 50.7811 35.2271 50.781 34.6102 50.7834C34.0301 50.7855 33.4502 50.784 32.8702 50.7798C32.6574 50.7788 32.4446 50.7791 32.2319 50.7807C31.9413 50.7827 31.6507 50.7798 31.3601 50.7766C31.1975 50.7763 31.0349 50.776 30.8674 50.7757C30.2901 50.6536 30.0681 50.401 29.6992 49.9511C29.6019 49.5849 29.6019 49.5849 29.6077 49.2187C29.6058 49.0979 29.6039 48.977 29.6019 48.8525C29.8426 47.9463 30.4864 47.6623 31.3601 47.6609Z" fill="black"/>
<path d="M31.3601 39.4577C31.641 39.4546 31.641 39.4546 31.9276 39.4515C32.1341 39.4529 32.3406 39.4544 32.5471 39.456C32.7653 39.455 32.9836 39.4537 33.2019 39.4521C33.7939 39.4487 34.3858 39.45 34.9778 39.4524C35.5976 39.4542 36.2174 39.4525 36.8372 39.4513C37.878 39.45 38.9188 39.4518 39.9595 39.4552C41.1625 39.4592 42.3654 39.4579 43.5684 39.4539C44.6016 39.4506 45.6347 39.4501 46.6679 39.452C47.2849 39.4532 47.9018 39.4533 48.5187 39.4509C49.0987 39.4488 49.6787 39.4503 50.2587 39.4545C50.4715 39.4555 50.6842 39.4552 50.897 39.4536C51.1876 39.4516 51.4782 39.4545 51.7688 39.4577C51.9314 39.458 52.0939 39.4583 52.2614 39.4586C52.8388 39.5807 53.0608 39.8333 53.4297 40.2832C53.5269 40.6494 53.5269 40.6494 53.5212 41.0156C53.5231 41.1364 53.525 41.2573 53.5269 41.3818C53.3857 41.9135 53.1157 42.131 52.6973 42.4804C52.2614 42.5726 52.2614 42.5726 51.7688 42.5734C51.4879 42.5765 51.4879 42.5765 51.2013 42.5797C50.9948 42.5783 50.7883 42.5768 50.5818 42.5752C50.3635 42.5762 50.1452 42.5775 49.927 42.5791C49.335 42.5824 48.743 42.5811 48.151 42.5788C47.5312 42.577 46.9115 42.5787 46.2917 42.5798C45.2509 42.5812 44.2101 42.5794 43.1693 42.5759C41.9664 42.5719 40.7635 42.5732 39.5605 42.5772C38.5273 42.5806 37.4941 42.581 36.4609 42.5791C35.844 42.578 35.2271 42.5778 34.6102 42.5802C34.0301 42.5824 33.4502 42.5809 32.8702 42.5767C32.6574 42.5757 32.4446 42.576 32.2319 42.5776C31.9413 42.5796 31.6507 42.5766 31.3601 42.5734C31.1975 42.5732 31.0349 42.5729 30.8674 42.5726C30.2901 42.4505 30.0681 42.1979 29.6992 41.748C29.6019 41.3818 29.6019 41.3818 29.6077 41.0156C29.6058 40.8947 29.6039 40.7739 29.6019 40.6494C29.8426 39.7432 30.4864 39.4592 31.3601 39.4577Z" fill="black"/>
<path d="M44.2544 64.0653C44.4396 64.063 44.6249 64.0607 44.8158 64.0583C45.0168 64.0597 45.2178 64.0612 45.4188 64.0628C45.6262 64.0623 45.8336 64.0616 46.041 64.0607C46.4749 64.0596 46.9088 64.0612 47.3427 64.0646C47.8979 64.0688 48.4528 64.0664 49.008 64.062C49.436 64.0594 49.864 64.0602 50.2921 64.0621C50.4967 64.0626 50.7014 64.062 50.906 64.0603C51.1924 64.0584 51.4788 64.0618 51.7651 64.0653C52.0092 64.0662 52.0092 64.0662 52.2582 64.0671C52.8375 64.1898 53.0596 64.4409 53.4297 64.8925C53.5269 65.2587 53.5269 65.2587 53.5212 65.625C53.5241 65.8062 53.5241 65.8062 53.5269 65.9912C53.3857 66.523 53.1159 66.7404 52.6973 67.0898C52.2582 67.1828 52.2582 67.1828 51.7651 67.1846C51.4872 67.188 51.4872 67.188 51.2037 67.1916C51.0027 67.1903 50.8017 67.1888 50.6007 67.1871C50.3933 67.1876 50.1859 67.1883 49.9785 67.1892C49.5446 67.1903 49.1107 67.1887 48.6768 67.1853C48.1216 67.1811 47.5667 67.1835 47.0115 67.1879C46.5835 67.1906 46.1555 67.1897 45.7274 67.1878C45.5228 67.1873 45.3181 67.1879 45.1135 67.1896C44.8271 67.1915 44.5407 67.1881 44.2544 67.1846C44.0103 67.1837 44.0103 67.1837 43.7613 67.1828C43.182 67.0601 42.9599 66.809 42.5898 66.3574C42.4926 65.9912 42.4926 65.9912 42.4983 65.625C42.4964 65.5041 42.4945 65.3833 42.4926 65.2587C42.7337 64.3509 43.3795 64.0685 44.2544 64.0653Z" fill="black"/>
<path d="M25.5977 55.9571C26.1354 56.3268 26.2948 56.568 26.4766 57.1931C26.4766 57.7927 26.3623 58.0944 26.0371 58.5939C25.4485 58.9863 24.9713 58.9888 24.2793 58.8868C23.8589 58.624 23.6214 58.4499 23.4004 58.0079C23.3153 56.9694 23.3153 56.9694 23.6751 56.4058C24.2463 55.8513 24.831 55.8419 25.5977 55.9571Z" fill="black"/>
<path d="M25.5977 47.754C26.1354 48.1237 26.2948 48.3649 26.4766 48.99C26.4766 49.5896 26.3623 49.8913 26.0371 50.3907C25.4485 50.7832 24.9713 50.7857 24.2793 50.6837C23.8589 50.4209 23.6214 50.2468 23.4004 49.8048C23.3153 48.7663 23.3153 48.7663 23.6751 48.2026C24.2463 47.6482 24.831 47.6388 25.5977 47.754Z" fill="black"/>
<path d="M25.5977 39.5509C26.1354 39.9206 26.2948 40.1618 26.4766 40.7869C26.4766 41.3865 26.3623 41.6882 26.0371 42.1876C25.4485 42.5801 24.9713 42.5826 24.2793 42.4806C23.8589 42.2178 23.6214 42.0437 23.4004 41.6017C23.3153 40.5632 23.3153 40.5632 23.6751 39.9995C24.2463 39.4451 24.831 39.4357 25.5977 39.5509Z" fill="black"/>
<path d="M85.7087 5.04785C86.1005 5.31323 86.1422 5.46938 86.2947 5.92676C86.3005 6.26851 86.3011 6.61042 86.2947 6.95215C86.3848 6.94705 86.4748 6.94195 86.5676 6.9367C86.7452 6.93075 86.7452 6.93075 86.9264 6.92469C87.1023 6.91704 87.1023 6.91704 87.2817 6.90924C87.613 6.95215 87.613 6.95215 87.8682 7.15185C88.1194 7.4787 88.1697 7.71366 88.199 8.12403C88.0619 8.57762 87.9493 8.81312 87.613 9.14942C87.296 9.17803 87.296 9.17803 86.9356 9.16773C86.8158 9.16508 86.6961 9.16244 86.5728 9.15972C86.481 9.15632 86.3892 9.15292 86.2947 9.14942C86.3038 9.3035 86.3128 9.45758 86.3222 9.61634C86.2917 10.2365 86.15 10.6124 85.7087 11.0537C84.6831 11.1378 84.6831 11.1378 84.1707 10.8431C83.8464 10.2892 83.9027 9.77626 83.9509 9.14942C83.8626 9.15621 83.7742 9.16301 83.6831 9.17002C82.7365 9.21277 82.7365 9.21277 82.2572 8.92053C81.9641 8.42356 81.9656 8.1054 82.0466 7.53809C82.2572 7.18103 82.2572 7.18103 82.6326 6.95215C83.0765 6.90554 83.5064 6.91796 83.9509 6.95215C83.9441 6.86378 83.9373 6.77541 83.9303 6.68436C83.8878 5.74171 83.8878 5.74171 84.1707 5.25843C84.722 4.94142 85.076 4.97755 85.7087 5.04785Z" fill="black"/>
</g>
<path d="M6.20908 14.115C6.5793 14.3958 6.64438 14.542 6.79502 14.9939C6.81634 15.3047 6.82736 15.6162 6.83164 15.9277C6.83541 16.092 6.83919 16.2563 6.84308 16.4255C6.78986 16.9489 6.67317 17.2153 6.35556 17.6306C5.86527 17.8757 5.60882 17.9566 5.07383 17.8229C4.74424 17.6306 4.74424 17.6306 4.45127 17.1911C4.38951 16.7537 4.40376 16.3141 4.40549 15.8728C4.40313 15.7527 4.40077 15.6326 4.39834 15.5089C4.39824 15.3933 4.39815 15.2777 4.39805 15.1587C4.39762 15.0533 4.39718 14.9479 4.39673 14.8394C4.46747 14.4698 4.59755 14.3447 4.89072 14.115C5.4107 13.9416 5.68168 13.9831 6.20908 14.115Z" fill="black"/>
<path d="M9.1937 18.3264C9.35798 18.3226 9.52226 18.3188 9.69152 18.3149C10.2161 18.3683 10.4789 18.4866 10.8966 18.8025C11.1896 19.2419 11.1896 19.2419 11.1621 19.7546C11.0424 20.27 11.005 20.3987 10.6036 20.7068C10.1715 20.7972 9.73491 20.7747 9.29441 20.7708C9.17554 20.7738 9.05667 20.7767 8.93421 20.7797C8.37368 20.7793 8.06313 20.774 7.59496 20.447C7.2422 19.9093 7.31045 19.5835 7.38096 18.9489C7.81713 18.3051 8.47363 18.3363 9.1937 18.3264Z" fill="black"/>
<path d="M1.86948 18.3264C2.03376 18.3226 2.19804 18.3188 2.3673 18.3149C2.89185 18.3683 3.15467 18.4866 3.57236 18.8025C3.86533 19.2419 3.86533 19.2419 3.83787 19.7546C3.71822 20.27 3.68074 20.3987 3.27939 20.7068C2.84732 20.7972 2.41069 20.7747 1.97019 20.7708C1.85132 20.7738 1.73246 20.7767 1.60999 20.7797C1.04946 20.7793 0.738907 20.774 0.270742 20.447C-0.0820231 19.9093 -0.013767 19.5835 0.0567374 18.9489C0.492909 18.3051 1.14941 18.3363 1.86948 18.3264Z" fill="black"/>
<path d="M6.20897 21.4391C6.57919 21.72 6.64427 21.8662 6.7949 22.318C6.81622 22.6288 6.82725 22.9404 6.83152 23.2519C6.8353 23.4162 6.83908 23.5804 6.84297 23.7497C6.7859 24.3109 6.61061 24.6996 6.20897 25.1013C5.16826 25.1866 5.16826 25.1866 4.70979 24.8884C4.32631 24.3352 4.37088 23.845 4.38707 23.1878C4.38603 23.0684 4.38499 22.9489 4.38392 22.8259C4.39326 21.9518 4.39326 21.9518 4.64738 21.6306C5.17211 21.2176 5.5925 21.285 6.20897 21.4391Z" fill="black"/>
<defs>
<clipPath id="clip0_135_21">
<rect width="75" height="75" fill="white" transform="translate(13)"/>
</clipPath>
</defs>
</svg>
